<?xml version="1.0" encoding="UTF-8" standalone="no"?>
<!-- Created with Inkscape (http://www.inkscape.org/) -->

<svg
   xmlns:dc="http://purl.org/dc/elements/1.1/"
   xmlns:cc="http://creativecommons.org/ns#"
   xmlns:rdf="http://www.w3.org/1999/02/22-rdf-syntax-ns#"
   xmlns:svg="http://www.w3.org/2000/svg"
   xmlns="http://www.w3.org/2000/svg"
   xmlns:xlink="http://www.w3.org/1999/xlink"
   xmlns:sodipodi="http://sodipodi.sourceforge.net/DTD/sodipodi-0.dtd"
   xmlns:inkscape="http://www.inkscape.org/namespaces/inkscape"
   width="92"
   height="91"
   id="svg7814"
   version="1.1"
   inkscape:version="0.47 r22583"
   sodipodi:docname="Nouveau document 5">
  <defs
     id="defs7816">
    <inkscape:perspective
       sodipodi:type="inkscape:persp3d"
       inkscape:vp_x="0 : 526.18109 : 1"
       inkscape:vp_y="0 : 1000 : 0"
       inkscape:vp_z="744.09448 : 526.18109 : 1"
       inkscape:persp3d-origin="372.04724 : 350.78739 : 1"
       id="perspective7822" />
    <inkscape:perspective
       id="perspective7482"
       inkscape:persp3d-origin="0.5 : 0.33333333 : 1"
       inkscape:vp_z="1 : 0.5 : 1"
       inkscape:vp_y="0 : 1000 : 0"
       inkscape:vp_x="0 : 0.5 : 1"
       sodipodi:type="inkscape:persp3d" />
    <linearGradient
       inkscape:collect="always"
       xlink:href="#ButtonShadow-4-6-1"
       id="linearGradient7398"
       gradientUnits="userSpaceOnUse"
       gradientTransform="matrix(1.0277778,0,0,1.0127315,-1.333333,0.03087963)"
       x1="26.5"
       y1="90.312759"
       x2="26.5"
       y2="6.9171443" />
    <linearGradient
       gradientTransform="matrix(1.0058652,0,0,0.994169,0,12)"
       gradientUnits="userSpaceOnUse"
       id="ButtonShadow-4-6-1"
       y2="7.0165396"
       x2="45.447727"
       y1="80.471962"
       x1="45.447727">
      <stop
         offset="0"
         style="stop-color:#000000;stop-opacity:1"
         id="stop3750-7-6-4" />
      <stop
         offset="1"
         style="stop-color:#000000;stop-opacity:0.58823532"
         id="stop3752-6-2-3" />
    </linearGradient>
    <linearGradient
       inkscape:collect="always"
       xlink:href="#ButtonShadow-4-6-1"
       id="linearGradient7400"
       gradientUnits="userSpaceOnUse"
       gradientTransform="matrix(1.0277778,0,0,1.0127315,-1.333333,0.03087963)"
       x1="26.5"
       y1="90.312759"
       x2="26.5"
       y2="6.9171443" />
    <linearGradient
       gradientTransform="matrix(1.0058652,0,0,0.994169,0,12)"
       gradientUnits="userSpaceOnUse"
       id="linearGradient7491"
       y2="7.0165396"
       x2="45.447727"
       y1="80.471962"
       x1="45.447727">
      <stop
         offset="0"
         style="stop-color:#000000;stop-opacity:1"
         id="stop7493" />
      <stop
         offset="1"
         style="stop-color:#000000;stop-opacity:0.58823532"
         id="stop7495" />
    </linearGradient>
    <linearGradient
       inkscape:collect="always"
       xlink:href="#ButtonShadow-4-6-1"
       id="linearGradient7402"
       gradientUnits="userSpaceOnUse"
       gradientTransform="matrix(1.0277778,0,0,1.0127315,-1.333333,0.03087963)"
       x1="26.5"
       y1="90.312759"
       x2="26.5"
       y2="6.9171443" />
    <linearGradient
       gradientTransform="matrix(1.0058652,0,0,0.994169,0,12)"
       gradientUnits="userSpaceOnUse"
       id="linearGradient7498"
       y2="7.0165396"
       x2="45.447727"
       y1="80.471962"
       x1="45.447727">
      <stop
         offset="0"
         style="stop-color:#000000;stop-opacity:1"
         id="stop7500" />
      <stop
         offset="1"
         style="stop-color:#000000;stop-opacity:0.58823532"
         id="stop7502" />
    </linearGradient>
    <linearGradient
       inkscape:collect="always"
       xlink:href="#ButtonShadow-4-6-1"
       id="linearGradient7404"
       gradientUnits="userSpaceOnUse"
       gradientTransform="matrix(1.0277778,0,0,1.0127315,-1.333333,0.03087963)"
       x1="26.5"
       y1="90.312759"
       x2="26.5"
       y2="6.9171443" />
    <linearGradient
       gradientTransform="matrix(1.0058652,0,0,0.994169,0,12)"
       gradientUnits="userSpaceOnUse"
       id="linearGradient7505"
       y2="7.0165396"
       x2="45.447727"
       y1="80.471962"
       x1="45.447727">
      <stop
         offset="0"
         style="stop-color:#000000;stop-opacity:1"
         id="stop7507" />
      <stop
         offset="1"
         style="stop-color:#000000;stop-opacity:0.58823532"
         id="stop7509" />
    </linearGradient>
    <linearGradient
       inkscape:collect="always"
       xlink:href="#ButtonShadow-4-6-1"
       id="linearGradient7406"
       gradientUnits="userSpaceOnUse"
       x1="26.5"
       y1="90.312759"
       x2="26.5"
       y2="6.9171443" />
    <linearGradient
       gradientTransform="matrix(1.0058652,0,0,0.994169,0,12)"
       gradientUnits="userSpaceOnUse"
       id="linearGradient7512"
       y2="7.0165396"
       x2="45.447727"
       y1="80.471962"
       x1="45.447727">
      <stop
         offset="0"
         style="stop-color:#000000;stop-opacity:1"
         id="stop7514" />
      <stop
         offset="1"
         style="stop-color:#000000;stop-opacity:0.58823532"
         id="stop7516" />
    </linearGradient>
    <linearGradient
       inkscape:collect="always"
       xlink:href="#linearGradient3348-2-5"
       id="linearGradient7408"
       gradientUnits="userSpaceOnUse"
       gradientTransform="matrix(0.72,0,0,0.72,1.92,-5.52)"
       x1="34.85965"
       y1="17.736111"
       x2="34.85965"
       y2="32.012737" />
    <linearGradient
       id="linearGradient3348-2-5">
      <stop
         offset="0"
         style="stop-color:#e0c693;stop-opacity:1"
         id="stop3350-9-1" />
      <stop
         offset="0.71691591"
         style="stop-color:#c0984f;stop-opacity:1"
         id="stop3356-7-1" />
      <stop
         offset="1"
         style="stop-color:#a67315;stop-opacity:1"
         id="stop3352-5-4" />
    </linearGradient>
    <linearGradient
       inkscape:collect="always"
       xlink:href="#linearGradient3737-3-4-0"
       id="linearGradient7410"
       gradientUnits="userSpaceOnUse"
       x1="23.607143"
       y1="6"
       x2="23.607143"
       y2="58.466385" />
    <linearGradient
       id="linearGradient3737-3-4-0">
      <stop
         offset="0"
         style="stop-color:#ffffff;stop-opacity:1"
         id="stop3739-1-6-0" />
      <stop
         offset="1"
         style="stop-color:#ffffff;stop-opacity:0"
         id="stop3741-7-3-9" />
    </linearGradient>
    <linearGradient
       inkscape:collect="always"
       xlink:href="#linearGradient3317-9-7"
       id="linearGradient7412"
       gradientUnits="userSpaceOnUse"
       x1="48.035713"
       y1="25.910715"
       x2="48.035713"
       y2="85.821426" />
    <linearGradient
       gradientTransform="scale(1.0598527,0.9435274)"
       gradientUnits="userSpaceOnUse"
       id="linearGradient3317-9-7"
       y2="20.137329"
       x2="11.794092"
       y1="3.2126782"
       x1="11.794092">
      <stop
         offset="0"
         style="stop-color:#c6953a;stop-opacity:1"
         id="stop3319-7-6" />
      <stop
         offset="1"
         style="stop-color:#ab7a1f;stop-opacity:1"
         id="stop3321-4-6" />
    </linearGradient>
    <linearGradient
       inkscape:collect="always"
       xlink:href="#linearGradient7732-2-7"
       id="linearGradient7466"
       gradientUnits="userSpaceOnUse"
       x1="2.7994001"
       y1="412.97"
       x2="595.28101"
       y2="412.97" />
    <linearGradient
       id="linearGradient7732-2-7">
      <stop
         id="stop7734-7-8"
         style="stop-color:#b38229;stop-opacity:1"
         offset="0" />
      <stop
         id="stop7736-3-6"
         style="stop-color:#b38229;stop-opacity:0.47058824"
         offset="1" />
    </linearGradient>
    <linearGradient
       inkscape:collect="always"
       xlink:href="#linearGradient7732-2-7"
       id="linearGradient7464"
       gradientUnits="userSpaceOnUse"
       x1="2.7994001"
       y1="412.97"
       x2="595.28101"
       y2="412.97" />
    <linearGradient
       id="linearGradient7536">
      <stop
         id="stop7538"
         style="stop-color:#b38229;stop-opacity:1"
         offset="0" />
      <stop
         id="stop7540"
         style="stop-color:#b38229;stop-opacity:0.47058824"
         offset="1" />
    </linearGradient>
    <linearGradient
       inkscape:collect="always"
       xlink:href="#linearGradient7732-2-7"
       id="linearGradient7462"
       gradientUnits="userSpaceOnUse"
       x1="2.7994001"
       y1="412.97"
       x2="595.28101"
       y2="412.97" />
    <linearGradient
       id="linearGradient7543">
      <stop
         id="stop7545"
         style="stop-color:#b38229;stop-opacity:1"
         offset="0" />
      <stop
         id="stop7547"
         style="stop-color:#b38229;stop-opacity:0.47058824"
         offset="1" />
    </linearGradient>
    <clipPath
       id="clipPath22-8-3-0"
       clipPathUnits="userSpaceOnUse">
      <path
         id="path24-5-2-9"
         d="m 2.799,130.89 592.482,0 0,564.16 -592.482,0 0,-564.16 z" />
    </clipPath>
    <linearGradient
       inkscape:collect="always"
       xlink:href="#linearGradient7732-2-7"
       id="linearGradient7416"
       gradientUnits="userSpaceOnUse"
       x1="2.7994001"
       y1="412.97"
       x2="595.28101"
       y2="412.97" />
    <linearGradient
       id="linearGradient7552">
      <stop
         id="stop7554"
         style="stop-color:#b38229;stop-opacity:1"
         offset="0" />
      <stop
         id="stop7556"
         style="stop-color:#b38229;stop-opacity:0.47058824"
         offset="1" />
    </linearGradient>
    <linearGradient
       inkscape:collect="always"
       xlink:href="#linearGradient7732-2-7"
       id="linearGradient7414"
       gradientUnits="userSpaceOnUse"
       x1="2.7994001"
       y1="412.97"
       x2="595.28101"
       y2="412.97" />
    <linearGradient
       id="linearGradient7559">
      <stop
         id="stop7561"
         style="stop-color:#b38229;stop-opacity:1"
         offset="0" />
      <stop
         id="stop7563"
         style="stop-color:#b38229;stop-opacity:0.47058824"
         offset="1" />
    </linearGradient>
    <linearGradient
       inkscape:collect="always"
       xlink:href="#linearGradient7732-2-7"
       id="linearGradient7420"
       gradientUnits="userSpaceOnUse"
       x1="2.7994001"
       y1="412.97"
       x2="595.28101"
       y2="412.97" />
    <linearGradient
       id="linearGradient7566">
      <stop
         id="stop7568"
         style="stop-color:#b38229;stop-opacity:1"
         offset="0" />
      <stop
         id="stop7570"
         style="stop-color:#b38229;stop-opacity:0.47058824"
         offset="1" />
    </linearGradient>
    <linearGradient
       inkscape:collect="always"
       xlink:href="#linearGradient7732-2-7"
       id="linearGradient7418"
       gradientUnits="userSpaceOnUse"
       x1="2.7994001"
       y1="412.97"
       x2="595.28101"
       y2="412.97" />
    <linearGradient
       id="linearGradient7573">
      <stop
         id="stop7575"
         style="stop-color:#b38229;stop-opacity:1"
         offset="0" />
      <stop
         id="stop7577"
         style="stop-color:#b38229;stop-opacity:0.47058824"
         offset="1" />
    </linearGradient>
    <linearGradient
       inkscape:collect="always"
       xlink:href="#linearGradient7732-2-7"
       id="linearGradient7424"
       gradientUnits="userSpaceOnUse"
       x1="2.7994001"
       y1="412.97"
       x2="595.28101"
       y2="412.97" />
    <linearGradient
       id="linearGradient7580">
      <stop
         id="stop7582"
         style="stop-color:#b38229;stop-opacity:1"
         offset="0" />
      <stop
         id="stop7584"
         style="stop-color:#b38229;stop-opacity:0.47058824"
         offset="1" />
    </linearGradient>
    <linearGradient
       inkscape:collect="always"
       xlink:href="#linearGradient7732-2-7"
       id="linearGradient7422"
       gradientUnits="userSpaceOnUse"
       x1="2.7994001"
       y1="412.97"
       x2="595.28101"
       y2="412.97" />
    <linearGradient
       id="linearGradient7587">
      <stop
         id="stop7589"
         style="stop-color:#b38229;stop-opacity:1"
         offset="0" />
      <stop
         id="stop7591"
         style="stop-color:#b38229;stop-opacity:0.47058824"
         offset="1" />
    </linearGradient>
    <linearGradient
       inkscape:collect="always"
       xlink:href="#linearGradient7732-2-7"
       id="linearGradient7428"
       gradientUnits="userSpaceOnUse"
       x1="2.7994001"
       y1="412.97"
       x2="595.28101"
       y2="412.97" />
    <linearGradient
       id="linearGradient7594">
      <stop
         id="stop7596"
         style="stop-color:#b38229;stop-opacity:1"
         offset="0" />
      <stop
         id="stop7598"
         style="stop-color:#b38229;stop-opacity:0.47058824"
         offset="1" />
    </linearGradient>
    <linearGradient
       inkscape:collect="always"
       xlink:href="#linearGradient7732-2-7"
       id="linearGradient7426"
       gradientUnits="userSpaceOnUse"
       x1="2.7994001"
       y1="412.97"
       x2="595.28101"
       y2="412.97" />
    <linearGradient
       id="linearGradient7601">
      <stop
         id="stop7603"
         style="stop-color:#b38229;stop-opacity:1"
         offset="0" />
      <stop
         id="stop7605"
         style="stop-color:#b38229;stop-opacity:0.47058824"
         offset="1" />
    </linearGradient>
    <linearGradient
       inkscape:collect="always"
       xlink:href="#linearGradient7732-2-7"
       id="linearGradient7432"
       gradientUnits="userSpaceOnUse"
       x1="2.7994001"
       y1="412.97"
       x2="595.28101"
       y2="412.97" />
    <linearGradient
       id="linearGradient7608">
      <stop
         id="stop7610"
         style="stop-color:#b38229;stop-opacity:1"
         offset="0" />
      <stop
         id="stop7612"
         style="stop-color:#b38229;stop-opacity:0.47058824"
         offset="1" />
    </linearGradient>
    <linearGradient
       inkscape:collect="always"
       xlink:href="#linearGradient7732-2-7"
       id="linearGradient7430"
       gradientUnits="userSpaceOnUse"
       x1="2.7994001"
       y1="412.97"
       x2="595.28101"
       y2="412.97" />
    <linearGradient
       id="linearGradient7615">
      <stop
         id="stop7617"
         style="stop-color:#b38229;stop-opacity:1"
         offset="0" />
      <stop
         id="stop7619"
         style="stop-color:#b38229;stop-opacity:0.47058824"
         offset="1" />
    </linearGradient>
    <linearGradient
       inkscape:collect="always"
       xlink:href="#linearGradient7732-2-7"
       id="linearGradient7436"
       gradientUnits="userSpaceOnUse"
       x1="2.7994001"
       y1="412.97"
       x2="595.28101"
       y2="412.97" />
    <linearGradient
       id="linearGradient7622">
      <stop
         id="stop7624"
         style="stop-color:#b38229;stop-opacity:1"
         offset="0" />
      <stop
         id="stop7626"
         style="stop-color:#b38229;stop-opacity:0.47058824"
         offset="1" />
    </linearGradient>
    <linearGradient
       inkscape:collect="always"
       xlink:href="#linearGradient7732-2-7"
       id="linearGradient7434"
       gradientUnits="userSpaceOnUse"
       x1="2.7994001"
       y1="412.97"
       x2="595.28101"
       y2="412.97" />
    <linearGradient
       id="linearGradient7629">
      <stop
         id="stop7631"
         style="stop-color:#b38229;stop-opacity:1"
         offset="0" />
      <stop
         id="stop7633"
         style="stop-color:#b38229;stop-opacity:0.47058824"
         offset="1" />
    </linearGradient>
    <linearGradient
       inkscape:collect="always"
       xlink:href="#linearGradient7732-2-7"
       id="linearGradient7440"
       gradientUnits="userSpaceOnUse"
       x1="2.7994001"
       y1="412.97"
       x2="595.28101"
       y2="412.97" />
    <linearGradient
       id="linearGradient7636">
      <stop
         id="stop7638"
         style="stop-color:#b38229;stop-opacity:1"
         offset="0" />
      <stop
         id="stop7640"
         style="stop-color:#b38229;stop-opacity:0.47058824"
         offset="1" />
    </linearGradient>
    <linearGradient
       inkscape:collect="always"
       xlink:href="#linearGradient7732-2-7"
       id="linearGradient7438"
       gradientUnits="userSpaceOnUse"
       x1="2.7994001"
       y1="412.97"
       x2="595.28101"
       y2="412.97" />
    <linearGradient
       id="linearGradient7643">
      <stop
         id="stop7645"
         style="stop-color:#b38229;stop-opacity:1"
         offset="0" />
      <stop
         id="stop7647"
         style="stop-color:#b38229;stop-opacity:0.47058824"
         offset="1" />
    </linearGradient>
    <linearGradient
       inkscape:collect="always"
       xlink:href="#linearGradient7732-2-7"
       id="linearGradient7444"
       gradientUnits="userSpaceOnUse"
       x1="2.7994001"
       y1="412.97"
       x2="595.28101"
       y2="412.97" />
    <linearGradient
       id="linearGradient7650">
      <stop
         id="stop7652"
         style="stop-color:#b38229;stop-opacity:1"
         offset="0" />
      <stop
         id="stop7654"
         style="stop-color:#b38229;stop-opacity:0.47058824"
         offset="1" />
    </linearGradient>
    <linearGradient
       inkscape:collect="always"
       xlink:href="#linearGradient7732-2-7"
       id="linearGradient7442"
       gradientUnits="userSpaceOnUse"
       x1="2.7994001"
       y1="412.97"
       x2="595.28101"
       y2="412.97" />
    <linearGradient
       id="linearGradient7657">
      <stop
         id="stop7659"
         style="stop-color:#b38229;stop-opacity:1"
         offset="0" />
      <stop
         id="stop7661"
         style="stop-color:#b38229;stop-opacity:0.47058824"
         offset="1" />
    </linearGradient>
    <linearGradient
       inkscape:collect="always"
       xlink:href="#linearGradient7732-2-7"
       id="linearGradient7448"
       gradientUnits="userSpaceOnUse"
       x1="2.7994001"
       y1="412.97"
       x2="595.28101"
       y2="412.97" />
    <linearGradient
       id="linearGradient7664">
      <stop
         id="stop7666"
         style="stop-color:#b38229;stop-opacity:1"
         offset="0" />
      <stop
         id="stop7668"
         style="stop-color:#b38229;stop-opacity:0.47058824"
         offset="1" />
    </linearGradient>
    <linearGradient
       inkscape:collect="always"
       xlink:href="#linearGradient7732-2-7"
       id="linearGradient7446"
       gradientUnits="userSpaceOnUse"
       x1="2.7994001"
       y1="412.97"
       x2="595.28101"
       y2="412.97" />
    <linearGradient
       id="linearGradient7671">
      <stop
         id="stop7673"
         style="stop-color:#b38229;stop-opacity:1"
         offset="0" />
      <stop
         id="stop7675"
         style="stop-color:#b38229;stop-opacity:0.47058824"
         offset="1" />
    </linearGradient>
    <linearGradient
       inkscape:collect="always"
       xlink:href="#linearGradient7732-2-7"
       id="linearGradient7452"
       gradientUnits="userSpaceOnUse"
       x1="2.7994001"
       y1="412.97"
       x2="595.28101"
       y2="412.97" />
    <linearGradient
       id="linearGradient7678">
      <stop
         id="stop7680"
         style="stop-color:#b38229;stop-opacity:1"
         offset="0" />
      <stop
         id="stop7682"
         style="stop-color:#b38229;stop-opacity:0.47058824"
         offset="1" />
    </linearGradient>
    <linearGradient
       inkscape:collect="always"
       xlink:href="#linearGradient7732-2-7"
       id="linearGradient7450"
       gradientUnits="userSpaceOnUse"
       x1="2.7994001"
       y1="412.97"
       x2="595.28101"
       y2="412.97" />
    <linearGradient
       id="linearGradient7685">
      <stop
         id="stop7687"
         style="stop-color:#b38229;stop-opacity:1"
         offset="0" />
      <stop
         id="stop7689"
         style="stop-color:#b38229;stop-opacity:0.47058824"
         offset="1" />
    </linearGradient>
    <linearGradient
       inkscape:collect="always"
       xlink:href="#linearGradient7732-2-7"
       id="linearGradient7456"
       gradientUnits="userSpaceOnUse"
       x1="2.7994001"
       y1="412.97"
       x2="595.28101"
       y2="412.97" />
    <linearGradient
       id="linearGradient7692">
      <stop
         id="stop7694"
         style="stop-color:#b38229;stop-opacity:1"
         offset="0" />
      <stop
         id="stop7696"
         style="stop-color:#b38229;stop-opacity:0.47058824"
         offset="1" />
    </linearGradient>
    <linearGradient
       inkscape:collect="always"
       xlink:href="#linearGradient7732-2-7"
       id="linearGradient7454"
       gradientUnits="userSpaceOnUse"
       x1="2.7994001"
       y1="412.97"
       x2="595.28101"
       y2="412.97" />
    <linearGradient
       id="linearGradient7699">
      <stop
         id="stop7701"
         style="stop-color:#b38229;stop-opacity:1"
         offset="0" />
      <stop
         id="stop7703"
         style="stop-color:#b38229;stop-opacity:0.47058824"
         offset="1" />
    </linearGradient>
    <linearGradient
       inkscape:collect="always"
       xlink:href="#linearGradient7732-2-7"
       id="linearGradient7460"
       gradientUnits="userSpaceOnUse"
       x1="2.7994001"
       y1="412.97"
       x2="595.28101"
       y2="412.97" />
    <linearGradient
       id="linearGradient7706">
      <stop
         id="stop7708"
         style="stop-color:#b38229;stop-opacity:1"
         offset="0" />
      <stop
         id="stop7710"
         style="stop-color:#b38229;stop-opacity:0.47058824"
         offset="1" />
    </linearGradient>
    <linearGradient
       inkscape:collect="always"
       xlink:href="#linearGradient7732-2-7"
       id="linearGradient7458"
       gradientUnits="userSpaceOnUse"
       x1="2.7994001"
       y1="412.97"
       x2="595.28101"
       y2="412.97" />
    <linearGradient
       id="linearGradient7713">
      <stop
         id="stop7715"
         style="stop-color:#b38229;stop-opacity:1"
         offset="0" />
      <stop
         id="stop7717"
         style="stop-color:#b38229;stop-opacity:0.47058824"
         offset="1" />
    </linearGradient>
    <filter
       color-interpolation-filters="sRGB"
       inkscape:collect="always"
       id="filter9124-4">
      <feGaussianBlur
         inkscape:collect="always"
         stdDeviation="5.7882064"
         id="feGaussianBlur9126-8" />
    </filter>
    <clipPath
       id="clipPath22-8-6-2"
       clipPathUnits="userSpaceOnUse">
      <path
         id="path24-5-4-8"
         d="m 2.799,130.89 592.482,0 0,564.16 -592.482,0 0,-564.16 z" />
    </clipPath>
    <linearGradient
       inkscape:collect="always"
       xlink:href="#linearGradient3187-1-2"
       id="linearGradient7468"
       gradientUnits="userSpaceOnUse"
       gradientTransform="translate(137.86807,570.90014)"
       x1="48"
       y1="78"
       x2="48"
       y2="5.9877172" />
    <linearGradient
       id="linearGradient3187-1-2">
      <stop
         offset="0"
         style="stop-color:#c6953a;stop-opacity:1"
         id="stop3189-7-6" />
      <stop
         offset="1"
         style="stop-color:#dec18c;stop-opacity:1"
         id="stop3191-06-9" />
    </linearGradient>
    <linearGradient
       inkscape:collect="always"
       xlink:href="#linearGradient3737-3-4-0"
       id="linearGradient7470"
       gradientUnits="userSpaceOnUse"
       gradientTransform="translate(137.86807,558.90014)"
       x1="36.357143"
       y1="18"
       x2="36.357143"
       y2="73.994667" />
    <linearGradient
       id="linearGradient7728">
      <stop
         offset="0"
         style="stop-color:#ffffff;stop-opacity:1"
         id="stop7730" />
      <stop
         offset="1"
         style="stop-color:#ffffff;stop-opacity:0"
         id="stop7732" />
    </linearGradient>
    <filter
       id="filter3179-8-8"
       color-interpolation-filters="sRGB"
       height="1.9230769"
       width="1.5901639"
       y="-0.46153846"
       x="-0.29508197">
      <feGaussianBlur
         stdDeviation="6.6964288"
         id="feGaussianBlur3181-5-6" />
    </filter>
    <radialGradient
       inkscape:collect="always"
       xlink:href="#linearGradient3737-5-94-5"
       id="radialGradient7472"
       gradientUnits="userSpaceOnUse"
       gradientTransform="matrix(1.1573129,0,0,0.99590774,130.31705,559.09727)"
       cx="48"
       cy="90.171875"
       fx="48"
       fy="90.171875"
       r="42" />
    <linearGradient
       id="linearGradient3737-5-94-5">
      <stop
         offset="0"
         style="stop-color:#ffffff;stop-opacity:1"
         id="stop3739-0-1-2" />
      <stop
         offset="1"
         style="stop-color:#ffffff;stop-opacity:0"
         id="stop3741-4-54-2" />
    </linearGradient>
    <mask
       maskUnits="userSpaceOnUse"
       id="mask6505-4">
      <path
         style="fill:#ffffff;fill-opacity:1;stroke:#ffffff;stroke-width:0.1;stroke-linejoin:miter;stroke-miterlimit:4;stroke-opacity:1;stroke-dashoffset:0"
         d="m 466.625,496.53125 c -3.324,0 -6,2.676 -6,6 l 0,68.5625 c 0,3.324 2.676,6 6,6 l 76.90625,0 c 3.324,0 6,-2.676 6,-6 l 0,-68.5625 c 0,-3.324 -2.676,-6 -6,-6 l -76.90625,0 z m 52.0625,5.25 c 0.42209,-0.0184 0.76833,0.0332 0.96875,0.125 2.39716,3.2867 -4.97637,2.44336 -6.46875,8.59375 0.29213,-7.07936 3.67096,-8.63905 5.5,-8.71875 z M 494.46875,502.75 c 3.5608,-0.0237 10.84038,0.57451 15.15625,5.875 -2.0769,-1.28128 -6.14663,-4.33417 -15.15625,-5.875 z m 24.15625,0.0312 c -0.51053,-0.0307 -1.28579,0.28107 -2.21875,1.28125 -1.63224,1.75033 -2.31201,3.73899 -2.1875,3.59375 2.90412,-3.83422 5.53926,-3.37128 5,-4.53125 -0.091,-0.19218 -0.28743,-0.32535 -0.59375,-0.34375 z m -12.46875,1.59375 c 4.28872,0.75541 5.71207,4.36628 6.65625,6.875 -1.49708,-1.61861 -3.28445,-4.90578 -6.65625,-6.875 z m -23.375,0.3125 c 2.11428,-0.0676 4.4546,0.36036 6.5,1.9375 -2.97571,-0.88049 -6.39577,-1.56838 -12.3125,-0.625 0.76389,-0.33343 3.09414,-1.2256 5.8125,-1.3125 z M 523.375,504.75 c 6.32121,0.0356 12.81838,5.01923 11.1875,13.4375 -0.2339,-0.28773 -0.42365,-0.88497 -0.46875,-1.21875 -2.10461,-15.63571 -18.08092,-10.69881 -20.5625,-5.25 0.16586,-0.51304 0.21781,-0.92084 0.4375,-1.375 1.87145,-3.86742 5.61352,-5.61505 9.40625,-5.59375 z m -29.75,1.125 c 0.55868,-0.0221 1.26185,0.0242 1.4375,0.0312 9.3332,0.37765 17.70762,9.5631 18.625,10.75 1.92386,-5.19694 6.86494,-6.80601 7.5625,-6.9375 1.02516,-0.19278 6.8075,-1.13978 8.15625,5.40625 0.0614,0.2993 -0.37518,0.45805 -0.96875,0.0625 -3.56103,-2.71582 -6.47603,-3.22664 -9.1875,-0.9375 -1.47852,1.18186 -2.43386,2.17682 -2.9375,5.59375 0.44992,0.91703 0.75237,1.46493 1.15625,2.0625 6.22565,1.005 6.70858,-0.4108 8.8125,-0.375 0.37085,0.0286 0.54075,0.19977 0.46875,0.34375 -1.13318,1.79844 -2.34689,3.97239 -8.28125,3.46875 0.48555,2.33771 0.26109,6.57194 -0.25,7.90625 0.55726,0.34134 0.76045,0.65909 2.46875,0.875 8.70402,0.66504 12.49428,-6.3849 12.84375,-12.3125 -0.37123,16.10682 -9.76563,17.25987 -16.5625,14.5625 -1.44377,2.4173 -3.02707,3.8433 -4.53125,4.6875 4.10383,-0.70676 18.90625,-3.21875 18.90625,-3.21875 l 3.53125,12.375 -0.59375,0.34375 2.9375,4.875 -13.1875,10.96875 -5.5,-8.9375 -13.8125,6.09375 c 0.0668,-3.80043 0.1605,-7.69089 0.25,-11.46875 -2.68434,4.00802 -7.27429,6.39459 -13.46875,2.90625 -0.57569,-6.86892 -3.25525,-19.30728 -13.34375,-31.78125 0.35955,-1.56455 1.32677,-3.60244 3.15625,-5.03125 0.45531,-0.356 4.20288,-3.87066 9.96875,-1.5625 0.675,0.2702 7.78311,3.84318 4.90625,12.3125 0.12599,-0.0362 1.06928,-0.0761 1.375,0.0312 -0.09,-8.7937 5.702,-13.42215 10,-13.78125 -6.59963,-6.1324 -8.10716,-7.09838 -14.4375,-8.96875 -0.4675,-0.22474 -0.0587,-0.32175 0.5,-0.34375 z m -12.78125,1.15625 c 2.95475,-0.12348 16.03463,0.44647 20,6.21875 -7.33706,-3.91107 -8.61671,-4.35754 -20,-6.21875 z m 7.125,4.625 c 3.2542,0.0306 6.4115,1.38968 9,4.03125 1.10156,-0.67122 4.05973,-1.65473 4.4375,-1.34375 -1.4374,0.40571 -3.20181,1.30019 -4.96875,3.6875 -5.19259,-8.05192 -18.06986,-4.74288 -24.03125,6.34375 7.93119,8.31663 10.75132,21.01922 11,22.625 -0.36414,-0.4584 -4.4199,-13.2406 -11.96875,-21.03125 3.74394,-9.63876 10.31868,-14.371 16.53125,-14.3125 z m 47.84375,5.28125 c 0.16723,-0.0294 0.17986,0.0878 0.3125,0.0937 1.654,2.10942 7.86964,14.19189 -2.9375,21.375 -0.1985,-0.0348 0.0261,-0.60752 0.28125,-0.90625 8.01137,-8.79359 2.58223,-18.99704 2.34375,-20.5625 z m -27.875,0.71875 c -4.73689,0.13193 -8.40772,6.77744 -7.71875,11.875 6.07674,3.38177 6.45748,7.38885 7.25,10.03125 4.71173,0.52163 6.85371,-3.91268 7.375,-4.9375 -3.02096,-4.22664 -2.837,-9.40963 -1.9375,-14.625 -1.69057,-1.70821 -3.38979,-2.38775 -4.96875,-2.34375 z m -20.5625,1.3125 c -1.71361,-3.7e-4 -3.66077,0.86739 -5.5625,3.53125 0.35577,0.80261 4.20343,6.06501 5.75,8.90625 7.51723,-0.66435 6.35561,-7.78766 5.1875,-9.5625 -0.30333,-0.46082 -2.51898,-2.87438 -5.375,-2.875 z m 28.28125,5.875 c -0.10779,1.1688 0.0286,3.54435 0.40625,4.875 0.0898,-0.86331 -0.0105,-3.88592 -0.40625,-4.875 z M 497,532.25 c -4.23355,-0.0515 -6.45458,4.87895 -6.625,4.90625 1.56443,3.39873 3.69836,11.29003 4.25,15.75 3.45278,1.81676 10.17262,-1.07385 9.8125,-11.46875 -5.08904,-2.94857 -5.80732,-6.91766 -6.5625,-9.09375 -0.30011,-0.0505 -0.59276,-0.0907 -0.875,-0.0937 z m 4.40625,2.0625 c 0.0718,0.41339 1.55042,2.9319 2,3.09375 -0.14398,-0.71899 -1.17288,-2.17671 -2,-3.09375 z m 27.875,5.40625 c -0.79458,0.10275 -1.52486,0.29632 -2.1875,0.53125 0.13665,3.62781 0.37553,7.14241 0.625,10.65625 0.52083,-0.16952 0.97667,-0.42649 1.46875,-0.625 -0.0674,-0.7703 -0.038,-1.37001 -0.21875,-2.1875 0.52404,-0.0627 0.90768,-0.25551 1.34375,-0.40625 0.12359,0.53251 0.25746,1.05474 0.40625,1.5625 0.53962,-0.0824 1.00743,-0.2772 1.375,-0.53125 -1.0255,-2.91089 -1.84701,-6.02955 -2.8125,-9 z m -5.90625,1.25 c -1.01929,0.0476 -2.08366,0.63817 -2.375,2.21875 -0.6758,3.66424 3.26456,4.19083 3.9375,5.0625 0.43309,0.63903 0.33605,2.0895 -0.5,2.0625 -0.48265,-0.24294 -0.37815,-1.05316 -0.46875,-1.6875 -0.78279,0.18475 -1.35747,0.36341 -2.09375,0.59375 0.18877,2.26578 0.27155,3.5403 2.53125,3.1875 0.25154,-0.0392 0.95095,-0.32915 1.03125,-0.40625 0.0798,-0.0763 0.11738,-0.0538 0.21875,-0.125 0.53446,-0.37456 1.22542,-1.40719 1.34375,-2.0625 0.28246,-1.56236 0.15294,-3.25501 -3.21875,-5.0625 -0.33653,-0.18041 -0.59775,-1.08526 -0.59375,-1.46875 10e-4,-0.14593 -0.13766,-0.80135 0.5,-0.71875 0.49139,0.0265 0.3168,0.97704 0.375,1.4375 0.70078,-0.0239 1.09146,-0.21462 1.625,-0.40625 -0.0253,-0.42037 -0.169,-1.07684 -0.25,-1.5625 -0.0809,-0.60691 -1.04321,-1.1101 -2.0625,-1.0625 z m -3.71875,0.8125 c -0.80329,0.0602 -1.46478,0.2658 -2.28125,0.3125 0.0818,1.19606 0.1097,2.51305 0.1875,3.75 0.0398,0.62254 0.23153,1.30437 0.125,1.84375 -0.60192,-1.74575 -1.3115,-3.37219 -1.96875,-5.0625 -0.56539,0.1599 -1.30985,0.15282 -1.875,0.3125 0.31728,4.72398 0.57486,9.50899 0.9375,14.1875 1.04991,-0.40044 2.03738,-0.85603 3,-1.34375 -0.11924,-0.97889 -0.2219,-2.0885 -0.3125,-3.125 -0.0978,-1.11301 -0.29391,-2.23359 -0.1875,-3 0.65175,1.73063 1.42575,3.34869 2.0625,5.09375 0.75827,-0.10538 1.4655,-0.2963 1.875,-0.75 -0.62197,-3.97018 -1.05599,-8.13335 -1.5625,-12.21875 z m 8.90625,0.3125 c 0.49299,1.26765 0.8472,2.67294 1.34375,3.9375 -0.20286,0.21164 -0.52503,0.3105 -0.9375,0.3125 -0.21339,-1.34027 -0.28128,-2.82176 -0.40625,-4.25 z m -16.71875,1.1875 c 0,0 -2.24569,0.47686 -3.0625,0.6875 0.14101,5.314 0.28627,10.60226 0.5,15.84375 0.97832,-0.35199 1.93321,-0.93311 2.71875,-1.34375 0.2552,-0.13275 0.7401,-0.15108 0.8125,-0.53125 -0.17182,-2.26039 -0.18999,-4.15103 -0.40625,-7.4375 -0.0496,-0.75919 -0.2563,-2.88454 -0.3125,-4.0625 -0.023,-0.48772 -0.0837,-1.25514 -0.0937,-1.4375 -0.0395,-0.74567 -0.15625,-1.71875 -0.15625,-1.71875 z m 20.9375,6.90625 c 0,0 -0.54985,0.3639 -0.59375,0.375 0.38509,0.96159 1.07138,1.67592 1.5,2.59375 -0.36883,-0.282 -2.04298,-1.9536 -2.3125,-2.1875 -0.1559,0.12084 -0.5625,0.3125 -0.5625,0.3125 0,0 2.40517,4.17311 3.1875,5.53125 0,0 0.56875,-0.45975 0.59375,-0.46875 -0.47203,-0.73629 -1.01596,-1.74413 -1.46875,-2.5 0.0988,0.0579 1.94505,1.76275 2.125,1.84375 0,0 0.4373,-0.27725 0.375,-0.28125 0,0 -2.16829,-3.85156 -2.84375,-5.21875 z M 529,551.875 c -0.64522,0.0675 -1.16309,0.58448 -0.84375,1.90625 0.10332,0.42702 2.02794,3.51221 2.375,3.9375 1.6366,2.00565 2.98164,-0.33957 2.34375,-1.5 -0.15853,-0.28842 -0.502,-0.8351 -0.78125,-1.28125 -0.48486,-0.77419 -1.40625,-2.1875 -1.40625,-2.1875 -0.2473,-0.54849 -1.04228,-0.9425 -1.6875,-0.875 z m -2.1875,1.0625 -1.15625,0.53125 c 0.39907,1.01623 0.87094,2.27616 1.3125,3.25 0,0 -2.1375,-2.46725 -2.28125,-2.65625 l -1.3125,0.75 c 0.0882,0.0895 3.00028,2.88774 3.625,3.71875 0,0 1.00358,1.82762 1.65625,2.6875 0,0 1.25,-0.8484 1.25,-0.875 C 529.84303,560.2213 527.991,557.1523 528,557.125 c 0,0 -1.1915,-4.1587 -1.1875,-4.1875 z m 2.59375,0 c 0.18891,-0.007 0.4328,0.16394 0.5,0.3125 l 2.125,3.4375 c 0.27868,0.8183 -0.39931,0.8691 -0.6875,0.4375 -0.44912,-0.6734 -2.15625,-3.53125 -2.15625,-3.53125 -0.10321,-0.46321 0.0298,-0.64925 0.21875,-0.65625 z m -7.75,2.53125 c -0.13219,-0.006 -1.90625,0.84375 -1.90625,0.84375 0.10423,0.50422 5.09375,8.0625 5.09375,8.0625 0.85003,-0.60032 2.53125,-1.9375 2.53125,-1.9375 0,0 -0.9018,-1.3211 -0.9375,-1.375 l -1.15625,0.71875 c -1.20442,-2.03222 -3.625,-6.3125 -3.625,-6.3125 z m -17.34375,1.125 c 0.24068,0.0227 0.11666,0.78185 0,0.9375 -5.5165,7.36421 -17.5629,-0.46091 -17.5,-0.71875 12.43973,4.52205 14.62367,1.59284 17.375,-0.1875 0.0506,-0.0303 0.0906,-0.0343 0.125,-0.0312 z"
         id="path6507-2" />
    </mask>
    <filter
       color-interpolation-filters="sRGB"
       inkscape:collect="always"
       id="filter10335-7">
      <feGaussianBlur
         inkscape:collect="always"
         stdDeviation="0.81429875"
         id="feGaussianBlur10337-5" />
    </filter>
  </defs>
  <sodipodi:namedview
     id="base"
     pagecolor="#ffffff"
     bordercolor="#666666"
     borderopacity="1.0"
     inkscape:pageopacity="0.0"
     inkscape:pageshadow="2"
     inkscape:zoom="0.35"
     inkscape:cx="198.14286"
     inkscape:cy="-31.642852"
     inkscape:document-units="px"
     inkscape:current-layer="layer1"
     showgrid="false"
     inkscape:showpageshadow="false"
     inkscape:window-width="576"
     inkscape:window-height="459"
     inkscape:window-x="174"
     inkscape:window-y="161"
     inkscape:window-maximized="0" />
  <metadata
     id="metadata7819">
    <rdf:RDF>
      <cc:Work
         rdf:about="">
        <dc:format>image/svg+xml</dc:format>
        <dc:type
           rdf:resource="http://purl.org/dc/dcmitype/StillImage" />
        <dc:title></dc:title>
      </cc:Work>
    </rdf:RDF>
  </metadata>
  <g
     inkscape:label="Calque 1"
     inkscape:groupmode="layer"
     id="layer1"
     transform="translate(-176.85714,-409.71933)">
    <g
       id="g7327"
       transform="translate(36.989073,-153.18081)">
      <g
         transform="translate(137.86807,558.90014)"
         style="display:inline"
         id="layer4-7-49-7">
        <path
           style="opacity:0.07999998;fill:url(#linearGradient7398);fill-opacity:1;fill-rule:nonzero;stroke:none;display:inline"
           id="path3715-8-6"
           transform="matrix(0.99728997,0,0,0.99862826,0.1300813,0.00548697)"
           d="M 13.96875,4 C 10.667823,4 7.875,6.6931198 7.875,10.03125 l 0,7.0625 c -3.4360632,1.560695 -6,4.840711 -6,8.90625 l 0,59 c 0,5.561299 4.5637001,10.125 10.125,10.125 l 72,0 c 5.561299,0 10.125,-4.563701 10.125,-10.125 l 0,-59 c 0,-4.090756 -2.593768,-7.389362 -6.0625,-8.9375 -0.160383,-3.993445 -3.473555,-7.21875 -7.5,-7.21875 l -42.5,0 L 37.4375,8.625 C 37.135051,8.028958 36.735432,7.0401877 35.9375,6.0625 35.034313,4.9558457 33.554045,4 31.71875,4 l -17.75,0 z" />
        <path
           style="opacity:0.1;fill:url(#linearGradient7400);fill-opacity:1;fill-rule:nonzero;stroke:none;display:inline"
           id="path3707-3-0"
           transform="matrix(0.99653979,0,0,0.99789769,0.16608997,0.04169587)"
           d="m 13.96875,4.96875 c -2.783187,0 -5.125,2.2572798 -5.125,5.0625 l 0,7.3125 0,0.3125 c -3.4368535,1.290325 -6,4.439736 -6,8.34375 l 0,59 c 0,5.039918 4.1163315,9.15625 9.15625,9.15625 l 72,0 c 5.039918,0 9.15625,-4.116332 9.15625,-9.15625 l 0,-59 c 0,-3.904014 -2.563147,-7.053425 -6,-8.34375 l 0,-0.3125 c 0,-3.602656 -2.985437,-6.53125 -6.59375,-6.53125 l -43.09375,0 -0.875,-1.75 C 36.26366,8.4119848 35.884179,7.5098749 35.1875,6.65625 34.437476,5.737263 33.22926,4.96875 31.71875,4.96875 l -17.75,0 z" />
        <path
           style="opacity:0.2;fill:url(#linearGradient7402);fill-opacity:1;fill-rule:nonzero;stroke:none;display:inline"
           id="path3698-8-9"
           transform="matrix(0.99716714,0,0,0.99856528,0.13597734,0.00860832)"
           d="M 13.96875,6 C 11.736726,6 9.875,7.7965069 9.875,10.03125 l 0,7.3125 0,0.96875 c -3.4279042,0.950944 -6,3.959493 -6,7.6875 l 0,59 c 0,4.483833 3.6411665,8.125 8.125,8.125 l 72,0 c 4.483833,0 8.125,-3.641167 8.125,-8.125 l 0,-59 c 0,-3.728007 -2.572096,-6.736556 -6,-7.6875 l 0,-0.96875 c 0,-3.037808 -2.505776,-5.5 -5.5625,-5.5 l -43.71875,0 -1.15625,-2.3125 C 35.33448,8.8355471 34.9882,8.0255499 34.40625,7.3125 33.8243,6.5994501 32.873904,6 31.71875,6 l -17.75,0 z" />
        <path
           style="opacity:0.3;fill:url(#linearGradient7404);fill-opacity:1;fill-rule:nonzero;stroke:none;display:inline"
           id="path3679-5-0"
           d="M 13.96875,7.125 C 12.32891,7.125 11,8.4154163 11,10.03125 l 0,7.3125 0,1.75 C 7.602692,19.579354 5,22.464233 5,26 l 0,59 c 0,3.878 3.122,7 7,7 l 72,0 c 3.878,0 7,-3.122 7,-7 l 0,-59 c 0,-3.535767 -2.602692,-6.420646 -6,-6.90625 l 0,-1.75 c 0,-2.42375 -1.97774,-4.375 -4.4375,-4.375 l -44.40625,0 -1.46875,-2.9375 C 33.954141,8.5860044 33.35859,7.125 31.71875,7.125 l -17.75,0 z" />
        <path
           style="opacity:0.45;fill:url(#linearGradient7406);fill-opacity:1;fill-rule:nonzero;stroke:none;display:inline"
           id="path2885-22-7"
           d="M 14.875,7 C 13.27948,7 12,8.27948 12,9.875 L 12,17.09375 12,19 c -3.324,0 -6,2.676 -6,6 l 0,60 c 0,3.324 2.676,6 6,6 l 72,0 c 3.324,0 6,-2.676 6,-6 l 0,-60 c 0,-3.324 -2.676,-6 -6,-6 l 0,-1.90625 C 84,14.70047 82.08078,12.75 79.6875,12.75 l -43.21875,0 -1.4375,-2.875 C 34.317712,8.4479235 33.75177,7 32.15625,7 L 14.875,7 z" />
      </g>
      <g
         transform="translate(137.86807,558.90014)"
         style="display:inline"
         id="layer3-8-2-6">
        <path
           style="fill:url(#linearGradient7408);fill-opacity:1;fill-rule:nonzero;stroke:none;display:inline"
           id="rect3325-70-6"
           d="M 14.88,6 C 13.28448,6 12,7.28448 12,8.88 l 0,7.2 0,50.4 0,4.32 c 0,2.39328 1.92672,4.32 4.32,4.32 l 63.36,0 c 2.39328,0 4.32,-1.92672 4.32,-4.32 l 0,-54.72 c 0,-2.39328 -1.92672,-4.32 -4.32,-4.32 l -43.2,0 -1.44,-2.88 C 34.326462,7.4529235 33.75552,6 32.16,6 L 14.88,6 z" />
        <path
           style="opacity:0.3;fill:url(#linearGradient7410);fill-opacity:1;fill-rule:nonzero;stroke:none;display:inline"
           id="path3997-3-8"
           d="M 14.875,6 C 13.27948,6 12,7.27948 12,8.875 l 0,7.21875 0,50.375 0,4.34375 c 0,2.393277 1.91922,4.3125 4.3125,4.3125 l 63.375,0 C 82.08078,75.124997 84,73.20578 84,70.8125 L 84,16.09375 C 84,13.70047 82.08078,11.75 79.6875,11.75 l -43.21875,0 -1.4375,-2.875 C 34.317711,7.4479234 33.75177,6 32.15625,6 L 14.875,6 z m 0,1.9375 17.28125,0 c 0.48716,0 0.660447,0.1126732 0.96875,0.5 0.308303,0.3873268 0.629671,1.0718434 1,1.8125 l 1.4375,2.875 c 0.173379,0.341986 0.522842,0.558894 0.90625,0.5625 l 43.21875,0 c 1.835408,0 3.28125,1.468154 3.28125,3.3125 l 0,54.71875 c 0,1.844346 -1.436902,3.281248 -3.28125,3.28125 l -63.375,0 c -1.844346,0 -3.28125,-1.436907 -3.28125,-3.28125 l 0,-4.34375 0,-50.375 0,-7.21875 c 0,-1.0465864 0.797164,-1.84375 1.84375,-1.84375 z" />
        <rect
           style="fill:url(#linearGradient7412);fill-opacity:1;fill-rule:nonzero;stroke:none;display:inline"
           id="rect3352-4-7"
           y="23.142857"
           x="10.535714"
           ry="6"
           rx="6"
           height="62.678574"
           width="75" />
      </g>
      <g
         style="fill:url(#linearGradient7466);fill-opacity:1"
         id="g12-4-1-7"
         inkscape:label="BdE"
         transform="matrix(0.11454309,0,0,-0.11454309,150.61357,660.69421)">
        <g
           style="fill:url(#linearGradient7464);fill-opacity:1"
           id="g18-4-6-6">
          <g
             style="fill:url(#linearGradient7462);fill-opacity:1"
             id="g20-3-0-6"
             clip-path="url(#clipPath22-8-3-0)">
            <g
               style="fill:url(#linearGradient7416);fill-opacity:1"
               id="g26-9-9-5"
               transform="translate(556.6592,272.0234)">
              <path
                 d="m 0,0 -30.69,108.021 c 0,0 -130.874,-22.186 -165.919,-28.225 -23.97,-10.715 -20.906,-8.496 -40.978,-9.537 0.678,-23.141 -5.652,-58.992 -23.432,-86.544 -0.781,-32.982 -1.69,-67.027 -2.273,-100.206 l 120.573,53.222 c -0.47,-0.158 -5.651,10.204 -5.651,10.204 4.99,1.59 134.86,63.421 134.86,63.421 L -5.148,-2.863 0,0 z m -192.563,-67.412 c -0.632,-3.319 -5.009,-3.363 -7.237,-4.522 -6.858,-3.585 -14.969,-8.683 -23.51,-11.756 -1.866,45.76 -3.29,91.964 -4.521,138.357 7.131,1.839 26.702,5.922 26.702,5.922 0,0 0.984,-8.452 1.329,-14.962 0.088,-1.592 0.703,-8.403 0.904,-12.661 0.491,-10.284 2.279,-28.643 2.712,-35.271 1.888,-28.692 2.121,-45.373 3.621,-65.107 m 59.687,141.072 c 4.422,-35.667 8.132,-72.049 13.562,-106.71 -3.575,-3.961 -9.661,-5.409 -16.281,-6.329 -5.559,15.235 -12.396,29.2 -18.086,44.309 -0.929,-6.691 0.959,-16.507 1.813,-26.224 0.791,-9.049 1.67,-18.582 2.711,-27.128 -8.404,-4.258 -17.059,-8.261 -26.225,-11.757 -3.166,40.845 -5.369,82.65 -8.139,123.892 4.934,1.394 11.344,1.317 16.28,2.713 5.738,-14.757 11.924,-29.071 17.179,-44.312 0.93,4.709 -0.559,10.845 -0.906,16.28 -0.679,10.799 -1.092,22.111 -1.806,32.553 7.128,0.408 12.885,2.187 19.898,2.713 M -68.672,3.631 c -1.033,-5.721 -7.09,-14.815 -11.756,-18.085 -0.885,-0.622 -1.114,-0.239 -1.811,-0.905 -0.701,-0.673 -6.844,-3.276 -9.04,-3.618 -19.728,-3.08 -20.434,7.989 -22.082,27.77 6.428,2.011 11.3,3.57 18.134,5.183 0.791,-5.538 0.029,-12.481 4.24,-14.602 7.299,-0.236 8.006,12.245 4.225,17.824 -5.875,7.61 -40.258,12.32 -34.358,44.31 5.087,27.598 37.432,20.761 38.845,10.164 0.707,-4.24 1.899,-10.226 2.12,-13.896 -4.658,-1.673 -8.012,-3.087 -14.13,-3.296 -0.508,4.02 0.963,12.221 -3.327,12.452 -5.567,0.721 -4.508,-5.055 -4.519,-6.329 -0.032,-3.348 2.318,-11.141 5.256,-12.716 29.436,-15.78 30.669,-30.616 28.203,-44.256 m 44.312,9.438 c -3.209,-2.218 -7.047,-3.804 -11.758,-4.523 -1.299,4.433 -2.538,8.919 -3.617,13.568 -3.807,-1.316 -7.181,-3.068 -11.756,-3.615 1.578,-7.137 1.221,-12.268 1.809,-18.993 -4.296,-1.733 -8.114,-3.947 -12.661,-5.427 -2.178,30.677 -4.234,61.476 -5.427,93.148 5.785,2.051 12.054,3.621 18.991,4.518 8.429,-25.933 15.466,-53.263 24.419,-78.676 m -27.131,20.802 c 3.601,0.014 6.368,0.864 8.139,2.712 -4.335,11.04 -7.452,23.297 -11.756,34.364 1.091,-12.469 1.754,-25.375 3.617,-37.076"
                 style="fill:url(#linearGradient7414);fill-opacity:1;fill-rule:nonzero;stroke:none"
                 id="path28-7-1-3" />
            </g>
            <g
               style="fill:url(#linearGradient7420);fill-opacity:1"
               id="g30-2-9-7"
               transform="translate(577.0586,226.6592)">
              <path
                 d="M 0,0 -33.913,56.667 -169.32,-7.896 -115.082,-95.77 0,0 z m -135.796,-0.482 c 0,0 21.196,-37.206 31.711,-54.948 l 10.051,6.283 c 0.312,-0.471 8.165,-12.092 8.165,-12.092 0,0 -14.717,-11.556 -22.138,-16.797 0,0 -43.522,65.776 -44.432,70.178 0,0 15.489,7.429 16.643,7.376 m 55.401,-14.374 c -0.078,-0.238 16.169,-26.958 16.721,-28.027 0,-0.232 -10.93,-7.793 -10.93,-7.793 -5.698,7.507 -14.466,23.513 -14.466,23.513 -5.454,7.255 -30.884,31.775 -31.654,32.556 l 11.517,6.528 c 1.255,-1.65 19.704,-23.235 19.704,-23.235 -3.855,8.502 -7.84,19.589 -11.324,28.461 l 9.945,4.524 c -0.033,-0.251 10.487,-36.527 10.487,-36.527 m 23.409,38.168 c 0,0 8.012,-12.321 12.245,-19.08 2.438,-3.895 5.445,-8.786 6.829,-11.304 5.569,-10.131 -5.971,-30.388 -20.259,-12.878 -3.03,3.713 -19.816,30.426 -20.718,34.154 -5.576,23.079 17.585,18.685 21.903,9.108 M -13.889,0.229 c 0.544,-0.036 -3.298,-2.671 -3.298,-2.671 -1.571,0.707 -17.505,15.826 -18.368,16.331 3.953,-6.599 8.516,-15.556 12.637,-21.984 -0.218,-0.08 -5.181,-4.004 -5.181,-4.004 -6.83,11.857 -27.704,48.275 -27.704,48.275 0,0 3.663,1.617 5.024,2.672 2.353,-2.042 16.719,-16.695 19.939,-19.157 -3.742,8.013 -9.513,14.213 -12.875,22.608 0.383,0.097 5.093,3.392 5.093,3.392 5.897,-11.936 24.733,-45.462 24.733,-45.462 M -45.21,-10.918 -63.813,19.068 c -1.174,2.594 -8.085,5.106 -6.283,-2.982 0,0 14.919,-24.972 18.84,-30.851 2.516,-3.768 8.479,-3.297 6.046,3.847"
                 style="fill:url(#linearGradient7418);fill-opacity:1;fill-rule:nonzero;stroke:none"
                 id="path32-5-1-6" />
            </g>
            <g
               style="fill:url(#linearGradient7424);fill-opacity:1"
               id="g34-8-5-9"
               transform="translate(367.3906,618.7559)">
              <path
                 d="M 0,0 C 3.139,76.068 47.06,79.365 56.392,75.089 77.32,46.395 13.029,53.695 0,0 M 28.023,56.293 C 13.773,41.012 7.785,23.781 8.872,25.049 34.226,58.523 57.42,54.284 52.712,64.411 50.594,68.885 41.055,70.264 28.023,56.293"
                 style="fill:url(#linearGradient7422);fill-opacity:1;fill-rule:nonzero;stroke:none"
                 id="path36-9-0-7" />
            </g>
            <g
               style="fill:url(#linearGradient7428);fill-opacity:1"
               id="g38-0-9-2"
               transform="translate(204.0313,686.6084)">
              <path
                 d="M 0,0 C 78.657,-13.452 114.218,-40.298 132.35,-51.484 94.671,-5.209 31.087,0.207 0,0"
                 style="fill:url(#linearGradient7426);fill-opacity:1;fill-rule:nonzero;stroke:none"
                 id="path40-2-4-6" />
            </g>
            <g
               style="fill:url(#linearGradient7432);fill-opacity:1"
               id="g42-4-9-4"
               transform="translate(306.0039,672.2158)">
              <path
                 d="M 0,0 C 37.442,-6.595 49.925,-37.916 58.168,-59.818 45.098,-45.687 29.437,-17.192 0,0"
                 style="fill:url(#linearGradient7430);fill-opacity:1;fill-rule:nonzero;stroke:none"
                 id="path44-7-6-0" />
            </g>
            <g
               style="fill:url(#linearGradient7436);fill-opacity:1"
               id="g46-6-8-7"
               transform="translate(158.6558,652.7539)">
              <path
                 d="M 0,0 C -25.979,7.687 -55.888,13.574 -107.543,5.338 -95.687,10.513 -40.816,31.472 0,0"
                 style="fill:url(#linearGradient7434);fill-opacity:1;fill-rule:nonzero;stroke:none"
                 id="path48-5-2-5" />
            </g>
            <g
               style="fill:url(#linearGradient7440);fill-opacity:1"
               id="g50-7-4-4"
               transform="translate(374.2988,620.1704)">
              <path
                 d="m 0,0 c 43.569,90.037 202.465,49.223 179.684,-68.368 -2.042,2.512 -3.841,7.606 -4.235,10.52 C 157.075,78.657 17.661,35.56 -4.004,-12.01 -2.556,-7.531 -1.918,-3.965 0,0"
                 style="fill:url(#linearGradient7438);fill-opacity:1;fill-rule:nonzero;stroke:none"
                 id="path52-1-6-0" />
            </g>
            <g
               style="fill:url(#linearGradient7444);fill-opacity:1"
               id="g54-3-5-1"
               transform="translate(84.8701,649.1362)">
              <path
                 d="M 0,0 C 25.796,1.078 140.121,-3.768 174.74,-54.162 110.685,-20.017 99.38,-16.249 0,0"
                 style="fill:url(#linearGradient7442);fill-opacity:1;fill-rule:nonzero;stroke:none"
                 id="path56-3-3-2" />
            </g>
            <g
               style="fill:url(#linearGradient7448);fill-opacity:1"
               id="g58-3-4-8"
               transform="translate(225.7354,573.5693)">
              <path
                 d="M 0,0 C 9.617,5.86 35.589,14.471 38.887,11.756 26.338,8.214 10.796,0.444 -4.63,-20.398 c -45.333,70.296 -157.666,41.33 -209.711,-55.46 69.242,-72.607 93.677,-183.563 95.848,-197.582 -3.179,4.002 -38.539,115.555 -104.443,183.57 C -173.129,38.358 -65.741,67.089 0,0"
                 style="fill:url(#linearGradient7446);fill-opacity:1;fill-rule:nonzero;stroke:none"
                 id="path60-8-7-0" />
            </g>
            <g
               style="fill:url(#linearGradient7452);fill-opacity:1"
               id="g62-5-4-1"
               transform="translate(544.3281,383.0234)">
              <path
                 d="m 0,0 c 69.942,76.771 22.605,166.027 20.523,179.694 1.46,0.256 1.557,-0.853 2.715,-0.903 C 37.678,160.375 92.079,54.871 -2.271,-7.84 -4.004,-7.536 -2.23,-2.608 0,0"
                 style="fill:url(#linearGradient7450);fill-opacity:1;fill-rule:nonzero;stroke:none"
                 id="path64-1-7-5" />
            </g>
            <g
               style="fill:url(#linearGradient7456);fill-opacity:1"
               id="g66-0-1-2"
               transform="translate(288.811,216.0557)">
              <path
                 d="M 0,0 C 3.534,2.118 2.226,-6.218 1.062,-7.771 -47.099,-72.063 -152.247,-3.75 -151.698,-1.499 -43.095,-40.978 -24.02,-15.543 0,0"
                 style="fill:url(#linearGradient7454);fill-opacity:1;fill-rule:nonzero;stroke:none"
                 id="path68-8-4-0" />
            </g>
            <g
               style="fill:url(#linearGradient7460);fill-opacity:1"
               id="g70-7-0-7"
               transform="translate(178.1191,230.2656)">
              <path
                 d="m 0,0 c -5.026,59.968 -28.596,168.544 -116.672,277.446 3.139,13.659 11.766,31.68 27.738,44.154 3.975,3.108 36.476,33.718 86.814,13.567 5.893,-2.359 68.042,-33.698 42.926,-107.638 1.1,0.315 9.42,0.784 12.089,-0.154 -0.786,76.772 49.766,117.281 87.289,120.416 -57.617,53.538 -70.804,61.857 -126.07,78.186 -8.163,3.924 13.895,2.792 16.962,2.669 81.482,-3.297 154.644,-83.524 162.653,-93.886 16.796,45.371 59.851,59.445 65.941,60.593 8.95,1.683 59.343,10.053 71.118,-47.096 0.536,-2.613 -3.298,-4.081 -8.48,-0.628 -31.089,23.71 -56.518,28.261 -80.19,8.276 -12.908,-10.318 -21.228,-19.109 -25.625,-48.94 3.928,-8.006 6.653,-12.702 10.179,-17.919 54.352,-8.774 58.591,3.629 76.959,3.316 3.238,-0.25 4.557,-1.883 3.928,-3.14 -9.893,-15.701 -20.413,-34.541 -72.222,-30.144 4.239,-20.409 2.26,-57.435 -2.202,-69.084 4.865,-2.98 6.595,-5.806 21.509,-7.691 75.989,-5.806 109.146,55.898 112.197,107.648 C 363.6,149.333 281.492,139.129 222.153,162.678 194.677,116.675 162.025,111.34 141.3,111.626 145.693,49.165 94.197,-53.046 0,0 m 75.995,222.315 c 53.052,-29.524 56.505,-64.377 63.424,-87.446 41.135,-4.554 59.662,34.069 64.213,43.016 -26.374,36.9 -24.653,82.268 -16.8,127.8 -59.037,59.653 -118.857,-24.032 -110.837,-83.37 m -65.181,67.226 c -4.237,6.437 -51.179,56.205 -95.453,-5.812 3.106,-7.007 36.578,-52.908 50.08,-77.713 65.628,5.8 55.571,68.03 45.373,83.525 m 203.644,-68.77 c 0.784,7.537 -0.158,34.067 -3.613,42.702 -0.941,-10.204 0.316,-31.085 3.613,-42.702 M -9.908,155.915 C 3.75,126.243 22.328,57.322 27.144,18.385 57.288,2.524 116.005,27.646 112.861,118.397 68.432,144.139 62.154,178.994 55.561,197.992 13.64,205.057 -8.321,156.169 -9.908,155.915 m 113.676,-2.204 c -1.257,6.277 -10.207,18.994 -17.428,27 0.627,-3.609 13.503,-25.587 17.428,-27"
                 style="fill:url(#linearGradient7458);fill-opacity:1;fill-rule:nonzero;stroke:none"
                 id="path72-6-4-1" />
            </g>
          </g>
        </g>
      </g>
      <g
         style="opacity:0.35;fill:none;stroke:#552200;stroke-width:8.73033905;stroke-miterlimit:4;stroke-opacity:1;stroke-dasharray:none;filter:url(#filter9124-4)"
         id="g12-4-17-6"
         inkscape:label="BdE"
         transform="matrix(0.11454309,0,0,-0.11454309,150.51023,661.01019)">
        <g
           style="fill:none;stroke:#552200;stroke-width:8.73033905;stroke-miterlimit:4;stroke-opacity:1;stroke-dasharray:none"
           id="g18-4-1-4">
          <g
             style="fill:none;stroke:#552200;stroke-width:8.73033905;stroke-miterlimit:4;stroke-opacity:1;stroke-dasharray:none"
             id="g20-3-3-9"
             clip-path="url(#clipPath22-8-6-2)">
            <g
               style="fill:none;stroke:#552200;stroke-width:8.73033905;stroke-miterlimit:4;stroke-opacity:1;stroke-dasharray:none"
               id="g26-9-0-5"
               transform="translate(556.6592,272.0234)">
              <path
                 d="m 0,0 -30.69,108.021 c 0,0 -130.874,-22.186 -165.919,-28.225 -23.97,-10.715 -20.906,-8.496 -40.978,-9.537 0.678,-23.141 -5.652,-58.992 -23.432,-86.544 -0.781,-32.982 -1.69,-67.027 -2.273,-100.206 l 120.573,53.222 c -0.47,-0.158 -5.651,10.204 -5.651,10.204 4.99,1.59 134.86,63.421 134.86,63.421 L -5.148,-2.863 0,0 z m -192.563,-67.412 c -0.632,-3.319 -5.009,-3.363 -7.237,-4.522 -6.858,-3.585 -14.969,-8.683 -23.51,-11.756 -1.866,45.76 -3.29,91.964 -4.521,138.357 7.131,1.839 26.702,5.922 26.702,5.922 0,0 0.984,-8.452 1.329,-14.962 0.088,-1.592 0.703,-8.403 0.904,-12.661 0.491,-10.284 2.279,-28.643 2.712,-35.271 1.888,-28.692 2.121,-45.373 3.621,-65.107 m 59.687,141.072 c 4.422,-35.667 8.132,-72.049 13.562,-106.71 -3.575,-3.961 -9.661,-5.409 -16.281,-6.329 -5.559,15.235 -12.396,29.2 -18.086,44.309 -0.929,-6.691 0.959,-16.507 1.813,-26.224 0.791,-9.049 1.67,-18.582 2.711,-27.128 -8.404,-4.258 -17.059,-8.261 -26.225,-11.757 -3.166,40.845 -5.369,82.65 -8.139,123.892 4.934,1.394 11.344,1.317 16.28,2.713 5.738,-14.757 11.924,-29.071 17.179,-44.312 0.93,4.709 -0.559,10.845 -0.906,16.28 -0.679,10.799 -1.092,22.111 -1.806,32.553 7.128,0.408 12.885,2.187 19.898,2.713 M -68.672,3.631 c -1.033,-5.721 -7.09,-14.815 -11.756,-18.085 -0.885,-0.622 -1.114,-0.239 -1.811,-0.905 -0.701,-0.673 -6.844,-3.276 -9.04,-3.618 -19.728,-3.08 -20.434,7.989 -22.082,27.77 6.428,2.011 11.3,3.57 18.134,5.183 0.791,-5.538 0.029,-12.481 4.24,-14.602 7.299,-0.236 8.006,12.245 4.225,17.824 -5.875,7.61 -40.258,12.32 -34.358,44.31 5.087,27.598 37.432,20.761 38.845,10.164 0.707,-4.24 1.899,-10.226 2.12,-13.896 -4.658,-1.673 -8.012,-3.087 -14.13,-3.296 -0.508,4.02 0.963,12.221 -3.327,12.452 -5.567,0.721 -4.508,-5.055 -4.519,-6.329 -0.032,-3.348 2.318,-11.141 5.256,-12.716 29.436,-15.78 30.669,-30.616 28.203,-44.256 m 44.312,9.438 c -3.209,-2.218 -7.047,-3.804 -11.758,-4.523 -1.299,4.433 -2.538,8.919 -3.617,13.568 -3.807,-1.316 -7.181,-3.068 -11.756,-3.615 1.578,-7.137 1.221,-12.268 1.809,-18.993 -4.296,-1.733 -8.114,-3.947 -12.661,-5.427 -2.178,30.677 -4.234,61.476 -5.427,93.148 5.785,2.051 12.054,3.621 18.991,4.518 8.429,-25.933 15.466,-53.263 24.419,-78.676 m -27.131,20.802 c 3.601,0.014 6.368,0.864 8.139,2.712 -4.335,11.04 -7.452,23.297 -11.756,34.364 1.091,-12.469 1.754,-25.375 3.617,-37.076"
                 style="fill:none;stroke:#552200;stroke-width:8.73033905;stroke-miterlimit:4;stroke-opacity:1;stroke-dasharray:none"
                 id="path28-7-8-3" />
            </g>
            <g
               style="fill:none;stroke:#552200;stroke-width:8.73033905;stroke-miterlimit:4;stroke-opacity:1;stroke-dasharray:none"
               id="g30-2-2-5"
               transform="translate(577.0586,226.6592)">
              <path
                 d="M 0,0 -33.913,56.667 -169.32,-7.896 -115.082,-95.77 0,0 z m -135.796,-0.482 c 0,0 21.196,-37.206 31.711,-54.948 l 10.051,6.283 c 0.312,-0.471 8.165,-12.092 8.165,-12.092 0,0 -14.717,-11.556 -22.138,-16.797 0,0 -43.522,65.776 -44.432,70.178 0,0 15.489,7.429 16.643,7.376 m 55.401,-14.374 c -0.078,-0.238 16.169,-26.958 16.721,-28.027 0,-0.232 -10.93,-7.793 -10.93,-7.793 -5.698,7.507 -14.466,23.513 -14.466,23.513 -5.454,7.255 -30.884,31.775 -31.654,32.556 l 11.517,6.528 c 1.255,-1.65 19.704,-23.235 19.704,-23.235 -3.855,8.502 -7.84,19.589 -11.324,28.461 l 9.945,4.524 c -0.033,-0.251 10.487,-36.527 10.487,-36.527 m 23.409,38.168 c 0,0 8.012,-12.321 12.245,-19.08 2.438,-3.895 5.445,-8.786 6.829,-11.304 5.569,-10.131 -5.971,-30.388 -20.259,-12.878 -3.03,3.713 -19.816,30.426 -20.718,34.154 -5.576,23.079 17.585,18.685 21.903,9.108 M -13.889,0.229 c 0.544,-0.036 -3.298,-2.671 -3.298,-2.671 -1.571,0.707 -17.505,15.826 -18.368,16.331 3.953,-6.599 8.516,-15.556 12.637,-21.984 -0.218,-0.08 -5.181,-4.004 -5.181,-4.004 -6.83,11.857 -27.704,48.275 -27.704,48.275 0,0 3.663,1.617 5.024,2.672 2.353,-2.042 16.719,-16.695 19.939,-19.157 -3.742,8.013 -9.513,14.213 -12.875,22.608 0.383,0.097 5.093,3.392 5.093,3.392 5.897,-11.936 24.733,-45.462 24.733,-45.462 M -45.21,-10.918 -63.813,19.068 c -1.174,2.594 -8.085,5.106 -6.283,-2.982 0,0 14.919,-24.972 18.84,-30.851 2.516,-3.768 8.479,-3.297 6.046,3.847"
                 style="fill:none;stroke:#552200;stroke-width:8.73033905;stroke-miterlimit:4;stroke-opacity:1;stroke-dasharray:none"
                 id="path32-5-9-1" />
            </g>
            <g
               style="fill:none;stroke:#552200;stroke-width:8.73033905;stroke-miterlimit:4;stroke-opacity:1;stroke-dasharray:none"
               id="g34-8-0-1"
               transform="translate(367.3906,618.7559)">
              <path
                 d="M 0,0 C 3.139,76.068 47.06,79.365 56.392,75.089 77.32,46.395 13.029,53.695 0,0 M 28.023,56.293 C 13.773,41.012 7.785,23.781 8.872,25.049 34.226,58.523 57.42,54.284 52.712,64.411 50.594,68.885 41.055,70.264 28.023,56.293"
                 style="fill:none;stroke:#552200;stroke-width:8.73033905;stroke-miterlimit:4;stroke-opacity:1;stroke-dasharray:none"
                 id="path36-9-1-0" />
            </g>
            <g
               style="fill:none;stroke:#552200;stroke-width:8.73033905;stroke-miterlimit:4;stroke-opacity:1;stroke-dasharray:none"
               id="g38-0-0-0"
               transform="translate(204.0313,686.6084)">
              <path
                 d="M 0,0 C 78.657,-13.452 114.218,-40.298 132.35,-51.484 94.671,-5.209 31.087,0.207 0,0"
                 style="fill:none;stroke:#552200;stroke-width:8.73033905;stroke-miterlimit:4;stroke-opacity:1;stroke-dasharray:none"
                 id="path40-2-8-7" />
            </g>
            <g
               style="fill:none;stroke:#552200;stroke-width:8.73033905;stroke-miterlimit:4;stroke-opacity:1;stroke-dasharray:none"
               id="g42-4-1-0"
               transform="translate(306.0039,672.2158)">
              <path
                 d="M 0,0 C 37.442,-6.595 49.925,-37.916 58.168,-59.818 45.098,-45.687 29.437,-17.192 0,0"
                 style="fill:none;stroke:#552200;stroke-width:8.73033905;stroke-miterlimit:4;stroke-opacity:1;stroke-dasharray:none"
                 id="path44-7-67-8" />
            </g>
            <g
               style="fill:none;stroke:#552200;stroke-width:8.73033905;stroke-miterlimit:4;stroke-opacity:1;stroke-dasharray:none"
               id="g46-6-88-1"
               transform="translate(158.6558,652.7539)">
              <path
                 d="M 0,0 C -25.979,7.687 -55.888,13.574 -107.543,5.338 -95.687,10.513 -40.816,31.472 0,0"
                 style="fill:none;stroke:#552200;stroke-width:8.73033905;stroke-miterlimit:4;stroke-opacity:1;stroke-dasharray:none"
                 id="path48-5-21-6" />
            </g>
            <g
               style="fill:none;stroke:#552200;stroke-width:8.73033905;stroke-miterlimit:4;stroke-opacity:1;stroke-dasharray:none"
               id="g50-7-3-4"
               transform="translate(374.2988,620.1704)">
              <path
                 d="m 0,0 c 43.569,90.037 202.465,49.223 179.684,-68.368 -2.042,2.512 -3.841,7.606 -4.235,10.52 C 157.075,78.657 17.661,35.56 -4.004,-12.01 -2.556,-7.531 -1.918,-3.965 0,0"
                 style="fill:none;stroke:#552200;stroke-width:8.73033905;stroke-miterlimit:4;stroke-opacity:1;stroke-dasharray:none"
                 id="path52-1-8-1" />
            </g>
            <g
               style="fill:none;stroke:#552200;stroke-width:8.73033905;stroke-miterlimit:4;stroke-opacity:1;stroke-dasharray:none"
               id="g54-3-9-4"
               transform="translate(84.8701,649.1362)">
              <path
                 d="M 0,0 C 25.796,1.078 140.121,-3.768 174.74,-54.162 110.685,-20.017 99.38,-16.249 0,0"
                 style="fill:none;stroke:#552200;stroke-width:8.73033905;stroke-miterlimit:4;stroke-opacity:1;stroke-dasharray:none"
                 id="path56-3-35-9" />
            </g>
            <g
               style="fill:none;stroke:#552200;stroke-width:8.73033905;stroke-miterlimit:4;stroke-opacity:1;stroke-dasharray:none"
               id="g58-3-41-8"
               transform="translate(225.7354,573.5693)">
              <path
                 d="M 0,0 C 9.617,5.86 35.589,14.471 38.887,11.756 26.338,8.214 10.796,0.444 -4.63,-20.398 c -45.333,70.296 -157.666,41.33 -209.711,-55.46 69.242,-72.607 93.677,-183.563 95.848,-197.582 -3.179,4.002 -38.539,115.555 -104.443,183.57 C -173.129,38.358 -65.741,67.089 0,0"
                 style="fill:none;stroke:#552200;stroke-width:8.73033905;stroke-miterlimit:4;stroke-opacity:1;stroke-dasharray:none"
                 id="path60-8-2-6" />
            </g>
            <g
               style="fill:none;stroke:#552200;stroke-width:8.73033905;stroke-miterlimit:4;stroke-opacity:1;stroke-dasharray:none"
               id="g62-5-2-2"
               transform="translate(544.3281,383.0234)">
              <path
                 d="m 0,0 c 69.942,76.771 22.605,166.027 20.523,179.694 1.46,0.256 1.557,-0.853 2.715,-0.903 C 37.678,160.375 92.079,54.871 -2.271,-7.84 -4.004,-7.536 -2.23,-2.608 0,0"
                 style="fill:none;stroke:#552200;stroke-width:8.73033905;stroke-miterlimit:4;stroke-opacity:1;stroke-dasharray:none"
                 id="path64-1-77-2" />
            </g>
            <g
               style="fill:none;stroke:#552200;stroke-width:8.73033905;stroke-miterlimit:4;stroke-opacity:1;stroke-dasharray:none"
               id="g66-0-9-5"
               transform="translate(288.811,216.0557)">
              <path
                 d="M 0,0 C 3.534,2.118 2.226,-6.218 1.062,-7.771 -47.099,-72.063 -152.247,-3.75 -151.698,-1.499 -43.095,-40.978 -24.02,-15.543 0,0"
                 style="fill:none;stroke:#552200;stroke-width:8.73033905;stroke-miterlimit:4;stroke-opacity:1;stroke-dasharray:none"
                 id="path68-8-1-2" />
            </g>
            <g
               style="fill:none;stroke:#552200;stroke-width:8.73033905;stroke-miterlimit:4;stroke-opacity:1;stroke-dasharray:none"
               id="g70-7-4-3"
               transform="translate(178.1191,230.2656)">
              <path
                 d="m 0,0 c -5.026,59.968 -28.596,168.544 -116.672,277.446 3.139,13.659 11.766,31.68 27.738,44.154 3.975,3.108 36.476,33.718 86.814,13.567 5.893,-2.359 68.042,-33.698 42.926,-107.638 1.1,0.315 9.42,0.784 12.089,-0.154 -0.786,76.772 49.766,117.281 87.289,120.416 -57.617,53.538 -70.804,61.857 -126.07,78.186 -8.163,3.924 13.895,2.792 16.962,2.669 81.482,-3.297 154.644,-83.524 162.653,-93.886 16.796,45.371 59.851,59.445 65.941,60.593 8.95,1.683 59.343,10.053 71.118,-47.096 0.536,-2.613 -3.298,-4.081 -8.48,-0.628 -31.089,23.71 -56.518,28.261 -80.19,8.276 -12.908,-10.318 -21.228,-19.109 -25.625,-48.94 3.928,-8.006 6.653,-12.702 10.179,-17.919 54.352,-8.774 58.591,3.629 76.959,3.316 3.238,-0.25 4.557,-1.883 3.928,-3.14 -9.893,-15.701 -20.413,-34.541 -72.222,-30.144 4.239,-20.409 2.26,-57.435 -2.202,-69.084 4.865,-2.98 6.595,-5.806 21.509,-7.691 75.989,-5.806 109.146,55.898 112.197,107.648 C 363.6,149.333 281.492,139.129 222.153,162.678 194.677,116.675 162.025,111.34 141.3,111.626 145.693,49.165 94.197,-53.046 0,0 m 75.995,222.315 c 53.052,-29.524 56.505,-64.377 63.424,-87.446 41.135,-4.554 59.662,34.069 64.213,43.016 -26.374,36.9 -24.653,82.268 -16.8,127.8 -59.037,59.653 -118.857,-24.032 -110.837,-83.37 m -65.181,67.226 c -4.237,6.437 -51.179,56.205 -95.453,-5.812 3.106,-7.007 36.578,-52.908 50.08,-77.713 65.628,5.8 55.571,68.03 45.373,83.525 m 203.644,-68.77 c 0.784,7.537 -0.158,34.067 -3.613,42.702 -0.941,-10.204 0.316,-31.085 3.613,-42.702 M -9.908,155.915 C 3.75,126.243 22.328,57.322 27.144,18.385 57.288,2.524 116.005,27.646 112.861,118.397 68.432,144.139 62.154,178.994 55.561,197.992 13.64,205.057 -8.321,156.169 -9.908,155.915 m 113.676,-2.204 c -1.257,6.277 -10.207,18.994 -17.428,27 0.627,-3.609 13.503,-25.587 17.428,-27"
                 style="fill:none;stroke:#552200;stroke-width:8.73033905;stroke-miterlimit:4;stroke-opacity:1;stroke-dasharray:none"
                 id="path72-6-0-2" />
            </g>
          </g>
        </g>
      </g>
      <path
         id="rect2419-3-7"
         d="m 149.87002,576.91073 c -3.324,0 -6,2.676 -6,6 l 0,60 c 0,3.324 2.676,6 6,6 l 72,0 c 3.324,0 6,-2.676 6,-6 l 0,-60 c 0,-3.324 -2.676,-6 -6,-6 l -72,0 z m 48.34375,4.1875 c 0.42209,-0.0184 0.76833,0.0644 0.96875,0.15625 2.39716,3.2867 -4.97637,2.44336 -6.46875,8.59375 0.29213,-7.07936 3.67096,-8.67033 5.5,-8.75 z m -24.21875,0.96875 c 3.5608,-0.0237 10.84038,0.60576 15.15625,5.90625 -2.0769,-1.28128 -6.14663,-4.36542 -15.15625,-5.90625 z m 24.15625,0.0312 c -0.10139,-0.008 -0.22123,0.007 -0.34375,0.0312 -0.49007,0.0965 -1.12864,0.4811 -1.875,1.28125 -1.63224,1.75033 -2.31201,3.70774 -2.1875,3.5625 2.90412,-3.83422 5.53926,-3.34003 5,-4.5 -0.091,-0.19218 -0.28959,-0.35195 -0.59375,-0.375 z m -12.46875,1.625 c 4.28872,0.75541 5.71207,4.33503 6.65625,6.84375 -1.49708,-1.61861 -3.28445,-4.87453 -6.65625,-6.84375 z m -23.375,0.28125 c 2.11428,-0.0676 4.4546,0.36036 6.5,1.9375 -2.97571,-0.88049 -6.39577,-1.53713 -12.3125,-0.59375 0.76389,-0.33343 3.09414,-1.25687 5.8125,-1.34375 z m 40.59375,0.0625 c 6.32121,0.0356 12.81838,5.01923 11.1875,13.4375 -0.2339,-0.28773 -0.45487,-0.85372 -0.5,-1.1875 -2.10461,-15.63571 -18.04967,-10.69881 -20.53125,-5.25 0.16586,-0.51304 0.21781,-0.92084 0.4375,-1.375 1.87145,-3.86742 5.61352,-5.64635 9.40625,-5.625 z m -29.75,1.15625 c 0.55868,-0.022 1.26185,0.0242 1.4375,0.0312 9.3332,0.37765 17.70762,9.5631 18.625,10.75 1.92386,-5.19694 6.86494,-6.80601 7.5625,-6.9375 1.02516,-0.19278 6.8075,-1.17103 8.15625,5.375 0.0614,0.2993 -0.37518,0.4893 -0.96875,0.0937 -3.56103,-2.71582 -6.47603,-3.25789 -9.1875,-0.96875 -1.47852,1.18186 -2.43386,2.20807 -2.9375,5.625 0.44992,0.91703 0.75237,1.43368 1.15625,2.03125 6.22565,1.005 6.70858,-0.41085 8.8125,-0.375 0.37089,0.0286 0.5408,0.23102 0.46875,0.375 -1.13318,1.79844 -2.34689,3.94114 -8.28125,3.4375 0.48555,2.33771 0.26109,6.57194 -0.25,7.90625 0.55726,0.34134 0.76045,0.69034 2.46875,0.90625 8.70402,0.66504 12.49428,-6.41615 12.84375,-12.34375 -0.37123,16.10682 -9.76563,17.29112 -16.5625,14.59375 -1.43465,2.40204 -3.00451,3.80992 -4.5,4.65625 4.13162,-0.71142 18.875,-3.1875 18.875,-3.1875 l 3.53125,12.375 -0.59375,0.3125 2.9375,4.875 -13.1875,10.96875 -5.5,-8.90625 -13.8125,6.09375 c 0.0668,-3.80043 0.1605,-7.69089 0.25,-11.46875 -2.6841,4.00954 -7.273,6.39532 -13.46875,2.90625 -0.57569,-6.86892 -3.25525,-19.30728 -13.34375,-31.78125 0.35955,-1.56455 1.32677,-3.63369 3.15625,-5.0625 0.45531,-0.356 4.20288,-3.87066 9.96875,-1.5625 0.675,0.2702 7.78311,3.87443 4.90625,12.34375 0.12599,-0.0361 1.06928,-0.1074 1.375,0 -0.09,-8.7937 5.702,-13.42215 10,-13.78125 -6.59963,-6.1324 -8.10716,-7.06713 -14.4375,-8.9375 -0.46751,-0.22474 -0.0587,-0.32174 0.5,-0.34375 z m -11.25,1.125 c 4.54016,0.10244 14.99905,1.168 18.46875,6.21875 -7.33706,-3.91107 -8.61671,-4.32629 -20,-6.1875 0.36934,-0.0154 0.88266,-0.0459 1.53125,-0.0312 z m 5.59375,4.65625 c 3.2542,0.0306 6.4115,1.38968 9,4.03125 1.10156,-0.67122 4.05973,-1.68598 4.4375,-1.375 -1.4374,0.40571 -3.20181,1.30019 -4.96875,3.6875 -5.19259,-8.05192 -18.06986,-4.71163 -24.03125,6.375 7.93119,8.31663 10.75132,21.01922 11,22.625 -0.36414,-0.4584 -4.4199,-13.2406 -11.96875,-21.03125 3.74394,-9.63876 10.31868,-14.371 16.53125,-14.3125 z m 47.84375,5.25 c 0.16723,-0.0293 0.17986,0.11926 0.3125,0.125 1.654,2.10942 7.86964,14.19189 -2.9375,21.375 -0.1985,-0.0348 0.0261,-0.60752 0.28125,-0.90625 8.01137,-8.79359 2.58223,-19.02829 2.34375,-20.59375 z m -27.875,0.71875 c -4.73689,0.13193 -8.40772,6.80869 -7.71875,11.90625 6.07674,3.38177 6.45748,7.38885 7.25,10.03125 4.71173,0.52163 6.85371,-3.91268 7.375,-4.9375 -3.02096,-4.22664 -2.837,-9.44088 -1.9375,-14.65625 -1.69057,-1.70821 -3.38979,-2.38773 -4.96875,-2.34375 z m -20.5625,1.34375 c -1.71361,-3.7e-4 -3.66077,0.86739 -5.5625,3.53125 0.35577,0.80261 4.20343,6.06501 5.75,8.90625 7.51723,-0.66435 6.35561,-7.78766 5.1875,-9.5625 -0.30333,-0.46082 -2.51898,-2.87438 -5.375,-2.875 z m 28.28125,5.84375 c -0.10779,1.1688 0.0286,3.5756 0.40625,4.90625 0.0898,-0.86331 -0.0105,-3.91717 -0.40625,-4.90625 z m -18.65625,7.4375 c -4.23355,-0.0515 -6.45458,4.84773 -6.625,4.875 1.56443,3.39873 3.69836,11.32128 4.25,15.78125 3.45278,1.81676 10.17262,-1.07385 9.8125,-11.46875 -5.08904,-2.94857 -5.80732,-6.94891 -6.5625,-9.125 -0.30011,-0.0506 -0.59276,-0.0591 -0.875,-0.0625 z m 4.40625,2.0625 c 0.0718,0.41339 1.55042,2.90065 2,3.0625 -0.14398,-0.71899 -1.17288,-2.14546 -2,-3.0625 z m 27.875,5.40625 c -0.79458,0.10275 -1.52486,0.26507 -2.1875,0.5 0.13665,3.62781 0.37553,7.17366 0.625,10.6875 0.52083,-0.16952 0.97667,-0.42649 1.46875,-0.625 -0.0673,-0.7703 -0.038,-1.37001 -0.21875,-2.1875 0.52404,-0.0627 0.90768,-0.25551 1.34375,-0.40625 0.12359,0.53251 0.25746,1.05474 0.40625,1.5625 0.53962,-0.0824 1.00743,-0.2772 1.375,-0.53125 -1.0255,-2.91089 -1.84701,-6.02955 -2.8125,-9 z m -5.90625,1.21875 c -1.01929,0.0476 -2.08366,0.63817 -2.375,2.21875 -0.6758,3.66424 3.26456,4.22208 3.9375,5.09375 0.43309,0.63903 0.33605,2.05825 -0.5,2.03125 -0.48266,-0.24294 -0.37815,-1.02191 -0.46875,-1.65625 -0.78279,0.18475 -1.35747,0.36341 -2.09375,0.59375 0.18877,2.26578 0.27155,3.50905 2.53125,3.15625 0.25154,-0.0392 0.95095,-0.32915 1.03125,-0.40625 0.0798,-0.0763 0.11738,-0.0226 0.21875,-0.0937 0.53446,-0.37456 1.22542,-1.40719 1.34375,-2.0625 0.28246,-1.56236 0.15294,-3.28626 -3.21875,-5.09375 -0.33653,-0.18041 -0.629,-1.05401 -0.625,-1.4375 10e-4,-0.14593 -0.10641,-0.80135 0.53125,-0.71875 0.49139,0.0265 0.3168,0.94579 0.375,1.40625 0.70078,-0.0239 1.09146,-0.18337 1.625,-0.375 -0.0253,-0.42037 -0.169,-1.10809 -0.25,-1.59375 -0.0809,-0.60691 -1.04321,-1.11014 -2.0625,-1.0625 z m -3.71875,0.8438 c -0.80329,0.0602 -1.46478,0.2658 -2.28125,0.3125 0.0818,1.19606 0.1097,2.4818 0.1875,3.71875 0.0398,0.62254 0.23153,1.33562 0.125,1.875 -0.60192,-1.74575 -1.3115,-3.40344 -1.96875,-5.09375 -0.56539,0.1599 -1.30985,0.15282 -1.875,0.3125 0.31728,4.72398 0.57486,9.50899 0.9375,14.1875 1.04991,-0.40044 2.03738,-0.85603 3,-1.34375 -0.11924,-0.97889 -0.2219,-2.05725 -0.3125,-3.09375 -0.0978,-1.11301 -0.32516,-2.23359 -0.21875,-3 0.65175,1.73063 1.457,3.31744 2.09375,5.0625 0.75827,-0.10538 1.43425,-0.26505 1.84375,-0.71875 -0.62197,-3.97018 -1.02474,-8.13335 -1.53125,-12.21875 z m 8.90625,0.3125 c 0.49299,1.26765 0.8472,2.67294 1.34375,3.9375 -0.20286,0.21164 -0.52503,0.3105 -0.9375,0.3125 -0.21339,-1.34027 -0.28128,-2.82176 -0.40625,-4.25 z m -16.71875,1.1875 c 0,0 -2.24569,0.44561 -3.0625,0.65625 0.14101,5.314 0.28627,10.63351 0.5,15.875 0.97832,-0.35199 1.90196,-0.96436 2.6875,-1.375 0.2552,-0.13275 0.77135,-0.11983 0.84375,-0.5 -0.17182,-2.26039 -0.18999,-4.18228 -0.40625,-7.46875 -0.0496,-0.75919 -0.2563,-2.85329 -0.3125,-4.03125 -0.0231,-0.48772 -0.1149,-1.25514 -0.125,-1.4375 -0.0395,-0.74567 -0.125,-1.71875 -0.125,-1.71875 z m 20.9375,6.90625 c 0,0 -0.54985,0.3639 -0.59375,0.375 0.38509,0.96159 1.07138,1.67592 1.5,2.59375 -0.36883,-0.282 -2.04298,-1.9536 -2.3125,-2.1875 -0.1559,0.12084 -0.5625,0.3125 -0.5625,0.3125 0,0 2.40517,4.14186 3.1875,5.5 0,0 0.56875,-0.4285 0.59375,-0.4375 -0.47203,-0.73629 -1.01596,-1.77538 -1.46875,-2.53125 0.0989,0.0578 1.94505,1.794 2.125,1.875 0,0 0.4373,-0.3085 0.375,-0.3125 0,0 -2.16829,-3.82031 -2.84375,-5.1875 z m -3.78125,1.65625 c -0.64522,0.0675 -1.16309,0.61573 -0.84375,1.9375 0.10332,0.42702 2.02794,3.48096 2.375,3.90625 1.6366,2.00565 2.98164,-0.30832 2.34375,-1.46875 -0.15853,-0.28842 -0.502,-0.8351 -0.78125,-1.28125 -0.48486,-0.77419 -1.40625,-2.1875 -1.40625,-2.1875 -0.2473,-0.54849 -1.04228,-0.97375 -1.6875,-0.90625 z m -2.21875,1.09375 -1.125,0.5 c 0.39907,1.01623 0.83969,2.30741 1.28125,3.28125 0,0 -2.10625,-2.4985 -2.25,-2.6875 l -1.3125,0.75 c 0.0882,0.0895 3.00028,2.91899 3.625,3.75 0,0 1.00358,1.82762 1.65625,2.6875 0,0 1.25,-0.87965 1.25,-0.90625 -0.0632,-0.12245 -1.91525,-3.1602 -1.90625,-3.1875 0,0 -1.22275,-4.1587 -1.21875,-4.1875 z m 2.625,0 c 0.18891,-0.007 0.43277,0.13269 0.5,0.28125 l 2.125,3.4375 c 0.27868,0.8183 -0.39931,0.8691 -0.6875,0.4375 -0.44912,-0.6734 -2.15625,-3.53125 -2.15625,-3.53125 -0.10321,-0.46321 0.0298,-0.61827 0.21875,-0.625 z m -7.75,2.53125 c -0.13219,-0.006 -1.90625,0.84375 -1.90625,0.84375 0.10423,0.50422 5.09375,8.03125 5.09375,8.03125 0.85003,-0.60032 2.53125,-1.90625 2.53125,-1.90625 0,0 -0.9018,-1.35235 -0.9375,-1.40625 l -1.15625,0.71875 c -1.20442,-2.03222 -3.625,-6.28125 -3.625,-6.28125 z m -17.34375,1.125 c 0.24068,0.0227 0.11666,0.75061 0,0.90625 -5.5165,7.36421 -17.56288,-0.46091 -17.5,-0.71875 12.43973,4.52205 14.62367,1.62409 17.375,-0.15625 0.0506,-0.0303 0.0906,-0.0345 0.125,-0.0312 z"
         style="fill:url(#linearGradient7468);fill-opacity:1;fill-rule:nonzero;stroke:none" />
      <path
         d="m 149.86807,576.90014 c -3.324,0 -6,2.676 -6,6 l 0,2 0,56 0,2 c 0,0.33472 0.0414,0.6507 0.0937,0.96875 0.0487,0.2956 0.097,0.59691 0.1875,0.875 0.01,0.0304 0.0209,0.0636 0.0312,0.0937 0.0989,0.28777 0.23488,0.54745 0.375,0.8125 0.14459,0.27351 0.31562,0.53562 0.5,0.78125 0.18438,0.24564 0.37378,0.47347 0.59375,0.6875 0.43995,0.42806 0.94291,0.81453 1.5,1.09375 0.27854,0.13961 0.57347,0.24695 0.875,0.34375 -0.2562,-0.10022 -0.48671,-0.23627 -0.71875,-0.375 -0.007,-0.004 -0.0239,0.005 -0.0312,0 -0.0319,-0.0193 -0.0623,-0.0425 -0.0937,-0.0625 -0.1204,-0.0767 -0.23102,-0.16351 -0.34375,-0.25 -0.10617,-0.0808 -0.21328,-0.16111 -0.3125,-0.25 -0.17793,-0.16143 -0.34746,-0.34539 -0.5,-0.53125 -0.10758,-0.13026 -0.21839,-0.26528 -0.3125,-0.40625 -0.0251,-0.0384 -0.0384,-0.0859 -0.0625,-0.125 -0.0648,-0.10303 -0.13023,-0.20452 -0.1875,-0.3125 -0.10101,-0.19471 -0.20567,-0.4157 -0.28125,-0.625 -0.008,-0.0218 -0.0236,-0.0405 -0.0312,-0.0625 -0.0318,-0.0919 -0.0358,-0.18683 -0.0625,-0.28125 -0.0303,-0.10662 -0.0704,-0.20303 -0.0937,-0.3125 -0.0729,-0.34151 -0.125,-0.69821 -0.125,-1.0625 l 0,-2 0,-56 0,-2 c 0,-2.78185 2.21815,-5 5,-5 l 2,0 68,0 2,0 c 2.78185,0 5,2.21815 5,5 l 0,2 0,56 0,2 c 0,0.36429 -0.0521,0.72099 -0.125,1.0625 -0.0442,0.20689 -0.0884,0.39766 -0.15625,0.59375 -0.008,0.022 -0.0233,0.0407 -0.0312,0.0625 -0.0627,0.17374 -0.13838,0.36745 -0.21875,0.53125 -0.0416,0.0828 -0.079,0.16995 -0.125,0.25 -0.0546,0.0972 -0.12677,0.18835 -0.1875,0.28125 -0.0941,0.14097 -0.20492,0.27599 -0.3125,0.40625 -0.14317,0.17445 -0.30314,0.347 -0.46875,0.5 -0.0112,0.0102 -0.02,0.0211 -0.0312,0.0312 -0.13839,0.12556 -0.28509,0.23444 -0.4375,0.34375 -0.10257,0.0731 -0.20432,0.15336 -0.3125,0.21875 -0.007,0.005 -0.0238,-0.004 -0.0312,0 -0.23204,0.13873 -0.46255,0.27478 -0.71875,0.375 0.30153,-0.0968 0.59645,-0.20414 0.875,-0.34375 0.55709,-0.27922 1.06005,-0.66569 1.5,-1.09375 0.21997,-0.21403 0.40937,-0.44186 0.59375,-0.6875 0.18438,-0.24563 0.35541,-0.50774 0.5,-0.78125 0.14012,-0.26505 0.27613,-0.52473 0.375,-0.8125 0.0104,-0.0308 0.0213,-0.0627 0.0312,-0.0937 0.0905,-0.27809 0.1388,-0.5794 0.1875,-0.875 0.0524,-0.31805 0.0937,-0.63403 0.0937,-0.96875 l 0,-2 0,-56 0,-2 c 0,-3.324 -2.676,-6 -6,-6 l -72,0 z"
         id="rect3728-4-6-3"
         style="opacity:0.5;fill:url(#linearGradient7470);fill-opacity:1;fill-rule:nonzero;stroke:none" />
      <rect
         width="54.464287"
         height="34.82143"
         rx="9"
         ry="9"
         x="13.306199"
         y="13.887781"
         transform="matrix(0.8917533,0,0,0.92600293,150.00222,578.04001)"
         id="rect2399-3-9"
         style="opacity:0.15;fill:#fff9dc;fill-opacity:1;fill-rule:nonzero;stroke:none;filter:url(#filter3179-8-8)" />
      <path
         d="m 149.86807,648.90014 c -3.324,0 -6,-2.676 -6,-6 l 0,-2 0,-56 0,-2 c 0,-0.33472 0.0414,-0.6507 0.0937,-0.96875 0.0487,-0.2956 0.097,-0.59692 0.1875,-0.875 0.01,-0.0304 0.0209,-0.0636 0.0312,-0.0937 0.0989,-0.28777 0.23488,-0.54745 0.375,-0.8125 0.14459,-0.27351 0.31562,-0.53561 0.5,-0.78125 0.18438,-0.24563 0.37378,-0.47347 0.59375,-0.6875 0.43995,-0.42806 0.94291,-0.81453 1.5,-1.09375 0.27854,-0.13961 0.57347,-0.24695 0.875,-0.34375 -0.2562,0.10022 -0.48671,0.23627 -0.71875,0.375 -0.007,0.004 -0.0239,-0.005 -0.0312,0 -0.0319,0.0193 -0.0623,0.0425 -0.0937,0.0625 -0.1204,0.0767 -0.23102,0.16351 -0.34375,0.25 -0.10617,0.0808 -0.21328,0.16111 -0.3125,0.25 -0.17793,0.16143 -0.34746,0.34539 -0.5,0.53125 -0.10758,0.13025 -0.21839,0.26529 -0.3125,0.40625 -0.0251,0.0384 -0.0384,0.0859 -0.0625,0.125 -0.0648,0.10303 -0.13023,0.20452 -0.1875,0.3125 -0.10101,0.19471 -0.20567,0.4157 -0.28125,0.625 -0.008,0.0218 -0.0236,0.0405 -0.0312,0.0625 -0.0318,0.0919 -0.0358,0.18683 -0.0625,0.28125 -0.0303,0.10662 -0.0704,0.20303 -0.0937,0.3125 -0.0729,0.34151 -0.125,0.69821 -0.125,1.0625 l 0,2 0,56 0,2 c 0,2.78185 2.21815,5 5,5 l 2,0 68,0 2,0 c 2.78185,0 5,-2.21815 5,-5 l 0,-2 0,-56 0,-2 c 0,-0.36429 -0.0521,-0.72099 -0.125,-1.0625 -0.0442,-0.20689 -0.0884,-0.39766 -0.15625,-0.59375 -0.008,-0.022 -0.0233,-0.0407 -0.0312,-0.0625 -0.0627,-0.17374 -0.13838,-0.36745 -0.21875,-0.53125 -0.0416,-0.0828 -0.079,-0.16995 -0.125,-0.25 -0.0546,-0.0972 -0.12677,-0.18835 -0.1875,-0.28125 -0.0941,-0.14096 -0.20492,-0.276 -0.3125,-0.40625 -0.14317,-0.17445 -0.30314,-0.347 -0.46875,-0.5 -0.0112,-0.0102 -0.02,-0.0212 -0.0312,-0.0312 -0.13839,-0.12556 -0.28509,-0.23444 -0.4375,-0.34375 -0.10257,-0.0731 -0.20432,-0.15336 -0.3125,-0.21875 -0.007,-0.005 -0.0238,0.004 -0.0312,0 -0.23204,-0.13873 -0.46255,-0.27478 -0.71875,-0.375 0.30153,0.0968 0.59645,0.20414 0.875,0.34375 0.55709,0.27922 1.06005,0.66569 1.5,1.09375 0.21997,0.21403 0.40937,0.44187 0.59375,0.6875 0.18438,0.24564 0.35541,0.50774 0.5,0.78125 0.14012,0.26505 0.27613,0.52473 0.375,0.8125 0.0104,0.0308 0.0213,0.0627 0.0312,0.0937 0.0905,0.27808 0.1388,0.5794 0.1875,0.875 0.0524,0.31805 0.0937,0.63403 0.0937,0.96875 l 0,2 0,56 0,2 c 0,3.324 -2.676,6 -6,6 l -72,0 z"
         id="path3615-1-3-0"
         style="opacity:0.2;fill:url(#radialGradient7472);fill-opacity:1;fill-rule:nonzero;stroke:none" />
      <path
         transform="translate(-320.47089,79.296969)"
         mask="url(#mask6505-4)"
         id="path28-7-1-9-1"
         d="m 518.64356,501.60231 c -1.82904,0.0797 -5.20787,1.63939 -5.5,8.71875 1.49238,-6.15039 8.86591,-5.30705 6.46875,-8.59375 -0.20042,-0.0918 -0.54666,-0.14338 -0.96875,-0.125 z m -24.1875,0.96875 c 9.00962,1.54083 13.07935,4.59372 15.15625,5.875 -4.31587,-5.30048 -11.59545,-5.89871 -15.15625,-5.875 z m 24.125,0.0312 c 0.30632,0.0184 0.53402,0.15158 0.625,0.34375 0.53927,1.15998 -2.12712,0.66578 -5.03125,4.5 -0.12451,0.14524 0.55526,-1.81217 2.1875,-3.5625 0.93295,-1.00018 1.70822,-1.31199 2.21875,-1.28125 z m -12.46875,1.59375 c 3.3718,1.96922 5.19042,5.25639 6.6875,6.875 -0.94418,-2.50872 -2.39878,-6.11959 -6.6875,-6.875 z m -23.375,0.3125 c -2.71836,0.0869 -5.04861,0.97907 -5.8125,1.3125 5.91672,-0.94338 9.33679,-0.25549 12.3125,0.625 -2.0454,-1.57714 -4.38572,-2.00507 -6.5,-1.9375 z m 40.59375,0.0625 c -3.79272,-0.0213 -7.50355,1.72633 -9.375,5.59375 -0.21969,0.45416 -0.30289,0.86196 -0.46875,1.375 2.48158,-5.44881 18.45789,-10.3857 20.5625,5.25 0.0451,0.33378 0.23485,0.93102 0.46875,1.21875 1.63088,-8.41827 -4.86629,-13.40191 -11.1875,-13.4375 z m -29.75,1.125 c -0.55868,0.022 -0.96751,0.11902 -0.5,0.34375 6.33034,1.87037 7.86912,2.80509 14.46875,8.9375 -4.298,0.35909 -10.09003,5.0188 -10,13.8125 -0.30572,-0.10744 -1.28025,-0.0673 -1.40625,-0.0312 2.87686,-8.46932 -4.23125,-12.04229 -4.90625,-12.3125 -5.76587,-2.30816 -9.48219,1.17525 -9.9375,1.53125 -1.82948,1.42881 -2.82795,3.49796 -3.1875,5.0625 10.0885,12.47397 12.79931,24.91233 13.375,31.78125 6.19446,3.48834 10.75316,1.10177 13.4375,-2.90625 -0.0895,3.77786 -0.18322,7.66832 -0.25,11.46875 l 13.8125,-6.09375 5.5,8.9375 13.1875,-11 -2.90625,-4.84375 0.5625,-0.34375 -3.5,-12.375 c 0,0 -14.92604,2.55349 -18.96875,3.25 1.5209,-0.83993 3.10113,-2.27198 4.5625,-4.71875 6.79687,2.69738 16.19127,1.51307 16.5625,-14.59375 -0.34947,5.9276 -4.13974,13.00879 -12.84375,12.34375 -1.7083,-0.21591 -1.9115,-0.53366 -2.46875,-0.875 0.51109,-1.33431 0.73555,-5.56854 0.25,-7.90625 5.93436,0.50365 7.14808,-1.67031 8.28125,-3.46875 0.072,-0.14398 -0.0666,-0.31511 -0.4375,-0.34375 -2.10393,-0.0358 -2.58685,1.38 -8.8125,0.375 -0.40388,-0.59757 -0.73757,-1.14547 -1.1875,-2.0625 0.50365,-3.41693 1.45898,-4.41189 2.9375,-5.59375 2.71146,-2.28914 5.62647,-1.77832 9.1875,0.9375 0.59356,0.39552 1.03015,0.2368 0.96875,-0.0625 -1.34874,-6.54602 -7.13109,-5.59903 -8.15625,-5.40625 -0.69757,0.1315 -5.60738,1.74057 -7.53125,6.9375 -0.91738,-1.1869 -9.2918,-10.37235 -18.625,-10.75 -0.17565,-0.007 -0.91007,-0.0533 -1.46875,-0.0312 z m -12.78125,1.15625 c 11.38329,1.86121 12.66294,2.27643 20,6.1875 -3.96537,-5.77228 -17.04525,-6.31098 -20,-6.1875 z m 7.125,4.625 c -6.21257,-0.0585 -12.78731,4.67374 -16.53125,14.3125 7.54885,7.79065 11.60462,20.57285 11.96875,21.03125 -0.24867,-1.60578 -3.03756,-14.30837 -10.96875,-22.625 5.9614,-11.08663 18.80742,-14.39567 24,-6.34375 1.76694,-2.38731 3.5626,-3.28179 5,-3.6875 -0.37776,-0.31098 -3.36719,0.67253 -4.46875,1.34375 -2.5885,-2.64157 -5.7458,-4.00061 -9,-4.03125 z m 47.84375,5.28125 c 0.23848,1.56546 5.66762,11.76891 -2.34375,20.5625 -0.25543,0.29873 -0.4485,0.87143 -0.25,0.90625 10.80714,-7.18311 4.56025,-19.26557 2.90625,-21.375 -0.13264,-0.006 -0.14527,-0.12307 -0.3125,-0.0937 z m -27.84375,0.71875 c 1.57896,-0.044 3.27818,0.63554 4.96875,2.34375 -0.89951,5.21538 -1.11471,10.39836 1.90625,14.625 -0.52129,1.02482 -2.63202,5.45913 -7.34375,4.9375 -0.79252,-2.64239 -1.20451,-6.64948 -7.28125,-10.03125 -0.68898,-5.09757 3.01311,-11.74307 7.75,-11.875 z m -20.59375,1.3125 c 2.85602,6.1e-4 5.07168,2.41418 5.375,2.875 1.16811,1.77485 2.32973,8.89815 -5.1875,9.5625 -1.54656,-2.84124 -5.39423,-8.10365 -5.75,-8.90625 1.90173,-2.66386 3.84889,-3.53162 5.5625,-3.53125 z m 28.3125,5.875 c 0.39575,0.98908 0.49605,4.01169 0.40625,4.875 -0.37765,-1.33065 -0.51404,-3.7062 -0.40625,-4.875 z m -18.6875,7.40625 c 0.28224,0.003 0.57489,0.0432 0.875,0.0937 0.75518,2.17609 1.47347,6.14518 6.5625,9.09375 0.36012,10.3949 -6.35971,13.28552 -9.8125,11.46875 -0.55164,-4.45996 -2.68557,-12.35128 -4.25,-15.75 0.17042,-0.0273 2.39145,-4.95773 6.625,-4.90625 z m 4.40625,2.0625 c 0.82712,0.91703 1.85602,2.37476 2,3.09375 -0.44958,-0.16185 -1.92818,-2.68036 -2,-3.09375 z m 27.875,5.40625 c 0.96548,2.97045 1.787,6.08912 2.8125,9 -0.36757,0.25406 -0.80414,0.44889 -1.34375,0.53125 -0.14879,-0.50777 -0.28266,-1.02999 -0.40625,-1.5625 -0.43607,0.15074 -0.85097,0.34359 -1.375,0.40625 0.18075,0.81749 0.1514,1.4172 0.21875,2.1875 -0.49208,0.1985 -0.91667,0.45548 -1.4375,0.625 -0.24947,-3.51384 -0.48835,-7.05969 -0.625,-10.6875 0.66263,-0.23493 1.36166,-0.39725 2.15625,-0.5 z m -5.90625,1.25 c 1.01929,-0.0476 2.01283,0.42434 2.09375,1.03125 0.081,0.48566 0.19344,1.17338 0.21875,1.59375 -0.53354,0.19163 -0.89298,0.38231 -1.59375,0.40625 -0.0582,-0.46046 0.0851,-1.41104 -0.40625,-1.4375 -0.63766,-0.0826 -0.49874,0.57282 -0.5,0.71875 -0.004,0.38349 0.25722,1.28834 0.59375,1.46875 3.37169,1.80749 3.50121,3.50013 3.21875,5.0625 -0.11832,0.6553 -0.80929,1.68794 -1.34375,2.0625 -0.10137,0.0712 -0.10766,0.0175 -0.1875,0.0937 -0.0803,0.0771 -0.77971,0.39833 -1.03125,0.4375 -2.25971,0.35279 -2.34248,-0.92172 -2.53125,-3.1875 0.73628,-0.23035 1.27971,-0.40899 2.0625,-0.59375 0.0906,0.63434 0.0177,1.4133 0.5,1.65625 0.83605,0.027 0.90184,-1.39221 0.46875,-2.03125 -0.67294,-0.87167 -4.6133,-1.39827 -3.9375,-5.0625 0.29134,-1.58058 1.35571,-2.17111 2.375,-2.21875 z m -3.71875,0.8125 c 0.50651,4.08541 0.94053,8.24857 1.5625,12.21875 -0.40949,0.45371 -1.11672,0.64462 -1.875,0.75 -0.63675,-1.74506 -1.41075,-3.36312 -2.0625,-5.09375 -0.10641,0.76641 0.12093,1.88698 0.21875,3 0.0906,1.0365 0.16201,2.14611 0.28125,3.125 -0.96262,0.48772 -1.9501,0.94331 -3,1.34375 -0.36264,-4.67851 -0.58897,-9.46351 -0.90625,-14.1875 0.56516,-0.15967 1.27837,-0.1526 1.84375,-0.3125 0.65725,1.69031 1.36683,3.31675 1.96875,5.0625 0.10653,-0.53938 -0.054,-1.25246 -0.0937,-1.875 -0.0778,-1.23695 -0.13697,-2.52269 -0.21875,-3.71875 0.81646,-0.0467 1.47796,-0.25225 2.28125,-0.3125 z m 8.90625,0.3125 c 0.12497,1.42824 0.19286,2.90973 0.40625,4.25 0.41247,-0.002 0.73464,-0.10082 0.9375,-0.3125 -0.49654,-1.26456 -0.85076,-2.66985 -1.34375,-3.9375 z m -16.71875,1.1875 c 0,0 0.11673,0.97307 0.15625,1.71875 0.0101,0.18235 0.0707,0.94978 0.0937,1.4375 0.0562,1.17796 0.2629,3.30331 0.3125,4.0625 0.21626,3.28647 0.23444,5.17711 0.40625,7.4375 -0.0724,0.38017 -0.5573,0.39849 -0.8125,0.53125 -0.78554,0.41064 -1.70919,0.99176 -2.6875,1.34375 -0.21374,-5.24149 -0.39025,-10.52975 -0.53125,-15.84375 0.81681,-0.21064 3.0625,-0.6875 3.0625,-0.6875 z m 20.9375,6.90625 c 0.67546,1.36719 2.84375,5.21875 2.84375,5.21875 0.0623,0.004 -0.375,0.28125 -0.375,0.28125 -0.17995,-0.081 -1.9949,-1.78591 -2.09375,-1.84375 0.45279,0.75587 0.96547,1.76372 1.4375,2.5 -0.025,0.009 -0.59375,0.46875 -0.59375,0.46875 -0.78233,-1.35814 -3.1875,-5.53125 -3.1875,-5.53125 0,0 0.43786,-0.19166 0.59375,-0.3125 0.26952,0.2339 1.91242,1.90549 2.28125,2.1875 -0.42862,-0.91783 -1.08366,-1.63216 -1.46875,-2.59375 0.0439,-0.0111 0.5625,-0.375 0.5625,-0.375 z m -3.78125,1.6875 c 0.64522,-0.0675 1.4402,0.32651 1.6875,0.875 0,0 0.92139,1.4133 1.40625,2.1875 0.27926,0.44615 0.62272,0.99283 0.78125,1.28125 0.63789,1.16044 -0.67591,3.50565 -2.3125,1.5 -0.34707,-0.4253 -2.27168,-3.51048 -2.375,-3.9375 -0.31935,-1.32177 0.16728,-1.83876 0.8125,-1.90625 z m -2.1875,1.0625 c -0.004,0.0287 1.1875,4.1875 1.1875,4.1875 -0.009,0.0273 1.87427,3.0963 1.9375,3.21875 0,0.0266 -1.25,0.875 -1.25,0.875 -0.65267,-0.85987 -1.6875,-2.6875 -1.6875,-2.6875 -0.62472,-0.83101 -3.5368,-3.62929 -3.625,-3.71875 l 1.34375,-0.75 c 0.14375,0.189 2.25,2.65625 2.25,2.65625 -0.44156,-0.97385 -0.91343,-2.23377 -1.3125,-3.25 l 1.15625,-0.53125 z m 2.59375,0 c -0.18891,0.007 -0.32195,0.19304 -0.21875,0.65625 0,0 1.70713,2.85785 2.15625,3.53125 0.28819,0.4316 0.96618,0.34955 0.6875,-0.46875 l -2.125,-3.40625 c -0.0672,-0.14856 -0.31109,-0.31923 -0.5,-0.3125 z m -7.75,2.53125 c 0,0 2.42058,4.28028 3.625,6.3125 l 1.15625,-0.71875 c 0.0357,0.0539 0.9375,1.375 0.9375,1.375 0,0 -1.68123,1.33718 -2.53125,1.9375 0,0 -4.98952,-7.55828 -5.09375,-8.0625 0,0 1.77407,-0.84982 1.90625,-0.84375 z m -17.34375,1.125 c -0.0344,-0.003 -0.0744,9.2e-4 -0.125,0.0312 -2.75133,1.78034 -4.93528,4.70955 -17.375,0.1875 -0.0629,0.25784 11.98349,8.08295 17.5,0.71875 0.11666,-0.15565 0.24068,-0.91483 0,-0.9375 z"
         style="opacity:0.71530247;fill:none;stroke:#ffffff;stroke-width:1;stroke-miterlimit:4;stroke-opacity:1;stroke-dasharray:none;filter:url(#filter10335-7)" />
    </g>
  </g>
</svg>
