<?xml version="1.0" encoding="UTF-8" standalone="no"?>
<!-- Created with Inkscape (http://www.inkscape.org/) -->

<svg
   xmlns:svg="http://www.w3.org/2000/svg"
   xmlns="http://www.w3.org/2000/svg"
   xmlns:xlink="http://www.w3.org/1999/xlink"
   version="1.1"
   width="92"
   height="91"
   id="svg14269">
  <defs
     id="defs14271">
    <linearGradient
       x1="26.5"
       y1="90.312759"
       x2="26.5"
       y2="6.9171443"
       id="linearGradient14069"
       xlink:href="#ButtonShadow-4-9"
       gradientUnits="userSpaceOnUse"
       gradientTransform="matrix(1.0277778,0,0,1.0127315,-1.333333,0.03087963)" />
    <linearGradient
       x1="45.447727"
       y1="80.471962"
       x2="45.447727"
       y2="7.0165396"
       id="ButtonShadow-4-9"
       gradientUnits="userSpaceOnUse"
       gradientTransform="matrix(1.0058652,0,0,0.994169,0,12)">
      <stop
         id="stop3750-7-5"
         style="stop-color:#000000;stop-opacity:1"
         offset="0" />
      <stop
         id="stop3752-6-4"
         style="stop-color:#000000;stop-opacity:0.58823532"
         offset="1" />
    </linearGradient>
    <linearGradient
       x1="26.5"
       y1="90.312759"
       x2="26.5"
       y2="6.9171443"
       id="linearGradient14071"
       xlink:href="#ButtonShadow-4-9"
       gradientUnits="userSpaceOnUse"
       gradientTransform="matrix(1.0277778,0,0,1.0127315,-1.333333,0.03087963)" />
    <linearGradient
       x1="45.447727"
       y1="80.471962"
       x2="45.447727"
       y2="7.0165396"
       id="linearGradient14124"
       gradientUnits="userSpaceOnUse"
       gradientTransform="matrix(1.0058652,0,0,0.994169,0,12)">
      <stop
         id="stop14126"
         style="stop-color:#000000;stop-opacity:1"
         offset="0" />
      <stop
         id="stop14128"
         style="stop-color:#000000;stop-opacity:0.58823532"
         offset="1" />
    </linearGradient>
    <linearGradient
       x1="26.5"
       y1="90.312759"
       x2="26.5"
       y2="6.9171443"
       id="linearGradient14073"
       xlink:href="#ButtonShadow-4-9"
       gradientUnits="userSpaceOnUse"
       gradientTransform="matrix(1.0277778,0,0,1.0127315,-1.333333,0.03087963)" />
    <linearGradient
       x1="45.447727"
       y1="80.471962"
       x2="45.447727"
       y2="7.0165396"
       id="linearGradient14131"
       gradientUnits="userSpaceOnUse"
       gradientTransform="matrix(1.0058652,0,0,0.994169,0,12)">
      <stop
         id="stop14133"
         style="stop-color:#000000;stop-opacity:1"
         offset="0" />
      <stop
         id="stop14135"
         style="stop-color:#000000;stop-opacity:0.58823532"
         offset="1" />
    </linearGradient>
    <linearGradient
       x1="26.5"
       y1="90.312759"
       x2="26.5"
       y2="6.9171443"
       id="linearGradient14075"
       xlink:href="#ButtonShadow-4-9"
       gradientUnits="userSpaceOnUse"
       gradientTransform="matrix(1.0277778,0,0,1.0127315,-1.333333,0.03087963)" />
    <linearGradient
       x1="45.447727"
       y1="80.471962"
       x2="45.447727"
       y2="7.0165396"
       id="linearGradient14138"
       gradientUnits="userSpaceOnUse"
       gradientTransform="matrix(1.0058652,0,0,0.994169,0,12)">
      <stop
         id="stop14140"
         style="stop-color:#000000;stop-opacity:1"
         offset="0" />
      <stop
         id="stop14142"
         style="stop-color:#000000;stop-opacity:0.58823532"
         offset="1" />
    </linearGradient>
    <linearGradient
       x1="26.5"
       y1="90.312759"
       x2="26.5"
       y2="6.9171443"
       id="linearGradient14077"
       xlink:href="#ButtonShadow-4-9"
       gradientUnits="userSpaceOnUse" />
    <linearGradient
       x1="45.447727"
       y1="80.471962"
       x2="45.447727"
       y2="7.0165396"
       id="linearGradient14145"
       gradientUnits="userSpaceOnUse"
       gradientTransform="matrix(1.0058652,0,0,0.994169,0,12)">
      <stop
         id="stop14147"
         style="stop-color:#000000;stop-opacity:1"
         offset="0" />
      <stop
         id="stop14149"
         style="stop-color:#000000;stop-opacity:0.58823532"
         offset="1" />
    </linearGradient>
    <linearGradient
       x1="34.85965"
       y1="17.736111"
       x2="34.85965"
       y2="32.012737"
       id="linearGradient14079"
       xlink:href="#linearGradient3348-5"
       gradientUnits="userSpaceOnUse"
       gradientTransform="matrix(0.72,0,0,0.72,1.92,-5.52)" />
    <linearGradient
       id="linearGradient3348-5">
      <stop
         id="stop3350-7"
         style="stop-color:#e0c693;stop-opacity:1"
         offset="0" />
      <stop
         id="stop3356-6"
         style="stop-color:#c0984f;stop-opacity:1"
         offset="0.71691591" />
      <stop
         id="stop3352-8"
         style="stop-color:#a67315;stop-opacity:1"
         offset="1" />
    </linearGradient>
    <linearGradient
       x1="23.607143"
       y1="6"
       x2="23.607143"
       y2="58.466385"
       id="linearGradient14081"
       xlink:href="#linearGradient3737-3-2"
       gradientUnits="userSpaceOnUse" />
    <linearGradient
       id="linearGradient3737-3-2">
      <stop
         id="stop3739-1-9"
         style="stop-color:#ffffff;stop-opacity:1"
         offset="0" />
      <stop
         id="stop3741-7-6"
         style="stop-color:#ffffff;stop-opacity:0"
         offset="1" />
    </linearGradient>
    <linearGradient
       x1="48.035713"
       y1="25.910715"
       x2="48.035713"
       y2="85.821426"
       id="linearGradient14083"
       xlink:href="#linearGradient3317-2"
       gradientUnits="userSpaceOnUse" />
    <linearGradient
       x1="11.794092"
       y1="3.2126782"
       x2="11.794092"
       y2="20.137329"
       id="linearGradient3317-2"
       gradientUnits="userSpaceOnUse"
       gradientTransform="scale(1.0598527,0.9435274)">
      <stop
         id="stop3319-0"
         style="stop-color:#c6953a;stop-opacity:1"
         offset="0" />
      <stop
         id="stop3321-2"
         style="stop-color:#ab7a1f;stop-opacity:1"
         offset="1" />
    </linearGradient>
    <linearGradient
       x1="456.875"
       y1="508.01047"
       x2="456.875"
       y2="486.76245"
       id="linearGradient14091"
       xlink:href="#linearGradient3690-9-7"
       gradientUnits="userSpaceOnUse" />
    <linearGradient
       id="linearGradient3690-9-7">
      <stop
         id="stop3692-1-0"
         style="stop-color:#b38229;stop-opacity:1"
         offset="0" />
      <stop
         id="stop3694-8-6"
         style="stop-color:#b38229;stop-opacity:0.47058824"
         offset="1" />
    </linearGradient>
    <linearGradient
       x1="456.875"
       y1="508.01047"
       x2="456.875"
       y2="486.76245"
       id="linearGradient14085"
       xlink:href="#linearGradient3690-9-7"
       gradientUnits="userSpaceOnUse" />
    <linearGradient
       id="linearGradient14169">
      <stop
         id="stop14171"
         style="stop-color:#b38229;stop-opacity:1"
         offset="0" />
      <stop
         id="stop14173"
         style="stop-color:#b38229;stop-opacity:0.47058824"
         offset="1" />
    </linearGradient>
    <linearGradient
       x1="456.875"
       y1="508.01047"
       x2="456.875"
       y2="486.76245"
       id="linearGradient14087"
       xlink:href="#linearGradient3690-9-7"
       gradientUnits="userSpaceOnUse" />
    <linearGradient
       id="linearGradient14176">
      <stop
         id="stop14178"
         style="stop-color:#b38229;stop-opacity:1"
         offset="0" />
      <stop
         id="stop14180"
         style="stop-color:#b38229;stop-opacity:0.47058824"
         offset="1" />
    </linearGradient>
    <linearGradient
       x1="456.875"
       y1="508.01047"
       x2="456.875"
       y2="486.76245"
       id="linearGradient14089"
       xlink:href="#linearGradient3690-9-7"
       gradientUnits="userSpaceOnUse" />
    <linearGradient
       id="linearGradient14183">
      <stop
         id="stop14185"
         style="stop-color:#b38229;stop-opacity:1"
         offset="0" />
      <stop
         id="stop14187"
         style="stop-color:#b38229;stop-opacity:0.47058824"
         offset="1" />
    </linearGradient>
    <filter
       color-interpolation-filters="sRGB"
       id="filter13470">
      <feGaussianBlur
         id="feGaussianBlur13472"
         stdDeviation="0.2896475" />
    </filter>
    <linearGradient
       x1="48"
       y1="78"
       x2="48"
       y2="5.9877172"
       id="linearGradient14093"
       xlink:href="#linearGradient3187-8"
       gradientUnits="userSpaceOnUse"
       gradientTransform="translate(353.53564,277.19828)" />
    <linearGradient
       id="linearGradient3187-8">
      <stop
         id="stop3189-6"
         style="stop-color:#c6953a;stop-opacity:1"
         offset="0" />
      <stop
         id="stop3191-0"
         style="stop-color:#dec18c;stop-opacity:1"
         offset="1" />
    </linearGradient>
    <linearGradient
       x1="36.357143"
       y1="18"
       x2="36.357143"
       y2="73.994667"
       id="linearGradient14095"
       xlink:href="#linearGradient3737-3-2"
       gradientUnits="userSpaceOnUse"
       gradientTransform="translate(353.53564,265.19828)" />
    <linearGradient
       id="linearGradient14196">
      <stop
         id="stop14198"
         style="stop-color:#ffffff;stop-opacity:1"
         offset="0" />
      <stop
         id="stop14200"
         style="stop-color:#ffffff;stop-opacity:0"
         offset="1" />
    </linearGradient>
    <linearGradient
       x1="456.875"
       y1="508.01047"
       x2="456.875"
       y2="486.76245"
       id="linearGradient14103"
       xlink:href="#linearGradient3690-9-7-5"
       gradientUnits="userSpaceOnUse" />
    <linearGradient
       id="linearGradient3690-9-7-5">
      <stop
         id="stop3692-1-0-1"
         style="stop-color:#b38229;stop-opacity:1"
         offset="0" />
      <stop
         id="stop3694-8-6-5"
         style="stop-color:#b38229;stop-opacity:0.47058824"
         offset="1" />
    </linearGradient>
    <filter
       x="-0.25"
       y="-0.25"
       width="1.5"
       height="1.5"
       color-interpolation-filters="sRGB"
       id="filter14027">
      <feGaussianBlur
         result="blur"
         stdDeviation="1,000000"
         in="SourceAlpha"
         id="feGaussianBlur14029" />
      <feColorMatrix
         values="-1 0 0 0 1 0 -1 0 0 1 0 0 -1 0 1 0 0 0 1,000000 0 "
         type="matrix"
         result="bluralpha"
         id="feColorMatrix14031" />
      <feOffset
         result="offsetBlur"
         dy="-0,000000"
         dx="-0,000000"
         in="bluralpha"
         id="feOffset14033" />
      <feMerge
         id="feMerge14035">
        <feMergeNode
           in="offsetBlur"
           id="feMergeNode14037" />
        <feMergeNode
           in="SourceGraphic"
           id="feMergeNode14039" />
      </feMerge>
    </filter>
    <linearGradient
       x1="456.875"
       y1="508.01047"
       x2="456.875"
       y2="486.76245"
       id="linearGradient14097"
       xlink:href="#linearGradient3690-9-7-5"
       gradientUnits="userSpaceOnUse" />
    <linearGradient
       id="linearGradient14214">
      <stop
         id="stop14216"
         style="stop-color:#b38229;stop-opacity:1"
         offset="0" />
      <stop
         id="stop14218"
         style="stop-color:#b38229;stop-opacity:0.47058824"
         offset="1" />
    </linearGradient>
    <linearGradient
       x1="456.875"
       y1="508.01047"
       x2="456.875"
       y2="486.76245"
       id="linearGradient14099"
       xlink:href="#linearGradient3690-9-7-5"
       gradientUnits="userSpaceOnUse" />
    <linearGradient
       id="linearGradient14221">
      <stop
         id="stop14223"
         style="stop-color:#b38229;stop-opacity:1"
         offset="0" />
      <stop
         id="stop14225"
         style="stop-color:#b38229;stop-opacity:0.47058824"
         offset="1" />
    </linearGradient>
    <linearGradient
       x1="456.875"
       y1="508.01047"
       x2="456.875"
       y2="486.76245"
       id="linearGradient14101"
       xlink:href="#linearGradient3690-9-7-5"
       gradientUnits="userSpaceOnUse" />
    <linearGradient
       id="linearGradient14228">
      <stop
         id="stop14230"
         style="stop-color:#b38229;stop-opacity:1"
         offset="0" />
      <stop
         id="stop14232"
         style="stop-color:#b38229;stop-opacity:0.47058824"
         offset="1" />
    </linearGradient>
    <filter
       x="-0.29508197"
       y="-0.46153846"
       width="1.5901639"
       height="1.9230769"
       color-interpolation-filters="sRGB"
       id="filter3179-0">
      <feGaussianBlur
         id="feGaussianBlur3181-8"
         stdDeviation="6.6964288" />
    </filter>
    <radialGradient
       cx="48"
       cy="90.171875"
       r="42"
       fx="48"
       fy="90.171875"
       id="radialGradient14105"
       xlink:href="#linearGradient3737-5-9"
       gradientUnits="userSpaceOnUse"
       gradientTransform="matrix(1.1573129,0,0,0.99590774,345.98462,265.39541)" />
    <linearGradient
       id="linearGradient3737-5-9">
      <stop
         id="stop3739-0-3"
         style="stop-color:#ffffff;stop-opacity:1"
         offset="0" />
      <stop
         id="stop3741-4-5"
         style="stop-color:#ffffff;stop-opacity:0"
         offset="1" />
    </linearGradient>
    <radialGradient
       cx="48"
       cy="90.171875"
       r="42"
       fx="48"
       fy="90.171875"
       id="radialGradient14267"
       xlink:href="#linearGradient3737-5-9"
       gradientUnits="userSpaceOnUse"
       gradientTransform="matrix(1.1573129,0,0,0.99590774,345.98462,265.39541)" />
  </defs>
  <g
     transform="translate(-231.14286,-426.86218)"
     id="layer1">
    <g
       transform="translate(-124.39278,157.6639)"
       id="g14041">
      <g
         transform="translate(353.53564,265.19828)"
         id="layer4-7-4"
         style="display:inline">
        <path
           d="M 13.96875,4 C 10.667823,4 7.875,6.6931198 7.875,10.03125 l 0,7.0625 c -3.4360632,1.560695 -6,4.840711 -6,8.90625 l 0,59 c 0,5.561299 4.5637001,10.125 10.125,10.125 l 72,0 c 5.561299,0 10.125,-4.563701 10.125,-10.125 l 0,-59 c 0,-4.090756 -2.593768,-7.389362 -6.0625,-8.9375 -0.160383,-3.993445 -3.473555,-7.21875 -7.5,-7.21875 l -42.5,0 L 37.4375,8.625 C 37.135051,8.028958 36.735432,7.0401877 35.9375,6.0625 35.034313,4.9558457 33.554045,4 31.71875,4 l -17.75,0 z"
           transform="matrix(0.99728997,0,0,0.99862826,0.1300813,0.00548697)"
           id="path3715-9"
           style="opacity:0.07999998;fill:url(#linearGradient14069);fill-opacity:1;fill-rule:nonzero;stroke:none;display:inline" />
        <path
           d="m 13.96875,4.96875 c -2.783187,0 -5.125,2.2572798 -5.125,5.0625 l 0,7.3125 0,0.3125 c -3.4368535,1.290325 -6,4.439736 -6,8.34375 l 0,59 c 0,5.039918 4.1163315,9.15625 9.15625,9.15625 l 72,0 c 5.039918,0 9.15625,-4.116332 9.15625,-9.15625 l 0,-59 c 0,-3.904014 -2.563147,-7.053425 -6,-8.34375 l 0,-0.3125 c 0,-3.602656 -2.985437,-6.53125 -6.59375,-6.53125 l -43.09375,0 -0.875,-1.75 C 36.26366,8.4119848 35.884179,7.5098749 35.1875,6.65625 34.437476,5.737263 33.22926,4.96875 31.71875,4.96875 l -17.75,0 z"
           transform="matrix(0.99653979,0,0,0.99789769,0.16608997,0.04169587)"
           id="path3707-7"
           style="opacity:0.1;fill:url(#linearGradient14071);fill-opacity:1;fill-rule:nonzero;stroke:none;display:inline" />
        <path
           d="M 13.96875,6 C 11.736726,6 9.875,7.7965069 9.875,10.03125 l 0,7.3125 0,0.96875 c -3.4279042,0.950944 -6,3.959493 -6,7.6875 l 0,59 c 0,4.483833 3.6411665,8.125 8.125,8.125 l 72,0 c 4.483833,0 8.125,-3.641167 8.125,-8.125 l 0,-59 c 0,-3.728007 -2.572096,-6.736556 -6,-7.6875 l 0,-0.96875 c 0,-3.037808 -2.505776,-5.5 -5.5625,-5.5 l -43.71875,0 -1.15625,-2.3125 C 35.33448,8.8355471 34.9882,8.0255499 34.40625,7.3125 33.8243,6.5994501 32.873904,6 31.71875,6 l -17.75,0 z"
           transform="matrix(0.99716714,0,0,0.99856528,0.13597734,0.00860832)"
           id="path3698-6"
           style="opacity:0.2;fill:url(#linearGradient14073);fill-opacity:1;fill-rule:nonzero;stroke:none;display:inline" />
        <path
           d="M 13.96875,7.125 C 12.32891,7.125 11,8.4154163 11,10.03125 l 0,7.3125 0,1.75 C 7.602692,19.579354 5,22.464233 5,26 l 0,59 c 0,3.878 3.122,7 7,7 l 72,0 c 3.878,0 7,-3.122 7,-7 l 0,-59 c 0,-3.535767 -2.602692,-6.420646 -6,-6.90625 l 0,-1.75 c 0,-2.42375 -1.97774,-4.375 -4.4375,-4.375 l -44.40625,0 -1.46875,-2.9375 C 33.954141,8.5860044 33.35859,7.125 31.71875,7.125 l -17.75,0 z"
           id="path3679-2"
           style="opacity:0.3;fill:url(#linearGradient14075);fill-opacity:1;fill-rule:nonzero;stroke:none;display:inline" />
        <path
           d="M 14.875,7 C 13.27948,7 12,8.27948 12,9.875 L 12,17.09375 12,19 c -3.324,0 -6,2.676 -6,6 l 0,60 c 0,3.324 2.676,6 6,6 l 72,0 c 3.324,0 6,-2.676 6,-6 l 0,-60 c 0,-3.324 -2.676,-6 -6,-6 l 0,-1.90625 C 84,14.70047 82.08078,12.75 79.6875,12.75 l -43.21875,0 -1.4375,-2.875 C 34.317712,8.4479235 33.75177,7 32.15625,7 L 14.875,7 z"
           id="path2885-2"
           style="opacity:0.45;fill:url(#linearGradient14077);fill-opacity:1;fill-rule:nonzero;stroke:none;display:inline" />
      </g>
      <g
         transform="translate(353.53564,265.19828)"
         id="layer3-8-5"
         style="display:inline">
        <path
           d="M 14.88,6 C 13.28448,6 12,7.28448 12,8.88 l 0,7.2 0,50.4 0,4.32 c 0,2.39328 1.92672,4.32 4.32,4.32 l 63.36,0 c 2.39328,0 4.32,-1.92672 4.32,-4.32 l 0,-54.72 c 0,-2.39328 -1.92672,-4.32 -4.32,-4.32 l -43.2,0 -1.44,-2.88 C 34.326462,7.4529235 33.75552,6 32.16,6 L 14.88,6 z"
           id="rect3325-0"
           style="fill:url(#linearGradient14079);fill-opacity:1;fill-rule:nonzero;stroke:none;display:inline" />
        <path
           d="M 14.875,6 C 13.27948,6 12,7.27948 12,8.875 l 0,7.21875 0,50.375 0,4.34375 c 0,2.393277 1.91922,4.3125 4.3125,4.3125 l 63.375,0 C 82.08078,75.124997 84,73.20578 84,70.8125 L 84,16.09375 C 84,13.70047 82.08078,11.75 79.6875,11.75 l -43.21875,0 -1.4375,-2.875 C 34.317711,7.4479234 33.75177,6 32.15625,6 L 14.875,6 z m 0,1.9375 17.28125,0 c 0.48716,0 0.660447,0.1126732 0.96875,0.5 0.308303,0.3873268 0.629671,1.0718434 1,1.8125 l 1.4375,2.875 c 0.173379,0.341986 0.522842,0.558894 0.90625,0.5625 l 43.21875,0 c 1.835408,0 3.28125,1.468154 3.28125,3.3125 l 0,54.71875 c 0,1.844346 -1.436902,3.281248 -3.28125,3.28125 l -63.375,0 c -1.844346,0 -3.28125,-1.436907 -3.28125,-3.28125 l 0,-4.34375 0,-50.375 0,-7.21875 c 0,-1.0465864 0.797164,-1.84375 1.84375,-1.84375 z"
           id="path3997-2"
           style="opacity:0.3;fill:url(#linearGradient14081);fill-opacity:1;fill-rule:nonzero;stroke:none;display:inline" />
        <rect
           width="75"
           height="62.678574"
           rx="6"
           ry="6"
           x="10.535714"
           y="23.142857"
           id="rect3352-9"
           style="fill:url(#linearGradient14083);fill-opacity:1;fill-rule:nonzero;stroke:none;display:inline" />
      </g>
      <g
         transform="translate(-54.840045,-178.31755)"
         id="flowRoot13241-6"
         style="font-size:14px;font-style:normal;font-weight:normal;fill:url(#linearGradient14091);fill-opacity:1;stroke:none;font-family:Bitstream Vera Sans">
        <path
           d="m 446.88625,492.65046 -4.352,7.488 4.352,0 0,-7.488 m -0.096,15.36 0,-4.64 -8.256,0 0,-3.616 7.744,-12.992 4.672,0 0,13.376 2.4,0 0,3.232 -2.4,0 0,4.64 -4.16,0"
           id="path13250-5"
           style="font-size:32px;font-variant:normal;font-stretch:normal;fill:url(#linearGradient14085);fill-opacity:1;font-family:Coolvetica;-inkscape-font-specification:Coolvetica" />
        <path
           d="m 454.20475,508.01046 0,-21.248 4.448,0 0,21.248 -4.448,0"
           id="path13252-2"
           style="font-size:32px;font-variant:normal;font-stretch:normal;fill:url(#linearGradient14087);fill-opacity:1;font-family:Coolvetica;-inkscape-font-specification:Coolvetica" />
        <path
           d="m 464.52775,499.05046 0,8.96 -4.448,0 0,-21.248 15.136,0 0,3.712 -10.688,0 0,4.832 9.344,0 0,3.744 -9.344,0"
           id="path13254-1"
           style="font-size:32px;font-variant:normal;font-stretch:normal;fill:url(#linearGradient14089);fill-opacity:1;font-family:Coolvetica;-inkscape-font-specification:Coolvetica" />
      </g>
      <g
         transform="translate(-54.764882,-178.35244)"
         id="flowRoot13241"
         style="font-size:14px;font-style:normal;font-weight:normal;opacity:0.35;fill:none;stroke:#552200;stroke-width:1;stroke-miterlimit:4;stroke-opacity:1;stroke-dasharray:none;filter:url(#filter13470);font-family:Bitstream Vera Sans">
        <path
           d="m 446.88625,492.65046 -4.352,7.488 4.352,0 0,-7.488 m -0.096,15.36 0,-4.64 -8.256,0 0,-3.616 7.744,-12.992 4.672,0 0,13.376 2.4,0 0,3.232 -2.4,0 0,4.64 -4.16,0"
           id="path13250"
           style="font-size:32px;font-variant:normal;font-stretch:normal;fill:none;stroke:#552200;stroke-width:1;stroke-miterlimit:4;stroke-opacity:1;stroke-dasharray:none;font-family:Coolvetica;-inkscape-font-specification:Coolvetica" />
        <path
           d="m 454.20475,508.01046 0,-21.248 4.448,0 0,21.248 -4.448,0"
           id="path13252"
           style="font-size:32px;font-variant:normal;font-stretch:normal;fill:none;stroke:#552200;stroke-width:1;stroke-miterlimit:4;stroke-opacity:1;stroke-dasharray:none;font-family:Coolvetica;-inkscape-font-specification:Coolvetica" />
        <path
           d="m 464.52775,499.05046 0,8.96 -4.448,0 0,-21.248 15.136,0 0,3.712 -10.688,0 0,4.832 9.344,0 0,3.744 -9.344,0"
           id="path13254"
           style="font-size:32px;font-variant:normal;font-stretch:normal;fill:none;stroke:#552200;stroke-width:1;stroke-miterlimit:4;stroke-opacity:1;stroke-dasharray:none;font-family:Coolvetica;-inkscape-font-specification:Coolvetica" />
      </g>
      <path
         d="m 365.53125,283.1875 c -3.324,0 -6,2.676 -6,6 l 0,60 c 0,3.324 2.676,6 6,6 l 72,0 c 3.324,0 6,-2.676 6,-6 l 0,-60 c 0,-3.324 -2.676,-6 -6,-6 l -72,0 z m 26.03125,25.1875 4.65625,0 0,13.375 2.40625,0 0,3.25 -2.40625,0 0,4.625 -4.15625,0 0,-4.625 -8.25,0 0,-3.625 7.75,-13 z m 7.90625,0 4.4375,0 0,21.25 -4.4375,0 0,-21.25 z m 5.875,0 15.15625,0 0,3.71875 -10.71875,0 0,4.84375 9.375,0 0,3.75 -9.375,0 0,8.9375 -4.4375,0 0,-21.25 z m -13.1875,5.90625 -4.34375,7.46875 4.34375,0 0,-7.46875 z"
         id="rect2419-2"
         style="fill:url(#linearGradient14093);fill-opacity:1;fill-rule:nonzero;stroke:none" />
      <path
         d="m 365.53564,283.19828 c -3.324,0 -6,2.676 -6,6 l 0,2 0,56 0,2 c 0,0.33472 0.0414,0.6507 0.0937,0.96875 0.0487,0.2956 0.097,0.59692 0.1875,0.875 0.01,0.0304 0.0209,0.0636 0.0312,0.0937 0.0989,0.28777 0.23488,0.54745 0.375,0.8125 0.14459,0.27351 0.31562,0.53562 0.5,0.78125 0.18438,0.24563 0.37378,0.47347 0.59375,0.6875 0.43995,0.42806 0.94291,0.81453 1.5,1.09375 0.27854,0.13961 0.57347,0.24695 0.875,0.34375 -0.2562,-0.10022 -0.48671,-0.23627 -0.71875,-0.375 -0.007,-0.004 -0.0239,0.005 -0.0312,0 -0.0319,-0.0193 -0.0623,-0.0425 -0.0937,-0.0625 -0.12039,-0.0767 -0.23102,-0.16351 -0.34375,-0.25 -0.10617,-0.0808 -0.21328,-0.16111 -0.3125,-0.25 -0.17793,-0.16143 -0.34746,-0.34539 -0.5,-0.53125 -0.10758,-0.13025 -0.21839,-0.26529 -0.3125,-0.40625 -0.0251,-0.0384 -0.0385,-0.0859 -0.0625,-0.125 -0.0648,-0.10303 -0.13023,-0.20452 -0.1875,-0.3125 -0.10101,-0.19471 -0.20567,-0.4157 -0.28125,-0.625 -0.008,-0.0218 -0.0236,-0.0405 -0.0312,-0.0625 -0.0318,-0.0919 -0.0358,-0.18683 -0.0625,-0.28125 -0.0303,-0.10662 -0.0704,-0.20303 -0.0937,-0.3125 -0.0729,-0.34151 -0.125,-0.6982 -0.125,-1.0625 l 0,-2 0,-56 0,-2 c 0,-2.78185 2.21815,-5 5,-5 l 2,0 68,0 2,0 c 2.78185,0 5,2.21815 5,5 l 0,2 0,56 0,2 c 0,0.3643 -0.0521,0.72099 -0.125,1.0625 -0.0442,0.20689 -0.0884,0.39766 -0.15625,0.59375 -0.008,0.022 -0.0233,0.0407 -0.0312,0.0625 -0.0627,0.17374 -0.13838,0.36745 -0.21875,0.53125 -0.0416,0.0828 -0.079,0.16995 -0.125,0.25 -0.0546,0.0972 -0.12677,0.18835 -0.1875,0.28125 -0.0941,0.14096 -0.20492,0.276 -0.3125,0.40625 -0.14317,0.17445 -0.30314,0.347 -0.46875,0.5 -0.0112,0.0102 -0.02,0.0211 -0.0312,0.0312 -0.13839,0.12556 -0.28509,0.23444 -0.4375,0.34375 -0.10257,0.0731 -0.20432,0.15336 -0.3125,0.21875 -0.007,0.005 -0.0238,-0.004 -0.0312,0 -0.23204,0.13873 -0.46255,0.27478 -0.71875,0.375 0.30153,-0.0968 0.59645,-0.20414 0.875,-0.34375 0.55709,-0.27922 1.06005,-0.66569 1.5,-1.09375 0.21997,-0.21403 0.40937,-0.44187 0.59375,-0.6875 0.18438,-0.24563 0.35541,-0.50774 0.5,-0.78125 0.14012,-0.26505 0.27613,-0.52473 0.375,-0.8125 0.0104,-0.0308 0.0213,-0.0627 0.0312,-0.0937 0.0905,-0.27808 0.1388,-0.5794 0.1875,-0.875 0.0524,-0.31805 0.0937,-0.63403 0.0937,-0.96875 l 0,-2 0,-56 0,-2 c 0,-3.324 -2.676,-6 -6,-6 l -72,0 z"
         id="rect3728-4-7"
         style="opacity:0.5;fill:url(#linearGradient14095);fill-opacity:1;fill-rule:nonzero;stroke:none" />
      <g
         transform="translate(-54.921305,-178.28688)"
         id="flowRoot13241-6-9"
         style="font-size:14px;font-style:normal;font-weight:normal;fill:url(#linearGradient14103);fill-opacity:1;stroke:none;filter:url(#filter14027);font-family:Bitstream Vera Sans">
        <path
           d="m 446.88625,492.65046 -4.352,7.488 4.352,0 0,-7.488 m -0.096,15.36 0,-4.64 -8.256,0 0,-3.616 7.744,-12.992 4.672,0 0,13.376 2.4,0 0,3.232 -2.4,0 0,4.64 -4.16,0"
           id="path13250-5-6"
           style="font-size:32px;font-variant:normal;font-stretch:normal;fill:url(#linearGradient14097);fill-opacity:1;font-family:Coolvetica;-inkscape-font-specification:Coolvetica" />
        <path
           d="m 454.20475,508.01046 0,-21.248 4.448,0 0,21.248 -4.448,0"
           id="path13252-2-3"
           style="font-size:32px;font-variant:normal;font-stretch:normal;fill:url(#linearGradient14099);fill-opacity:1;font-family:Coolvetica;-inkscape-font-specification:Coolvetica" />
        <path
           d="m 464.52775,499.05046 0,8.96 -4.448,0 0,-21.248 15.136,0 0,3.712 -10.688,0 0,4.832 9.344,0 0,3.744 -9.344,0"
           id="path13254-1-1"
           style="font-size:32px;font-variant:normal;font-stretch:normal;fill:url(#linearGradient14101);fill-opacity:1;font-family:Coolvetica;-inkscape-font-specification:Coolvetica" />
      </g>
      <rect
         width="54.464287"
         height="34.82143"
         rx="9"
         ry="9"
         x="13.306199"
         y="13.887781"
         transform="matrix(0.8917533,0,0,0.92600293,365.66979,284.33815)"
         id="rect2399-1"
         style="opacity:0.15;fill:#fff9dc;fill-opacity:1;fill-rule:nonzero;stroke:none;filter:url(#filter3179-0)" />
      <path
         d="m 365.53564,355.19828 c -3.324,0 -6,-2.676 -6,-6 l 0,-2 0,-56 0,-2 c 0,-0.33472 0.0414,-0.6507 0.0937,-0.96875 0.0487,-0.2956 0.097,-0.59692 0.1875,-0.875 0.01,-0.0304 0.0209,-0.0636 0.0312,-0.0937 0.0989,-0.28777 0.23488,-0.54745 0.375,-0.8125 0.14459,-0.27351 0.31562,-0.53562 0.5,-0.78125 0.18438,-0.24563 0.37378,-0.47347 0.59375,-0.6875 0.43995,-0.42806 0.94291,-0.81453 1.5,-1.09375 0.27854,-0.13961 0.57347,-0.24695 0.875,-0.34375 -0.2562,0.10022 -0.48671,0.23627 -0.71875,0.375 -0.007,0.004 -0.0239,-0.005 -0.0312,0 -0.0319,0.0193 -0.0623,0.0425 -0.0937,0.0625 -0.12039,0.0767 -0.23102,0.16351 -0.34375,0.25 -0.10617,0.0808 -0.21328,0.16111 -0.3125,0.25 -0.17793,0.16143 -0.34746,0.34539 -0.5,0.53125 -0.10758,0.13025 -0.21839,0.26529 -0.3125,0.40625 -0.0251,0.0384 -0.0385,0.0859 -0.0625,0.125 -0.0648,0.10303 -0.13023,0.20452 -0.1875,0.3125 -0.10101,0.19471 -0.20567,0.4157 -0.28125,0.625 -0.008,0.0218 -0.0236,0.0405 -0.0312,0.0625 -0.0318,0.0919 -0.0358,0.18683 -0.0625,0.28125 -0.0303,0.10662 -0.0704,0.20303 -0.0937,0.3125 -0.0729,0.34151 -0.125,0.6982 -0.125,1.0625 l 0,2 0,56 0,2 c 0,2.78185 2.21815,5 5,5 l 2,0 68,0 2,0 c 2.78185,0 5,-2.21815 5,-5 l 0,-2 0,-56 0,-2 c 0,-0.3643 -0.0521,-0.72099 -0.125,-1.0625 -0.0442,-0.20689 -0.0884,-0.39766 -0.15625,-0.59375 -0.008,-0.022 -0.0233,-0.0407 -0.0312,-0.0625 -0.0627,-0.17374 -0.13838,-0.36745 -0.21875,-0.53125 -0.0416,-0.0828 -0.079,-0.16995 -0.125,-0.25 -0.0546,-0.0972 -0.12677,-0.18835 -0.1875,-0.28125 -0.0941,-0.14096 -0.20492,-0.276 -0.3125,-0.40625 -0.14317,-0.17445 -0.30314,-0.347 -0.46875,-0.5 -0.0112,-0.0102 -0.02,-0.0212 -0.0312,-0.0312 -0.13839,-0.12556 -0.28509,-0.23444 -0.4375,-0.34375 -0.10257,-0.0731 -0.20432,-0.15336 -0.3125,-0.21875 -0.007,-0.005 -0.0238,0.004 -0.0312,0 -0.23204,-0.13873 -0.46255,-0.27478 -0.71875,-0.375 0.30153,0.0968 0.59645,0.20414 0.875,0.34375 0.55709,0.27922 1.06005,0.66569 1.5,1.09375 0.21997,0.21403 0.40937,0.44187 0.59375,0.6875 0.18438,0.24563 0.35541,0.50774 0.5,0.78125 0.14012,0.26505 0.27613,0.52473 0.375,0.8125 0.0104,0.0308 0.0213,0.0627 0.0312,0.0937 0.0905,0.27808 0.1388,0.5794 0.1875,0.875 0.0524,0.31805 0.0937,0.63403 0.0937,0.96875 l 0,2 0,56 0,2 c 0,3.324 -2.676,6 -6,6 l -72,0 z"
         id="path3615-1-6"
         style="opacity:0.2;fill:url(#radialGradient14267);fill-opacity:1;fill-rule:nonzero;stroke:none" />
    </g>
  </g>
</svg>
