<?xml version="1.0" encoding="UTF-8" standalone="no"?>
<!-- Created with Inkscape (http://www.inkscape.org/) -->

<svg
   xmlns:dc="http://purl.org/dc/elements/1.1/"
   xmlns:cc="http://creativecommons.org/ns#"
   xmlns:rdf="http://www.w3.org/1999/02/22-rdf-syntax-ns#"
   xmlns:svg="http://www.w3.org/2000/svg"
   xmlns="http://www.w3.org/2000/svg"
   xmlns:xlink="http://www.w3.org/1999/xlink"
   xmlns:sodipodi="http://sodipodi.sourceforge.net/DTD/sodipodi-0.dtd"
   xmlns:inkscape="http://www.inkscape.org/namespaces/inkscape"
   version="1.0"
   width="96"
   height="96"
   id="svg2408"
   inkscape:version="0.48.0 r9654"
   sodipodi:docname="user-home.svg">
  <sodipodi:namedview
     pagecolor="#ffffff"
     bordercolor="#666666"
     borderopacity="1"
     objecttolerance="10"
     gridtolerance="10"
     guidetolerance="10"
     inkscape:pageopacity="0"
     inkscape:pageshadow="2"
     inkscape:window-width="1023"
     inkscape:window-height="581"
     id="namedview75"
     showgrid="false"
     inkscape:zoom="1.2291667"
     inkscape:cx="-7.2947893"
     inkscape:cy="21.423458"
     inkscape:window-x="1"
     inkscape:window-y="0"
     inkscape:window-maximized="1"
     inkscape:current-layer="svg2408" />
  <defs
     id="defs2410">
    <linearGradient
       gradientTransform="scale(1.0598527,0.9435274)"
       gradientUnits="userSpaceOnUse"
       id="linearGradient3844"
       y2="20.137329"
       x2="11.794092"
       y1="3.2126782"
       x1="11.794092">
      <stop
         offset="0"
         style="stop-color:#c6953a;stop-opacity:1"
         id="stop3846" />
      <stop
         offset="1"
         style="stop-color:#ab7a1f;stop-opacity:0"
         id="stop3848" />
    </linearGradient>
    <linearGradient
       id="linearGradient3658">
      <stop
         id="stop3660"
         style="stop-color:#b38229;stop-opacity:1"
         offset="0" />
      <stop
         id="stop3662"
         style="stop-color:#ab791d;stop-opacity:0.47058824"
         offset="1" />
    </linearGradient>
    <linearGradient
       x1="11.794092"
       y1="3.2126782"
       x2="11.794092"
       y2="20.137329"
       id="linearGradient3317"
       gradientUnits="userSpaceOnUse"
       gradientTransform="scale(1.0598527,0.9435274)">
      <stop
         id="stop3319"
         style="stop-color:#c6953a;stop-opacity:1"
         offset="0" />
      <stop
         id="stop3321"
         style="stop-color:#ab7a1f;stop-opacity:1"
         offset="1" />
    </linearGradient>
    <linearGradient
       id="linearGradient3348">
      <stop
         id="stop3350"
         style="stop-color:#e0c693;stop-opacity:1"
         offset="0" />
      <stop
         id="stop3356"
         style="stop-color:#c0984f;stop-opacity:1"
         offset="0.71691591" />
      <stop
         id="stop3352"
         style="stop-color:#a67315;stop-opacity:1"
         offset="1" />
    </linearGradient>
    <linearGradient
       id="linearGradient3187">
      <stop
         id="stop3189"
         style="stop-color:#c6953a;stop-opacity:1"
         offset="0" />
      <stop
         id="stop3191"
         style="stop-color:#dec18c;stop-opacity:1"
         offset="1" />
    </linearGradient>
    <linearGradient
       x1="45.447727"
       y1="80.471962"
       x2="45.447727"
       y2="7.0165396"
       id="ButtonShadow"
       gradientUnits="userSpaceOnUse"
       gradientTransform="matrix(1.0058652,0,0,0.994169,0,12)">
      <stop
         id="stop3750"
         style="stop-color:#000000;stop-opacity:1"
         offset="0" />
      <stop
         id="stop3752"
         style="stop-color:#000000;stop-opacity:0.58823532"
         offset="1" />
    </linearGradient>
    <linearGradient
       id="linearGradient3737">
      <stop
         id="stop3739"
         style="stop-color:#ffffff;stop-opacity:1"
         offset="0" />
      <stop
         id="stop3741"
         style="stop-color:#ffffff;stop-opacity:0"
         offset="1" />
    </linearGradient>
    <linearGradient
       x1="48"
       y1="78"
       x2="48"
       y2="5.9877172"
       id="linearGradient3706"
       xlink:href="#linearGradient3187"
       gradientUnits="userSpaceOnUse"
       gradientTransform="translate(0,12)" />
    <filter
       color-interpolation-filters="sRGB"
       id="filter3174">
      <feGaussianBlur
         id="feGaussianBlur3176"
         stdDeviation="1.71" />
    </filter>
    <linearGradient
       x1="36.357143"
       y1="18"
       x2="36.357143"
       y2="73.994667"
       id="linearGradient3188"
       xlink:href="#linearGradient3737"
       gradientUnits="userSpaceOnUse" />
    <linearGradient
       x1="23.607143"
       y1="6"
       x2="23.607143"
       y2="58.466385"
       id="linearGradient4010"
       xlink:href="#linearGradient3737"
       gradientUnits="userSpaceOnUse" />
    <linearGradient
       x1="45.447727"
       y1="80.471962"
       x2="45.447727"
       y2="5.297224"
       id="linearGradient4018"
       xlink:href="#ButtonShadow"
       gradientUnits="userSpaceOnUse"
       gradientTransform="matrix(1.0058652,0,0,0.994169,0,12)" />
    <linearGradient
       x1="34.85965"
       y1="17.736111"
       x2="34.85965"
       y2="32.012737"
       id="linearGradient4023"
       xlink:href="#linearGradient3348"
       gradientUnits="userSpaceOnUse"
       gradientTransform="matrix(0.72,0,0,0.72,1.92,-5.52)" />
    <linearGradient
       id="linearGradient3737-5">
      <stop
         id="stop3739-0"
         style="stop-color:#ffffff;stop-opacity:1"
         offset="0" />
      <stop
         id="stop3741-4"
         style="stop-color:#ffffff;stop-opacity:0"
         offset="1" />
    </linearGradient>
    <radialGradient
       cx="48"
       cy="90.171875"
       r="42"
       fx="48"
       fy="90.171875"
       id="radialGradient3681"
       xlink:href="#linearGradient3737-5"
       gradientUnits="userSpaceOnUse"
       gradientTransform="matrix(1.1573129,0,0,0.99590774,-7.551021,0.197132)" />
    <linearGradient
       x1="48.035713"
       y1="25.910715"
       x2="48.035713"
       y2="85.821426"
       id="linearGradient3680"
       xlink:href="#linearGradient3317"
       gradientUnits="userSpaceOnUse"
       gradientTransform="translate(-100,80)" />
    <linearGradient
       x1="47"
       y1="76"
       x2="47"
       y2="33.086185"
       id="linearGradient3664"
       xlink:href="#linearGradient3658"
       gradientUnits="userSpaceOnUse" />
    <clipPath
       id="clipPath3668">
      <path
         d="m 48,33.268293 -24,24.083623 5.920127,0 0,18.648084 36.200724,0 0,-18.731707 5.879149,0 -10.536585,-10.620209 0,-8.111499 -5.351916,0 0,2.843206 L 48,33.268293 z"
         inkscape:connector-curvature="0"
         id="path3670"
         style="opacity:0.9;fill:url(#linearGradient3672);fill-opacity:1;stroke:none;display:inline" />
    </clipPath>
    <linearGradient
       x1="47"
       y1="76"
       x2="47"
       y2="33.086185"
       id="linearGradient3672"
       xlink:href="#linearGradient3658"
       gradientUnits="userSpaceOnUse" />
    <filter
       color-interpolation-filters="sRGB"
       id="filter3674">
      <feGaussianBlur
         id="feGaussianBlur3676"
         stdDeviation="0.45365853" />
    </filter>
    <clipPath
       id="clipPath3690">
      <path
         d="m 77.375,23.75 c -3.324,0 -6,2.676 -6,6 l 0,49.25 c 0,3.324 2.676,6 6,6 l 59.875,0 c 3.324,0 6,-2.676 6,-6 l 0,-49.25 c 0,-3.324 -2.676,-6 -6,-6 l -59.875,0 z m 30.625,9.53125 8.125,8.09375 0,-2.84375 5.34375,0 0,8.125 10.53125,10.625 -5.875,0 0,18.71875 -36.21875,0 0,-18.65625 -5.90625,0 24,-24.0625 z"
         inkscape:connector-curvature="0"
         id="path3692"
         style="opacity:0.35;fill:#ff00ff;stroke:none" />
    </clipPath>
    <filter
       color-interpolation-filters="sRGB"
       id="filter3694">
      <feGaussianBlur
         id="feGaussianBlur3696"
         stdDeviation="0.6804878" />
    </filter>
    <linearGradient
       x1="26.5"
       y1="90.312759"
       x2="26.5"
       y2="6.9171443"
       id="linearGradient3671"
       xlink:href="#ButtonShadow-1"
       gradientUnits="userSpaceOnUse" />
    <linearGradient
       x1="45.447727"
       y1="80.471962"
       x2="45.447727"
       y2="7.0165396"
       id="ButtonShadow-1"
       gradientUnits="userSpaceOnUse"
       gradientTransform="matrix(1.0058652,0,0,0.994169,0,12)">
      <stop
         id="stop3750-2"
         style="stop-color:#000000;stop-opacity:1"
         offset="0" />
      <stop
         id="stop3752-0"
         style="stop-color:#000000;stop-opacity:0.58823532"
         offset="1" />
    </linearGradient>
    <linearGradient
       x1="26.5"
       y1="90.312759"
       x2="26.5"
       y2="6.9171443"
       id="linearGradient3692"
       xlink:href="#ButtonShadow-1"
       gradientUnits="userSpaceOnUse"
       gradientTransform="matrix(1.0277778,0,0,1.0127315,-1.333333,0.03087956)" />
    <linearGradient
       x1="26.5"
       y1="90.312759"
       x2="26.5"
       y2="6.9171443"
       id="linearGradient3701"
       xlink:href="#ButtonShadow-1"
       gradientUnits="userSpaceOnUse"
       gradientTransform="matrix(1.0277778,0,0,1.0127315,-1.333333,0.03087963)" />
    <linearGradient
       x1="26.5"
       y1="90.312759"
       x2="26.5"
       y2="6.9171443"
       id="linearGradient3709"
       xlink:href="#ButtonShadow-1"
       gradientUnits="userSpaceOnUse"
       gradientTransform="matrix(1.0277778,0,0,1.0127315,-1.333333,0.03087963)" />
    <linearGradient
       x1="26.5"
       y1="90.312759"
       x2="26.5"
       y2="6.9171443"
       id="linearGradient2946"
       xlink:href="#ButtonShadow-1"
       gradientUnits="userSpaceOnUse"
       gradientTransform="matrix(1.0277778,0,0,1.0127315,-1.333333,0.03087963)" />
    <linearGradient
       inkscape:collect="always"
       xlink:href="#linearGradient3317"
       id="linearGradient3055"
       gradientUnits="userSpaceOnUse"
       gradientTransform="translate(-116.27119,16.542373)"
       x1="48.035713"
       y1="25.910715"
       x2="48.035713"
       y2="85.821426" />
    <linearGradient
       inkscape:collect="always"
       xlink:href="#linearGradient3658"
       id="linearGradient3842"
       x1="66.251282"
       y1="74.91024"
       x2="66.417191"
       y2="39.530922"
       gradientUnits="userSpaceOnUse"
       gradientTransform="translate(0.57527329,-0.28763676)" />
    <linearGradient
       x1="48"
       y1="78"
       x2="48"
       y2="5.9877172"
       id="linearGradient3706-9"
       xlink:href="#linearGradient3187-5"
       gradientUnits="userSpaceOnUse"
       gradientTransform="translate(0,12)" />
    <linearGradient
       id="linearGradient3187-5">
      <stop
         id="stop3189-0"
         style="stop-color:#c6953a;stop-opacity:1"
         offset="0" />
      <stop
         id="stop3191-2"
         style="stop-color:#dec18c;stop-opacity:1"
         offset="1" />
    </linearGradient>
    <linearGradient
       y2="5.9877172"
       x2="48"
       y1="78"
       x1="48"
       gradientTransform="translate(0.03532189,12.005048)"
       gradientUnits="userSpaceOnUse"
       id="linearGradient3868"
       xlink:href="#linearGradient3187-5"
       inkscape:collect="always" />
    <filter
       inkscape:collect="always"
       id="filter3894">
      <feGaussianBlur
         inkscape:collect="always"
         stdDeviation="0.5736716"
         id="feGaussianBlur3896" />
    </filter>
    <filter
       inkscape:collect="always"
       id="filter3999">
      <feGaussianBlur
         inkscape:collect="always"
         stdDeviation="0.5463539"
         id="feGaussianBlur4001" />
    </filter>
    <mask
       maskUnits="userSpaceOnUse"
       id="mask4032">
      <path
         sodipodi:nodetypes="cccccccscscccsccccccsccccccccc"
         id="path4034"
         d="m -139.08531,121.0051 -12.13989,3.94781 5.80468,3.97121 -1.71644,0.8036 -8.07505,-3.08178 -17.26579,5.28974 18.4985,4.46274 c -0.0614,1.97324 -0.10979,4.31511 -0.10142,6.80333 0.0297,8.83128 11.17209,8.15064 14.90959,14.09818 3.54389,-5.38821 24.18414,-5.64379 24.06912,-14.5663 -0.0642,-4.97904 -0.0924,-6.69682 -0.10923,-7.70056 l 15.635167,-9.15953 z m -18.00998,3.09466 c -2.15899,0.0128 -6.57347,1.56907 -6.46562,4.30974 l 0.99058,-0.41378 c -0.13955,-2.10958 5.29861,-4.15736 8.10731,-1.69307 2.47417,0.96873 6.58115,2.62837 7.36507,2.86333 0.37547,-0.21419 0.36651,-0.2449 0.68658,-0.42911 -1.18509,-1.19897 -5.53941,-3.51869 -5.53941,-3.51869 -1.59406,-0.90344 -3.84912,-1.12611 -5.14451,-1.11842 z m -5.03708,10.94111 c 1.37938,5.58233 3.02189,14.40185 -1.06806,15.53483 -0.10958,-0.99307 -1.92998,-0.98642 -1.9739,0 -0.72816,-1.53136 -6.55367,-2.48103 -6.55367,-2.48103 -2.70997,0.40972 2.30983,3.32908 0.24966,3.78397 0,0 4.91186,1.11673 6.32741,-0.70218 0.13433,1.21941 2.00339,1.00085 1.9505,0.0546 4.41098,-0.90803 3.61894,-10.8944 1.94968,-15.96394 z"
         style="opacity:0.4;fill:none;stroke:#f9cc45;stroke-opacity:1;filter:url(#filter3999)"
         inkscape:connector-curvature="0" />
    </mask>
  </defs>
  <metadata
     id="metadata2413">
    <rdf:RDF>
      <cc:Work
         rdf:about="">
        <dc:format>image/svg+xml</dc:format>
        <dc:type
           rdf:resource="http://purl.org/dc/dcmitype/StillImage" />
      </cc:Work>
    </rdf:RDF>
  </metadata>
  <g
     id="layer2"
     style="display:none">
    <path
       d="M 14.96875,8.8028918 C 13.32891,8.8028918 12,10.085142 12,11.677892 L 12,19 c -3.324,0 -7,2.676 -7,6 l 0,61 c 0,3.324 2.676,6 6,6 l 74,0 c 3.324,0 6,-2.676 6,-6 l 0,-61 c 0,-3.324 -3.747429,-6 -7.071429,-6 l 0,-0.134608 c 0,-2.389125 -1.97774,-4.3125 -4.4375,-4.3125 l -43.334821,0 -1.46875,-2.875 C 33.954141,10.253293 33.35859,8.8028918 31.71875,8.8028918 l -16.75,0 z"
       inkscape:connector-curvature="0"
       id="rect3745"
       style="opacity:0.9;fill:url(#linearGradient4018);fill-opacity:1;fill-rule:nonzero;stroke:none;filter:url(#filter3174)" />
  </g>
  <g
     id="layer5"
     style="display:inline">
    <path
       d="M 13.96875,4 C 10.667823,4 7.875,6.6931198 7.875,10.03125 l 0,7.0625 c -3.4360632,1.560695 -6,4.840711 -6,8.90625 l 0,59 c 0,5.561299 4.5637001,10.125 10.125,10.125 l 72,0 c 5.561299,0 10.125,-4.563701 10.125,-10.125 l 0,-59 c 0,-4.090756 -2.593768,-7.389362 -6.0625,-8.9375 -0.160383,-3.993445 -3.473555,-7.21875 -7.5,-7.21875 l -42.5,0 L 37.4375,8.625 C 37.135051,8.028958 36.735432,7.0401877 35.9375,6.0625 35.034313,4.9558457 33.554045,4 31.71875,4 l -17.75,0 z"
       transform="matrix(0.99728997,0,0,0.99862826,0.13008131,0.00548696)"
       id="path3715"
       style="opacity:0.07999998;fill:url(#linearGradient2946);fill-opacity:1;fill-rule:nonzero;stroke:none;display:inline" />
    <path
       d="m 13.96875,4.96875 c -2.783187,0 -5.125,2.2572798 -5.125,5.0625 l 0,7.3125 0,0.3125 c -3.4368535,1.290325 -6,4.439736 -6,8.34375 l 0,59 c 0,5.039918 4.1163315,9.15625 9.15625,9.15625 l 72,0 c 5.039918,0 9.15625,-4.116332 9.15625,-9.15625 l 0,-59 c 0,-3.904014 -2.563147,-7.053425 -6,-8.34375 l 0,-0.3125 c 0,-3.602656 -2.985437,-6.53125 -6.59375,-6.53125 l -43.09375,0 -0.875,-1.75 C 36.26366,8.4119848 35.884179,7.5098749 35.1875,6.65625 34.437476,5.737263 33.22926,4.96875 31.71875,4.96875 l -17.75,0 z"
       transform="matrix(0.99653979,0,0,0.99789769,0.16609001,0.04169586)"
       id="path3707"
       style="opacity:0.1;fill:url(#linearGradient3709);fill-opacity:1;fill-rule:nonzero;stroke:none;display:inline" />
    <path
       d="M 13.96875,6 C 11.736726,6 9.875,7.7965069 9.875,10.03125 l 0,7.3125 0,0.96875 c -3.4279042,0.950944 -6,3.959493 -6,7.6875 l 0,59 c 0,4.483833 3.6411665,8.125 8.125,8.125 l 72,0 c 4.483833,0 8.125,-3.641167 8.125,-8.125 l 0,-59 c 0,-3.728007 -2.572096,-6.736556 -6,-7.6875 l 0,-0.96875 c 0,-3.037808 -2.505776,-5.5 -5.5625,-5.5 l -43.71875,0 -1.15625,-2.3125 C 35.33448,8.8355471 34.9882,8.0255499 34.40625,7.3125 33.8243,6.5994501 32.873904,6 31.71875,6 l -17.75,0 z"
       transform="matrix(0.99716714,0,0,0.99856528,0.13597731,0.00860826)"
       id="path3698"
       style="opacity:0.2;fill:url(#linearGradient3701);fill-opacity:1;fill-rule:nonzero;stroke:none;display:inline" />
    <path
       d="M 13.96875,7.125 C 12.32891,7.125 11,8.4154163 11,10.03125 l 0,7.3125 0,1.75 C 7.602692,19.579354 5,22.464233 5,26 l 0,59 c 0,3.878 3.122,7 7,7 l 72,0 c 3.878,0 7,-3.122 7,-7 l 0,-59 c 0,-3.535767 -2.602692,-6.420646 -6,-6.90625 l 0,-1.75 c 0,-2.42375 -1.97774,-4.375 -4.4375,-4.375 l -44.40625,0 -1.46875,-2.9375 C 33.954141,8.5860044 33.35859,7.125 31.71875,7.125 l -17.75,0 z"
       inkscape:connector-curvature="0"
       id="path3679"
       style="opacity:0.3;fill:url(#linearGradient3692);fill-opacity:1;fill-rule:nonzero;stroke:none;display:inline" />
    <path
       d="M 14.875,7 C 13.27948,7 12,8.27948 12,9.875 L 12,17.09375 12,19 c -3.324,0 -6,2.676 -6,6 l 0,60 c 0,3.324 2.676,6 6,6 l 72,0 c 3.324,0 6,-2.676 6,-6 l 0,-60 c 0,-3.324 -2.676,-6 -6,-6 l 0,-1.90625 C 84,14.70047 82.08078,12.75 79.6875,12.75 l -43.21875,0 -1.4375,-2.875 C 34.317712,8.4479235 33.75177,7 32.15625,7 L 14.875,7 z"
       inkscape:connector-curvature="0"
       id="path2885"
       style="opacity:0.45;fill:url(#linearGradient3671);fill-opacity:1;fill-rule:nonzero;stroke:none;display:inline" />
  </g>
  <g
     id="layer3"
     style="display:inline">
    <path
       d="M 14.88,6 C 13.28448,6 12,7.28448 12,8.88 l 0,7.2 0,50.4 0,4.32 c 0,2.39328 1.92672,4.32 4.32,4.32 l 63.36,0 c 2.39328,0 4.32,-1.92672 4.32,-4.32 l 0,-54.72 c 0,-2.39328 -1.92672,-4.32 -4.32,-4.32 l -43.2,0 -1.44,-2.88 C 34.326462,7.4529235 33.75552,6 32.16,6 L 14.88,6 z"
       inkscape:connector-curvature="0"
       id="rect3325"
       style="fill:url(#linearGradient4023);fill-opacity:1;fill-rule:nonzero;stroke:none;display:inline" />
    <path
       d="M 14.875,6 C 13.27948,6 12,7.27948 12,8.875 l 0,7.21875 0,50.375 0,4.34375 c 0,2.393277 1.91922,4.3125 4.3125,4.3125 l 63.375,0 C 82.08078,75.124997 84,73.20578 84,70.8125 L 84,16.09375 C 84,13.70047 82.08078,11.75 79.6875,11.75 l -43.21875,0 -1.4375,-2.875 C 34.317711,7.4479234 33.75177,6 32.15625,6 L 14.875,6 z m 0,1.9375 17.28125,0 c 0.48716,0 0.660447,0.1126732 0.96875,0.5 0.308303,0.3873268 0.629671,1.0718434 1,1.8125 l 1.4375,2.875 c 0.173379,0.341986 0.522842,0.558894 0.90625,0.5625 l 43.21875,0 c 1.835408,0 3.28125,1.468154 3.28125,3.3125 l 0,54.71875 c 0,1.844346 -1.436902,3.281248 -3.28125,3.28125 l -63.375,0 c -1.844346,0 -3.28125,-1.436907 -3.28125,-3.28125 l 0,-4.34375 0,-50.375 0,-7.21875 c 0,-1.0465864 0.797164,-1.84375 1.84375,-1.84375 z"
       inkscape:connector-curvature="0"
       id="path3997"
       style="opacity:0.3;fill:url(#linearGradient4010);fill-opacity:1;fill-rule:nonzero;stroke:none;display:inline" />
  </g>
  <g
     id="layer1">
    <path
       d="m 12,18 c -3.324,0 -6,2.676 -6,6 l 0,60 c 0,3.324 2.676,6 6,6 l 72,0 c 3.324,0 6,-2.676 6,-6 l 0,-60 c 0,-3.324 -2.676,-6 -6,-6 l -72,0 z"
       inkscape:connector-curvature="0"
       id="rect2419"
       style="fill:url(#linearGradient3706);fill-opacity:1;fill-rule:nonzero;stroke:none" />
    <path
       d="m 12,18 c -3.324,0 -6,2.676 -6,6 l 0,2 0,56 0,2 c 0,0.334721 0.04135,0.6507 0.09375,0.96875 0.0487,0.295596 0.09704,0.596915 0.1875,0.875 0.00988,0.03038 0.020892,0.0636 0.03125,0.09375 0.098865,0.287771 0.2348802,0.547452 0.375,0.8125 0.1445918,0.273507 0.3156161,0.535615 0.5,0.78125 0.1843839,0.245635 0.3737765,0.473472 0.59375,0.6875 0.439947,0.428056 0.94291,0.814526 1.5,1.09375 0.278545,0.139612 0.5734731,0.246947 0.875,0.34375 -0.2562018,-0.100222 -0.4867109,-0.236272 -0.71875,-0.375 -0.00741,-0.0044 -0.023866,0.0045 -0.03125,0 -0.031933,-0.0193 -0.062293,-0.04251 -0.09375,-0.0625 -0.120395,-0.0767 -0.2310226,-0.163513 -0.34375,-0.25 -0.1061728,-0.0808 -0.2132809,-0.161112 -0.3125,-0.25 C 8.4783201,88.557317 8.3087904,88.373362 8.15625,88.1875 8.0486711,88.057245 7.9378561,87.922215 7.84375,87.78125 7.818661,87.74287 7.805304,87.69538 7.78125,87.65625 7.716487,87.553218 7.6510225,87.451733 7.59375,87.34375 7.4927417,87.149044 7.3880752,86.928049 7.3125,86.71875 7.30454,86.69694 7.288911,86.6782 7.28125,86.65625 7.2494249,86.5643 7.2454455,86.469419 7.21875,86.375 7.1884177,86.268382 7.1483606,86.171969 7.125,86.0625 7.0521214,85.720988 7,85.364295 7,85 L 7,83 7,27 7,25 c 0,-2.781848 2.2181517,-5 5,-5 l 2,0 68,0 2,0 c 2.781848,0 5,2.218152 5,5 l 0,2 0,56 0,2 c 0,0.364295 -0.05212,0.720988 -0.125,1.0625 -0.04415,0.206893 -0.08838,0.397658 -0.15625,0.59375 -0.0077,0.02195 -0.0233,0.04069 -0.03125,0.0625 -0.06274,0.173739 -0.138383,0.367449 -0.21875,0.53125 -0.04158,0.0828 -0.07904,0.169954 -0.125,0.25 -0.0546,0.09721 -0.126774,0.18835 -0.1875,0.28125 -0.09411,0.140965 -0.204921,0.275995 -0.3125,0.40625 -0.143174,0.17445 -0.303141,0.346998 -0.46875,0.5 -0.01117,0.0102 -0.01998,0.02115 -0.03125,0.03125 -0.138386,0.125556 -0.285091,0.234436 -0.4375,0.34375 -0.102571,0.07315 -0.204318,0.153364 -0.3125,0.21875 -0.0074,0.0045 -0.02384,-0.0044 -0.03125,0 -0.232039,0.138728 -0.462548,0.274778 -0.71875,0.375 0.301527,-0.0968 0.596455,-0.204138 0.875,-0.34375 0.55709,-0.279224 1.060053,-0.665694 1.5,-1.09375 0.219973,-0.214028 0.409366,-0.441865 0.59375,-0.6875 0.184384,-0.245635 0.355408,-0.507743 0.5,-0.78125 0.14012,-0.265048 0.276135,-0.524729 0.375,-0.8125 0.01041,-0.03078 0.02133,-0.06274 0.03125,-0.09375 0.09046,-0.278085 0.1388,-0.579404 0.1875,-0.875 C 89.95865,84.6507 90,84.334721 90,84 l 0,-2 0,-56 0,-2 c 0,-3.324 -2.676,-6 -6,-6 l -72,0 z"
       inkscape:connector-curvature="0"
       id="rect3728"
       style="opacity:0.5;fill:url(#linearGradient3188);fill-opacity:1;fill-rule:nonzero;stroke:none" />
    <path
       d="M 12,90 C 8.676,90 6,87.324 6,84 L 6,82 6,26 6,24 c 0,-0.334721 0.04135,-0.6507 0.09375,-0.96875 0.0487,-0.295596 0.09704,-0.596915 0.1875,-0.875 0.00988,-0.03038 0.020892,-0.0636 0.03125,-0.09375 0.098865,-0.287771 0.2348802,-0.547452 0.375,-0.8125 0.1445918,-0.273507 0.3156161,-0.535615 0.5,-0.78125 0.1843839,-0.245635 0.3737765,-0.473472 0.59375,-0.6875 0.439947,-0.428056 0.94291,-0.814526 1.5,-1.09375 0.278545,-0.139612 0.5734731,-0.246947 0.875,-0.34375 -0.2562018,0.100222 -0.4867109,0.236272 -0.71875,0.375 -0.00741,0.0044 -0.023866,-0.0045 -0.03125,0 -0.031933,0.0193 -0.062293,0.04251 -0.09375,0.0625 -0.120395,0.0767 -0.2310226,0.163513 -0.34375,0.25 -0.1061728,0.0808 -0.2132809,0.161112 -0.3125,0.25 -0.1779299,0.161433 -0.3474596,0.345388 -0.5,0.53125 -0.1075789,0.130255 -0.2183939,0.265285 -0.3125,0.40625 -0.025089,0.03838 -0.038446,0.08587 -0.0625,0.125 -0.064763,0.103032 -0.1302275,0.204517 -0.1875,0.3125 -0.1010083,0.194706 -0.2056748,0.415701 -0.28125,0.625 C 7.30454,21.30306 7.288911,21.3218 7.28125,21.34375 7.2494249,21.4357 7.2454455,21.530581 7.21875,21.625 7.1884177,21.731618 7.1483606,21.828031 7.125,21.9375 7.0521214,22.279012 7,22.635705 7,23 l 0,2 0,56 0,2 c 0,2.781848 2.2181517,5 5,5 l 2,0 68,0 2,0 c 2.781848,0 5,-2.218152 5,-5 l 0,-2 0,-56 0,-2 c 0,-0.364295 -0.05212,-0.720988 -0.125,-1.0625 -0.04415,-0.206893 -0.08838,-0.397658 -0.15625,-0.59375 -0.0077,-0.02195 -0.0233,-0.04069 -0.03125,-0.0625 -0.06274,-0.173739 -0.138383,-0.367449 -0.21875,-0.53125 -0.04158,-0.0828 -0.07904,-0.169954 -0.125,-0.25 -0.0546,-0.09721 -0.126774,-0.18835 -0.1875,-0.28125 -0.09411,-0.140965 -0.204921,-0.275995 -0.3125,-0.40625 -0.143174,-0.17445 -0.303141,-0.346998 -0.46875,-0.5 -0.01117,-0.0102 -0.01998,-0.02115 -0.03125,-0.03125 -0.138386,-0.125556 -0.285091,-0.234436 -0.4375,-0.34375 -0.102571,-0.07315 -0.204318,-0.153364 -0.3125,-0.21875 -0.0074,-0.0045 -0.02384,0.0044 -0.03125,0 -0.232039,-0.138728 -0.462548,-0.274778 -0.71875,-0.375 0.301527,0.0968 0.596455,0.204138 0.875,0.34375 0.55709,0.279224 1.060053,0.665694 1.5,1.09375 0.219973,0.214028 0.409366,0.441865 0.59375,0.6875 0.184384,0.245635 0.355408,0.507743 0.5,0.78125 0.14012,0.265048 0.276135,0.524729 0.375,0.8125 0.01041,0.03078 0.02133,0.06274 0.03125,0.09375 0.09046,0.278085 0.1388,0.579404 0.1875,0.875 C 89.95865,23.3493 90,23.665279 90,24 l 0,2 0,56 0,2 c 0,3.324 -2.676,6 -6,6 l -72,0 z"
       inkscape:connector-curvature="0"
       id="path3615"
       style="opacity:0.2;fill:url(#radialGradient3681);fill-opacity:1;fill-rule:nonzero;stroke:none" />
  </g>
  <path
     inkscape:connector-curvature="0"
     style="fill:url(#linearGradient3842);fill-opacity:1;stroke:none"
     d="m 46.630039,37.491166 -12.139886,3.947803 5.804676,3.97121 -1.716437,0.803604 L 30.50334,43.132 13.237551,48.421745 31.736054,52.884479 c -0.0614,1.973245 -0.10979,4.315114 -0.101426,6.80333 0.02969,8.831278 11.172097,8.150643 14.90959,14.098184 3.543898,-5.388207 24.184139,-5.64379 24.069119,-14.566303 -0.06418,-4.979042 -0.09243,-6.696818 -0.109228,-7.700558 l 15.635175,-9.159529 z m -18.009977,3.094659 c -2.15899,0.01283 -6.573471,1.569065 -6.465618,4.309733 l 0.990582,-0.413775 c -0.139549,-2.109586 5.298603,-4.157359 8.107305,-1.69307 2.474169,0.968724 6.58115,2.628372 7.365071,2.863328 0.375474,-0.214187 0.366509,-0.244903 0.686575,-0.42911 C 38.118894,44.02396 33.764569,41.704237 33.764569,41.704237 32.170512,40.8008 29.915455,40.57813 28.620062,40.585825 z m -5.037081,10.941109 c 1.379381,5.58233 3.021893,14.401848 -1.068062,15.534831 -0.109572,-0.993076 -1.929974,-0.986423 -1.973902,0 -0.728153,-1.53136 -6.553666,-2.48103 -6.553666,-2.48103 -2.709968,0.409712 2.309829,3.32908 0.249663,3.783962 0,0 4.91186,1.116737 6.327409,-0.702179 0.134324,1.219416 2.00339,1.000851 1.950496,0.05461 4.410984,-0.908028 3.618946,-10.8944 1.949686,-15.96394 z"
     id="path2985"
     sodipodi:nodetypes="cccccccscscccsccccccsccccccccc" />
  <path
     sodipodi:nodetypes="cccccccscscccsccccccsccccccccc"
     id="path3888"
     d="m 46.630039,37.491166 -12.139886,3.947803 5.804676,3.97121 -1.716437,0.803604 L 30.50334,43.132 13.237551,48.421745 31.736054,52.884479 c -0.0614,1.973245 -0.10979,4.315114 -0.101426,6.80333 0.02969,8.831278 11.172097,8.150643 14.90959,14.098184 3.543898,-5.388207 24.184139,-5.64379 24.069119,-14.566303 -0.06418,-4.979042 -0.09243,-6.696818 -0.109228,-7.700558 l 15.635175,-9.159529 z m -18.009977,3.094659 c -2.15899,0.01283 -6.573471,1.569065 -6.465618,4.309733 l 0.990582,-0.413775 c -0.139549,-2.109586 5.298603,-4.157359 8.107305,-1.69307 2.474169,0.968724 6.58115,2.628372 7.365071,2.863328 0.375474,-0.214187 0.366509,-0.244903 0.686575,-0.42911 C 38.118894,44.02396 33.764569,41.704237 33.764569,41.704237 32.170512,40.8008 29.915455,40.57813 28.620062,40.585825 z m -5.037081,10.941109 c 1.379381,5.58233 3.021893,14.401848 -1.068062,15.534831 -0.109572,-0.993076 -1.929974,-0.986423 -1.973902,0 -0.728153,-1.53136 -6.553666,-2.48103 -6.553666,-2.48103 -2.709968,0.409712 2.309829,3.32908 0.249663,3.783962 0,0 4.91186,1.116737 6.327409,-0.702179 0.134324,1.219416 2.00339,1.000851 1.950496,0.05461 4.410984,-0.908028 3.618946,-10.8944 1.949686,-15.96394 z"
     style="fill:none;fill-opacity:1;stroke:#552200;stroke-opacity:1;filter:url(#filter3894);opacity:0.35"
     inkscape:connector-curvature="0" />
  <path
     style="fill:url(#linearGradient3868);fill-opacity:1;fill-rule:nonzero;stroke:none"
     d="M 11.5 24.875 L 11.78125 81.40625 L 85.71875 81.125 L 86.125 42.375 L 70.5 51.53125 C 70.516798 52.53499 70.56082 54.239708 70.625 59.21875 C 70.74002 68.141263 50.075148 68.393043 46.53125 73.78125 C 42.793757 67.833709 31.65469 68.518778 31.625 59.6875 C 31.616636 57.199284 31.6886 54.848245 31.75 52.875 L 13.25 48.40625 L 30.5 43.125 L 38.59375 46.21875 L 40.28125 45.40625 L 34.5 41.4375 L 46.625 37.5 L 86.125 42.375 L 86.28125 25.4375 L 11.5 24.875 z M 28.625 40.59375 C 29.920393 40.586055 32.155943 40.815313 33.75 41.71875 C 33.75 41.71875 38.127417 44.019779 39.3125 45.21875 C 38.992434 45.402957 39.000474 45.442063 38.625 45.65625 C 37.841079 45.421294 33.724169 43.749974 31.25 42.78125 C 28.441298 40.316961 23.016701 42.359164 23.15625 44.46875 L 22.15625 44.90625 C 22.048397 42.165582 26.46601 40.60658 28.625 40.59375 z M 23.59375 51.53125 L 24.46875 51.75 C 26.13801 56.81954 26.910984 66.810722 22.5 67.71875 C 22.552894 68.664991 20.696824 68.875666 20.5625 67.65625 C 19.146951 69.475166 14.25 68.375 14.25 68.375 C 16.310166 67.920118 11.290032 65.003462 14 64.59375 C 14 64.59375 19.803097 65.53114 20.53125 67.0625 C 20.575178 66.076077 22.390428 66.069424 22.5 67.0625 C 26.589955 65.929517 24.973131 57.11358 23.59375 51.53125 z "
     id="rect2419-7" />
  <path
     id="path3938"
     d="m -174.0519,108.43418 0.28125,56.53125 73.937506,-0.28125 0.406246,-38.75 -15.625002,9.15625 c 0.0168,1.00374 0.0608,2.70845 0.125,7.6875 0.11502,8.92251 -20.54985,9.17429 -24.09375,14.5625 -3.73749,-5.94754 -14.87656,-5.26248 -14.90625,-14.09375 -0.008,-2.48822 0.0636,-4.83926 0.125,-6.8125 l -18.5,-4.46875 17.25,-5.28125 8.09375,3.09375 1.6875,-0.8125 -5.78125,-3.96875 12.125,-3.9375 39.500002,4.875 0.15625,-16.9375 -74.781252,-0.5625 z m 17.125,15.71875 c 1.29539,-0.008 3.53094,0.22156 5.125,1.125 0,0 4.37742,2.30103 5.5625,3.5 -0.32007,0.1842 -0.31203,0.22331 -0.6875,0.4375 -0.78392,-0.23496 -4.90083,-1.90628 -7.375,-2.875 -2.8087,-2.46429 -8.2333,-0.42209 -8.09375,1.6875 l -1,0.4375 c -0.10785,-2.74067 4.30976,-4.29967 6.46875,-4.3125 z m -5.03125,10.9375 0.875,0.21875 c 1.66926,5.06954 2.44224,15.06072 -1.96875,15.96875 0.0529,0.94624 -1.80318,1.15691 -1.9375,-0.0625 -1.41555,1.81891 -6.3125,0.71875 -6.3125,0.71875 2.06016,-0.45489 -2.95997,-3.37154 -0.25,-3.78125 0,0 5.80309,0.93739 6.53125,2.46875 0.0439,-0.98643 1.85918,-0.99308 1.96875,0 4.08996,-1.13299 2.47313,-9.94892 1.09375,-15.53125 z"
     style="fill:#ffffff;fill-opacity:1;fill-rule:nonzero;stroke:none"
     inkscape:connector-curvature="0"
     mask="url(#mask4032)"
     transform="translate(185.82674,-83.419679)" />
</svg>
