<?xml version="1.0" encoding="UTF-8" standalone="no"?>
<!-- Created with Inkscape (http://www.inkscape.org/) -->

<svg
   xmlns:dc="http://purl.org/dc/elements/1.1/"
   xmlns:cc="http://creativecommons.org/ns#"
   xmlns:rdf="http://www.w3.org/1999/02/22-rdf-syntax-ns#"
   xmlns:svg="http://www.w3.org/2000/svg"
   xmlns="http://www.w3.org/2000/svg"
   xmlns:xlink="http://www.w3.org/1999/xlink"
   xmlns:sodipodi="http://sodipodi.sourceforge.net/DTD/sodipodi-0.dtd"
   xmlns:inkscape="http://www.inkscape.org/namespaces/inkscape"
   width="96"
   height="96"
   id="svg11024"
   version="1.1"
   inkscape:version="0.48.0 r9654"
   sodipodi:docname="place-private.svg">
  <defs
     id="defs11026">
    <linearGradient
       id="linearGradient5155">
      <stop
         style="stop-color:#b38229;stop-opacity:1;"
         offset="0"
         id="stop5157" />
      <stop
         style="stop-color:#b38229;stop-opacity:0.47058824;"
         offset="1"
         id="stop5159" />
    </linearGradient>
    <inkscape:perspective
       sodipodi:type="inkscape:persp3d"
       inkscape:vp_x="0 : 526.18109 : 1"
       inkscape:vp_y="0 : 1000 : 0"
       inkscape:vp_z="744.09448 : 526.18109 : 1"
       inkscape:persp3d-origin="372.04724 : 350.78739 : 1"
       id="perspective11032" />
    <inkscape:perspective
       id="perspective10871"
       inkscape:persp3d-origin="0.5 : 0.33333333 : 1"
       inkscape:vp_z="1 : 0.5 : 1"
       inkscape:vp_y="0 : 1000 : 0"
       inkscape:vp_x="0 : 0.5 : 1"
       sodipodi:type="inkscape:persp3d" />
    <linearGradient
       gradientTransform="matrix(1.0058652,0,0,0.994169,0,12)"
       gradientUnits="userSpaceOnUse"
       xlink:href="#ButtonShadow-4-8"
       id="linearGradient3664-7"
       y2="5.297224"
       x2="45.447727"
       y1="80.471962"
       x1="45.447727" />
    <linearGradient
       gradientTransform="matrix(1.0058652,0,0,0.994169,0,12)"
       gradientUnits="userSpaceOnUse"
       id="ButtonShadow-4-8"
       y2="7.0165396"
       x2="45.447727"
       y1="80.471962"
       x1="45.447727">
      <stop
         offset="0"
         style="stop-color:#000000;stop-opacity:1"
         id="stop3750-7-57" />
      <stop
         offset="1"
         style="stop-color:#000000;stop-opacity:0.58823532"
         id="stop3752-6-41" />
    </linearGradient>
    <filter
       id="filter3174-5-8"
       color-interpolation-filters="sRGB">
      <feGaussianBlur
         stdDeviation="1.71"
         id="feGaussianBlur3176-9-5" />
    </filter>
    <linearGradient
       gradientTransform="matrix(1.0277778,0,0,1.0127315,-1.333333,0.03087963)"
       gradientUnits="userSpaceOnUse"
       xlink:href="#ButtonShadow-4-8"
       id="linearGradient3717-9"
       y2="6.9171443"
       x2="26.5"
       y1="90.312759"
       x1="26.5" />
    <linearGradient
       gradientTransform="matrix(1.0058652,0,0,0.994169,0,12)"
       gradientUnits="userSpaceOnUse"
       id="linearGradient10882"
       y2="7.0165396"
       x2="45.447727"
       y1="80.471962"
       x1="45.447727">
      <stop
         offset="0"
         style="stop-color:#000000;stop-opacity:1"
         id="stop10884" />
      <stop
         offset="1"
         style="stop-color:#000000;stop-opacity:0.58823532"
         id="stop10886" />
    </linearGradient>
    <linearGradient
       gradientTransform="matrix(1.0277778,0,0,1.0127315,-1.333333,0.03087963)"
       gradientUnits="userSpaceOnUse"
       xlink:href="#ButtonShadow-4-8"
       id="linearGradient3709-7"
       y2="6.9171443"
       x2="26.5"
       y1="90.312759"
       x1="26.5" />
    <linearGradient
       gradientTransform="matrix(1.0058652,0,0,0.994169,0,12)"
       gradientUnits="userSpaceOnUse"
       id="linearGradient10889"
       y2="7.0165396"
       x2="45.447727"
       y1="80.471962"
       x1="45.447727">
      <stop
         offset="0"
         style="stop-color:#000000;stop-opacity:1"
         id="stop10891" />
      <stop
         offset="1"
         style="stop-color:#000000;stop-opacity:0.58823532"
         id="stop10893" />
    </linearGradient>
    <linearGradient
       gradientTransform="matrix(1.0277778,0,0,1.0127315,-1.333333,0.03087963)"
       gradientUnits="userSpaceOnUse"
       xlink:href="#ButtonShadow-4-8"
       id="linearGradient3701-5"
       y2="6.9171443"
       x2="26.5"
       y1="90.312759"
       x1="26.5" />
    <linearGradient
       gradientTransform="matrix(1.0058652,0,0,0.994169,0,12)"
       gradientUnits="userSpaceOnUse"
       id="linearGradient10896"
       y2="7.0165396"
       x2="45.447727"
       y1="80.471962"
       x1="45.447727">
      <stop
         offset="0"
         style="stop-color:#000000;stop-opacity:1"
         id="stop10898" />
      <stop
         offset="1"
         style="stop-color:#000000;stop-opacity:0.58823532"
         id="stop10900" />
    </linearGradient>
    <linearGradient
       gradientTransform="matrix(1.0277778,0,0,1.0127315,-1.333333,0.03087963)"
       gradientUnits="userSpaceOnUse"
       xlink:href="#ButtonShadow-4-8"
       id="linearGradient3692-3"
       y2="6.9171443"
       x2="26.5"
       y1="90.312759"
       x1="26.5" />
    <linearGradient
       gradientTransform="matrix(1.0058652,0,0,0.994169,0,12)"
       gradientUnits="userSpaceOnUse"
       id="linearGradient10903"
       y2="7.0165396"
       x2="45.447727"
       y1="80.471962"
       x1="45.447727">
      <stop
         offset="0"
         style="stop-color:#000000;stop-opacity:1"
         id="stop10905" />
      <stop
         offset="1"
         style="stop-color:#000000;stop-opacity:0.58823532"
         id="stop10907" />
    </linearGradient>
    <linearGradient
       gradientUnits="userSpaceOnUse"
       xlink:href="#ButtonShadow-4-8"
       id="linearGradient3671-8"
       y2="6.9171443"
       x2="26.5"
       y1="90.312759"
       x1="26.5" />
    <linearGradient
       gradientTransform="matrix(1.0058652,0,0,0.994169,0,12)"
       gradientUnits="userSpaceOnUse"
       id="linearGradient10910"
       y2="7.0165396"
       x2="45.447727"
       y1="80.471962"
       x1="45.447727">
      <stop
         offset="0"
         style="stop-color:#000000;stop-opacity:1"
         id="stop10912" />
      <stop
         offset="1"
         style="stop-color:#000000;stop-opacity:0.58823532"
         id="stop10914" />
    </linearGradient>
    <linearGradient
       gradientTransform="matrix(0.72,0,0,0.72,1.92,-5.52)"
       gradientUnits="userSpaceOnUse"
       xlink:href="#linearGradient3348-1"
       id="linearGradient4023-83"
       y2="32.012737"
       x2="34.85965"
       y1="17.736111"
       x1="34.85965" />
    <linearGradient
       id="linearGradient3348-1">
      <stop
         offset="0"
         style="stop-color:#e0c693;stop-opacity:1"
         id="stop3350-8" />
      <stop
         offset="0.71691591"
         style="stop-color:#c0984f;stop-opacity:1"
         id="stop3356-96" />
      <stop
         offset="1"
         style="stop-color:#a67315;stop-opacity:1"
         id="stop3352-4" />
    </linearGradient>
    <linearGradient
       gradientUnits="userSpaceOnUse"
       xlink:href="#linearGradient3737-3-3"
       id="linearGradient4010-33"
       y2="58.466385"
       x2="23.607143"
       y1="6"
       x1="23.607143" />
    <linearGradient
       id="linearGradient3737-3-3">
      <stop
         offset="0"
         style="stop-color:#ffffff;stop-opacity:1"
         id="stop3739-1-8" />
      <stop
         offset="1"
         style="stop-color:#ffffff;stop-opacity:0"
         id="stop3741-7-60" />
    </linearGradient>
    <linearGradient
       gradientUnits="userSpaceOnUse"
       xlink:href="#linearGradient3317-8"
       id="linearGradient3361-4"
       y2="85.821426"
       x2="48.035713"
       y1="25.910715"
       x1="48.035713" />
    <linearGradient
       gradientTransform="scale(1.0598527,0.9435274)"
       gradientUnits="userSpaceOnUse"
       id="linearGradient3317-8"
       y2="20.137329"
       x2="11.794092"
       y1="3.2126782"
       x1="11.794092">
      <stop
         offset="0"
         style="stop-color:#c6953a;stop-opacity:1"
         id="stop3319-8" />
      <stop
         offset="1"
         style="stop-color:#ab7a1f;stop-opacity:1"
         id="stop3321-8" />
    </linearGradient>
    <linearGradient
       gradientTransform="translate(0,12)"
       gradientUnits="userSpaceOnUse"
       xlink:href="#linearGradient3187-7"
       id="linearGradient3706-97"
       y2="5.9877172"
       x2="48"
       y1="78"
       x1="48" />
    <linearGradient
       id="linearGradient3187-7">
      <stop
         offset="0"
         style="stop-color:#c6953a;stop-opacity:1"
         id="stop3189-64" />
      <stop
         offset="1"
         style="stop-color:#dec18c;stop-opacity:1"
         id="stop3191-3" />
    </linearGradient>
    <linearGradient
       gradientUnits="userSpaceOnUse"
       xlink:href="#linearGradient3737-3-3"
       id="linearGradient3188-6-03"
       y2="73.994667"
       x2="36.357143"
       y1="18"
       x1="36.357143" />
    <linearGradient
       id="linearGradient10934">
      <stop
         offset="0"
         style="stop-color:#ffffff;stop-opacity:1"
         id="stop10936" />
      <stop
         offset="1"
         style="stop-color:#ffffff;stop-opacity:0"
         id="stop10938" />
    </linearGradient>
    <filter
       id="filter3179-09"
       color-interpolation-filters="sRGB"
       height="1.9230769"
       width="1.5901639"
       y="-0.46153846"
       x="-0.29508197">
      <feGaussianBlur
         stdDeviation="6.6964288"
         id="feGaussianBlur3181-2" />
    </filter>
    <radialGradient
       gradientTransform="matrix(1.1573129,0,0,0.99590774,-7.551021,0.1971319)"
       gradientUnits="userSpaceOnUse"
       xlink:href="#linearGradient3737-5-4"
       id="radialGradient2874-5"
       fy="90.171875"
       fx="48"
       r="42"
       cy="90.171875"
       cx="48" />
    <linearGradient
       id="linearGradient3737-5-4">
      <stop
         offset="0"
         style="stop-color:#ffffff;stop-opacity:1"
         id="stop3739-0-05" />
      <stop
         offset="1"
         style="stop-color:#ffffff;stop-opacity:0"
         id="stop3741-4-9" />
    </linearGradient>
    <clipPath
       id="clipPath3766">
      <path
         style="opacity:0.35;fill:#ff0000;fill-opacity:1;stroke:#552200;stroke-width:0.2;stroke-linejoin:round;stroke-miterlimit:4;stroke-opacity:1;stroke-dasharray:none;stroke-dashoffset:0"
         id="path3768"
         d="m 15.875,66.96875 c -0.554,0 -1,0.446 -1,1 l 0,54.28125 c 0,0.554 0.446,1 1,1 l 67.375,0 c 0.554,0 1,-0.446 1,-1 l 0,-54.28125 c 0,-0.554 -0.446,-1 -1,-1 l -67.375,0 z M 35.5,76 l 5,0 c 0.831,0 1.5,0.669 1.5,1.5 l 0,0.5 25,0 c 1.662,0 3,1.338 3,3 l 0,24 c 0,1.662 -1.338,3 -3,3 l -38,0 c -1.662,0 -3,-1.338 -3,-3 l 0,-24 c 0,-1.662 1.338,-3 3,-3 l 5,0 0,-0.5 C 34,76.669 34.669,76 35.5,76 z M 31,82 c -0.554,0 -1,0.446 -1,1 l 0,2 c 0,0.554 0.446,1 1,1 l 10,0 c 0.554,0 1,-0.446 1,-1 l 0,-2 c 0,-0.554 -0.446,-1 -1,-1 l -10,0 z m 25,2 c -5.522848,0 -10,4.477152 -10,10 0,5.522848 4.477152,10 10,10 5.522848,0 10,-4.477152 10,-10 0,-5.522848 -4.477152,-10 -10,-10 z m 0,6 c 2.209139,0 4,1.790861 4,4 0,2.209139 -1.790861,4 -4,4 -2.209139,0 -4,-1.790861 -4,-4 0,-2.209139 1.790861,-4 4,-4 z" />
    </clipPath>
    <filter
       id="filter3770"
       color-interpolation-filters="sRGB">
      <feGaussianBlur
         stdDeviation="0.57"
         id="feGaussianBlur3772" />
    </filter>
    <clipPath
       id="clipPath3745">
      <path
         style="fill:#ff0000;fill-opacity:1;stroke:none"
         id="path3747"
         d="M 35.5,36 C 34.669,36 34,36.669 34,37.5 l 0,0.5 -5,0 c -1.662,0 -3,1.338 -3,3 l 0,24 c 0,1.662 1.338,3 3,3 l 38,0 c 1.662,0 3,-1.338 3,-3 l 0,-24 c 0,-1.662 -1.338,-3 -3,-3 l -25,0 0,-0.5 C 42,36.669 41.331,36 40.5,36 l -5,0 z m -4.5,6 10,0 c 0.554,0 1,0.446 1,1 l 0,2 c 0,0.554 -0.446,1 -1,1 l -10,0 c -0.554,0 -1,-0.446 -1,-1 l 0,-2 c 0,-0.554 0.446,-1 1,-1 z m 25,2 c 5.522848,0 10,4.477152 10,10 0,5.522848 -4.477152,10 -10,10 -5.522848,0 -10,-4.477152 -10,-10 0,-5.522848 4.477152,-10 10,-10 z m 0,6 c -2.209139,0 -4,1.790861 -4,4 0,2.209139 1.790861,4 4,4 2.209139,0 4,-1.790861 4,-4 0,-2.209139 -1.790861,-4 -4,-4 z" />
    </clipPath>
    <filter
       id="filter3749"
       color-interpolation-filters="sRGB">
      <feGaussianBlur
         stdDeviation="0.38"
         id="feGaussianBlur3751" />
    </filter>
    <linearGradient
       inkscape:collect="always"
       xlink:href="#linearGradient7732"
       id="linearGradient13201"
       gradientUnits="userSpaceOnUse"
       gradientTransform="translate(-125.70589,949.06685)"
       x1="49"
       y1="72"
       x2="49"
       y2="38.758461" />
    <linearGradient
       id="linearGradient7732">
      <stop
         id="stop7734"
         style="stop-color:#b38229;stop-opacity:1"
         offset="0" />
      <stop
         id="stop7736"
         style="stop-color:#b38229;stop-opacity:0.47058824"
         offset="1" />
    </linearGradient>
    <linearGradient
       gradientTransform="translate(0,12)"
       gradientUnits="userSpaceOnUse"
       xlink:href="#linearGradient3187-5"
       id="linearGradient3312"
       y2="5.9877172"
       x2="48"
       y1="78"
       x1="48" />
    <linearGradient
       id="linearGradient3187-5">
      <stop
         offset="0"
         style="stop-color:#c6953a;stop-opacity:1"
         id="stop3189-3" />
      <stop
         offset="1"
         style="stop-color:#dec18c;stop-opacity:1"
         id="stop3191-8" />
    </linearGradient>
    <linearGradient
       gradientUnits="userSpaceOnUse"
       xlink:href="#linearGradient3737-8"
       id="linearGradient3188-3"
       y2="73.994667"
       x2="36.357143"
       y1="18"
       x1="36.357143" />
    <linearGradient
       id="linearGradient3737-8">
      <stop
         offset="0"
         style="stop-color:#ffffff;stop-opacity:1"
         id="stop3739-9" />
      <stop
         offset="1"
         style="stop-color:#ffffff;stop-opacity:0"
         id="stop3741-6" />
    </linearGradient>
    <radialGradient
       gradientTransform="matrix(1.1573129,0,0,0.99590774,-7.551021,0.197132)"
       gradientUnits="userSpaceOnUse"
       xlink:href="#linearGradient3737-5-6"
       id="radialGradient3662"
       fy="90.171875"
       fx="48"
       r="42"
       cy="90.171875"
       cx="48" />
    <linearGradient
       id="linearGradient3737-5-6">
      <stop
         offset="0"
         style="stop-color:#ffffff;stop-opacity:1"
         id="stop3739-0-0" />
      <stop
         offset="1"
         style="stop-color:#ffffff;stop-opacity:0"
         id="stop3741-4-4" />
    </linearGradient>
    <linearGradient
       gradientTransform="matrix(0.72,0,0,0.72,1.92,-5.52)"
       gradientUnits="userSpaceOnUse"
       xlink:href="#linearGradient3348-8"
       id="linearGradient4023-8"
       y2="32.012737"
       x2="34.85965"
       y1="17.736111"
       x1="34.85965" />
    <linearGradient
       id="linearGradient3348-8">
      <stop
         offset="0"
         style="stop-color:#e0c693;stop-opacity:1"
         id="stop3350-5" />
      <stop
         offset="0.71691591"
         style="stop-color:#c0984f;stop-opacity:1"
         id="stop3356-9" />
      <stop
         offset="1"
         style="stop-color:#a67315;stop-opacity:1"
         id="stop3352-7" />
    </linearGradient>
    <linearGradient
       gradientUnits="userSpaceOnUse"
       xlink:href="#linearGradient3737-8"
       id="linearGradient4010-3"
       y2="58.466385"
       x2="23.607143"
       y1="6"
       x1="23.607143" />
    <linearGradient
       id="linearGradient10976">
      <stop
         offset="0"
         style="stop-color:#ffffff;stop-opacity:1"
         id="stop10978" />
      <stop
         offset="1"
         style="stop-color:#ffffff;stop-opacity:0"
         id="stop10980" />
    </linearGradient>
    <linearGradient
       gradientTransform="matrix(1.0058652,0,0,0.994169,0,12)"
       gradientUnits="userSpaceOnUse"
       xlink:href="#ButtonShadow-8"
       id="linearGradient4018"
       y2="5.297224"
       x2="45.447727"
       y1="80.471962"
       x1="45.447727" />
    <linearGradient
       gradientTransform="matrix(1.0058652,0,0,0.994169,0,12)"
       gradientUnits="userSpaceOnUse"
       id="ButtonShadow-8"
       y2="7.0165396"
       x2="45.447727"
       y1="80.471962"
       x1="45.447727">
      <stop
         offset="0"
         style="stop-color:#000000;stop-opacity:1"
         id="stop3750-3" />
      <stop
         offset="1"
         style="stop-color:#000000;stop-opacity:0.58823532"
         id="stop3752-1" />
    </linearGradient>
    <filter
       id="filter3174-4"
       color-interpolation-filters="sRGB">
      <feGaussianBlur
         stdDeviation="1.71"
         id="feGaussianBlur3176-3" />
    </filter>
    <linearGradient
       y2="5.297224"
       x2="45.447727"
       y1="80.471962"
       x1="45.447727"
       gradientTransform="matrix(1.0058652,0,0,0.994169,0,12)"
       gradientUnits="userSpaceOnUse"
       id="linearGradient11022"
       xlink:href="#ButtonShadow-8"
       inkscape:collect="always" />
    <linearGradient
       inkscape:collect="always"
       xlink:href="#linearGradient5155"
       id="linearGradient5161"
       x1="155"
       y1="1112.3622"
       x2="155"
       y2="1042.3622"
       gradientUnits="userSpaceOnUse"
       gradientTransform="translate(-105.0313,-64.38822)" />
    <filter
       inkscape:collect="always"
       id="filter5254">
      <feGaussianBlur
         inkscape:collect="always"
         stdDeviation="0.55462804"
         id="feGaussianBlur5256" />
    </filter>
    <clipPath
       clipPathUnits="userSpaceOnUse"
       id="clipPath5266">
      <path
         inkscape:connector-curvature="0"
         id="path5268"
         style="font-size:medium;font-style:normal;font-variant:normal;font-weight:normal;font-stretch:normal;text-indent:0;text-align:start;text-decoration:none;line-height:normal;letter-spacing:normal;word-spacing:normal;text-transform:none;direction:ltr;block-progression:tb;writing-mode:lr-tb;text-anchor:start;baseline-shift:baseline;color:#000000;fill:#000000;fill-opacity:1;stroke:none;stroke-width:1;marker:none;visibility:visible;display:inline;overflow:visible;enable-background:accumulate;font-family:Sans;-inkscape-font-specification:Sans"
         d="m 204.375,938.53127 c -10.64517,-0.10347 -19.66696,8.5457 -19.96875,19.15625 -0.006,0.2266 1.5e-4,0.1237 0,0.1875 -1.5e-4,0.064 1e-4,0.1402 0,0.25 -2.1e-4,0.2196 7e-5,0.5405 0,0.9062 -1.4e-4,0.7316 -1.9e-4,1.6839 0,2.6563 3.8e-4,1.9447 0,3.9398 0,4.0625 l 5.25,0 c 0,-0.1425 -0.0309,-2.1185 -0.0312,-4.0625 -1.9e-4,-0.972 -1.4e-4,-1.9261 0,-2.6563 7e-5,-0.3651 -2e-4,-0.6891 0,-0.9062 1e-4,-0.1085 0.0311,-0.1908 0.0312,-0.25 1.4e-4,-0.059 -0.0253,-0.2445 -0.0312,-0.031 0.21901,-7.70035 6.93747,-14.16908 14.6875,-14.09375 7.66591,0.0745 13.83917,6.13331 14.09375,13.74995 -0.01,-0.31971 -5.1e-4,0.082 0,0.2813 5.1e-4,0.1989 -5.1e-4,0.4749 0,0.8125 0.001,0.6751 -8.7e-4,1.5883 0,2.5312 0.002,1.886 0,3.9299 0,4.625 l 5.25,0 c 0,-0.7014 0.002,-2.7691 0,-4.6562 -8.8e-4,-0.9436 0.001,-1.823 0,-2.5 -5.2e-4,-0.3385 -0.0307,-0.6413 -0.0312,-0.8438 -5.2e-4,-0.2024 0.0108,-0.054 0,-0.4062 -0.3464,-10.36403 -8.83405,-18.71123 -19.25,-18.8125 z m 14.94204,45.49165 c 0,1.2624 -1.02338,2.2858 -2.28579,2.2858 -1.26241,0 -2.28579,-1.0234 -2.28579,-2.2858 0,-1.2624 1.02338,-2.2857 2.28579,-2.2857 1.26241,0 2.28579,1.0233 2.28579,2.2857 z M 182,965.73722 c -1.13042,0 -2.03125,0.8601 -2.03125,1.9375 l 0,32.74998 c 0,1.0774 0.90083,1.9375 2.03125,1.9375 l 43.03125,0 c 1.13042,0 2.03125,-0.8601 2.03125,-1.9375 l 0,-32.74998 c 0,-1.0774 -0.90083,-1.9375 -2.03125,-1.9375 l -43.03125,0 z m 31.28125,8.8437 c 3.69639,-0.049 7.23394,2.0576 8.8125,5.6563 2.10475,4.7978 -0.0771,10.3951 -4.875,12.4999 -1.23334,0.541 -2.54014,0.7923 -3.84375,0.7813 -3.6041,-0.031 -7.14096,-2.0363 -8.8125,-5.3438 -0.19168,-0.1262 -0.32866,-0.1739 -0.59375,-0.375 l -0.5625,-0.062 c -0.49212,0.2728 -0.43627,0.2387 -0.90625,0.4375 -0.15955,0.067 -0.4888,0.1144 -0.59375,0.062 -0.22325,-0.2983 -0.4377,-0.591 -0.59375,-0.9062 l -1.9375,-0.5625 c -0.4047,0.3166 -0.67117,0.6137 -0.96875,0.5937 -0.11676,0.022 -0.56683,-0.3849 -1.125,-0.9062 l -0.40625,0 c -0.68427,0.7548 -0.98407,0.9687 -1.34375,0.9375 -0.69416,-0.081 -0.99183,-0.6057 -1.25,-1.1563 -0.4241,0.6539 -0.91113,1.0365 -1.4375,1.2813 -0.30593,0.064 -0.97221,-0.4494 -1.53125,-0.7813 -0.41193,0.3648 -1.02941,0.7543 -2.03125,0.8125 -0.98314,-0.274 -1.99177,-1.5855 -3.03125,-2.5312 -0.49294,-0.4485 -0.90732,-0.7801 -1.09375,-1.2813 0.37059,-0.938 1.01536,-1.6418 2.0625,-1.9999 l 13,-0.031 c 0.68285,0 0.62823,-1.0448 1.21875,-1.0938 l 1.84375,-0.031 1.625,-0.7187 0.0625,-0.125 c 0.99597,-1.9429 2.62566,-3.498 4.625,-4.375 1.19948,-0.5262 2.45537,-0.765 3.6875,-0.7813 z" />
    </clipPath>
    <filter
       inkscape:collect="always"
       id="filter5323">
      <feGaussianBlur
         inkscape:collect="always"
         stdDeviation="0.83194229"
         id="feGaussianBlur5325" />
    </filter>
    <clipPath
       clipPathUnits="userSpaceOnUse"
       id="clipPath5331">
      <path
         style="fill:#000000;fill-opacity:1;stroke:none"
         d="m 202.25,952.36218 0,70.00002 53,0 0,-70.00002 -53,0 z m 27.71875,2.78125 c 10.41595,0.10127 18.9036,8.44847 19.25,18.8125 0.0108,0.35245 -5.2e-4,0.20376 0,0.40625 5e-4,0.20249 0.0307,0.50523 0.0312,0.84375 10e-4,0.67705 -8.8e-4,1.55645 0,2.5 0.002,1.8871 0,3.95483 0,4.65625 l 1.375,0 c 1.13042,0 2.03125,0.8601 2.03125,1.9375 l 0,32.75002 c 0,1.0774 -0.90083,1.9375 -2.03125,1.9375 l -43.03125,0 c -1.13042,0 -2.03125,-0.8601 -2.03125,-1.9375 l 0,-32.75002 c 0,-1.0774 0.90083,-1.9375 2.03125,-1.9375 l 2.40625,0 c 0,-0.12274 3.8e-4,-2.11781 0,-4.0625 -1.9e-4,-0.97235 -1.4e-4,-1.92471 0,-2.65625 7e-5,-0.36577 -2.1e-4,-0.68665 0,-0.90625 10e-5,-0.1098 -1.5e-4,-0.1862 0,-0.25 1.5e-4,-0.0638 -0.006,0.0391 0,-0.1875 0.30179,-10.61055 9.32358,-19.25972 19.96875,-19.15625 z m -0.0625,5.21875 c -7.75003,-0.0753 -14.46849,6.3934 -14.6875,14.09375 0.006,-0.21326 0.0314,-0.0281 0.0312,0.0312 -1e-4,0.0593 -0.0311,0.14147 -0.0312,0.25 -2e-4,0.21706 7e-5,0.54115 0,0.90625 -1.4e-4,0.7302 -1.9e-4,1.68424 0,2.65625 3e-4,1.94403 0.0312,3.92004 0.0312,4.0625 l 28.75,0 c 0,-0.69518 0.002,-2.73909 0,-4.625 -8.7e-4,-0.94295 10e-4,-1.85615 0,-2.53125 -5.1e-4,-0.33755 5.1e-4,-0.61356 0,-0.8125 -5.1e-4,-0.19895 -0.01,-0.60101 0,-0.28125 -0.25458,-7.61669 -6.42784,-13.6755 -14.09375,-13.75 z m 8.96875,30.84375 c -1.23213,0.0163 -2.48802,0.25505 -3.6875,0.78125 -1.99934,0.877 -3.62903,2.4321 -4.625,4.375 l -0.0625,0.125 -1.625,0.71875 -1.84375,0.0312 c -0.59052,0.049 -0.5359,1.09375 -1.21875,1.09375 l -13,0.0312 c -1.04714,0.3581 -1.69191,1.06203 -2.0625,2.00002 0.18643,0.5012 0.60081,0.8327 1.09375,1.2812 1.03948,0.9457 2.04811,2.2573 3.03125,2.5313 1.00184,-0.058 1.61932,-0.4477 2.03125,-0.8125 0.55904,0.3319 1.22532,0.8452 1.53125,0.7812 0.52637,-0.2448 1.0134,-0.6273 1.4375,-1.2812 0.25817,0.5506 0.55584,1.0752 1.25,1.1562 0.35968,0.031 0.65948,-0.1827 1.34375,-0.9375 l 0.40625,0 c 0.55817,0.5213 1.00824,0.9283 1.125,0.9063 0.29758,0.02 0.56405,-0.2772 0.96875,-0.5938 l 1.9375,0.5625 c 0.15605,0.3152 0.3705,0.608 0.59375,0.9063 0.10495,0.052 0.4342,0 0.59375,-0.062 0.46998,-0.1988 0.41413,-0.1647 0.90625,-0.4375 l 0.5625,0.062 c 0.26509,0.2011 0.40207,0.2488 0.59375,0.375 1.67154,3.3075 5.2084,5.3127 8.8125,5.3437 1.30361,0.011 2.61041,-0.2402 3.84375,-0.7812 4.7979,-2.1048 6.97975,-7.7022 4.875,-12.50002 -1.57856,-3.59865 -5.11611,-5.70515 -8.8125,-5.65625 z m 3.75,7.15625 c 1.26241,0 2.28125,1.01888 2.28125,2.28122 0,1.2624 -1.01884,2.2813 -2.28125,2.2813 -1.26241,0 -2.28125,-1.0189 -2.28125,-2.2813 0,-1.26234 1.01884,-2.28122 2.28125,-2.28122 z"
         id="path5333"
         inkscape:connector-curvature="0" />
    </clipPath>
  </defs>
  <sodipodi:namedview
     id="base"
     pagecolor="#ffffff"
     bordercolor="#666666"
     borderopacity="1.0"
     inkscape:pageopacity="0.0"
     inkscape:pageshadow="2"
     inkscape:zoom="1.4"
     inkscape:cx="-32.322157"
     inkscape:cy="49.21428"
     inkscape:document-units="px"
     inkscape:current-layer="layer1"
     showgrid="true"
     inkscape:showpageshadow="false"
     inkscape:window-width="1440"
     inkscape:window-height="860"
     inkscape:window-x="0"
     inkscape:window-y="22"
     inkscape:window-maximized="1">
    <inkscape:grid
       type="xygrid"
       id="grid5002"
       empspacing="5"
       visible="true"
       enabled="true"
       snapvisiblegridlinesonly="true" />
  </sodipodi:namedview>
  <metadata
     id="metadata11029">
    <rdf:RDF>
      <cc:Work
         rdf:about="">
        <dc:format>image/svg+xml</dc:format>
        <dc:type
           rdf:resource="http://purl.org/dc/dcmitype/StillImage" />
        <dc:title></dc:title>
      </cc:Work>
    </rdf:RDF>
  </metadata>
  <g
     inkscape:label="Calque 1"
     inkscape:groupmode="layer"
     id="layer1"
     transform="translate(0,-956.36218)">
    <g
       id="layer2-2-6"
       style="display:none"
       transform="translate(0.09186714,957.13293)">
      <path
         inkscape:connector-curvature="0"
         d="M 14.96875,8.8028918 C 13.32891,8.8028918 12,10.085142 12,11.677892 L 12,19 c -3.324,0 -7,2.676 -7,6 l 0,61 c 0,3.324 2.676,6 6,6 l 74,0 c 3.324,0 6,-2.676 6,-6 l 0,-61 c 0,-3.324 -3.74743,-6 -7.07143,-6 l 0,-0.134608 c 0,-2.389125 -1.97774,-4.3125 -4.4375,-4.3125 l -43.33482,0 -1.46875,-2.875 C 33.95414,10.253293 33.35859,8.8028918 31.71875,8.8028918 l -16.75,0 z"
         id="rect3745-1-92"
         style="opacity:0.9;fill:url(#linearGradient3664-7);fill-opacity:1;fill-rule:nonzero;stroke:none;filter:url(#filter3174-5-8)" />
    </g>
    <g
       id="g5021"
       transform="translate(0.90813313,0.2292498)">
      <g
         transform="translate(0.09186714,957.13293)"
         style="display:inline"
         id="layer4-7-2">
        <path
           style="opacity:0.07999998;fill:url(#linearGradient3717-9);fill-opacity:1;fill-rule:nonzero;stroke:none;display:inline"
           id="path3715-4"
           transform="matrix(0.99728997,0,0,0.99862826,0.1300813,0.00548697)"
           d="M 13.96875,4 C 10.667823,4 7.875,6.6931198 7.875,10.03125 l 0,7.0625 c -3.4360632,1.560695 -6,4.840711 -6,8.90625 l 0,59 c 0,5.561299 4.5637001,10.125 10.125,10.125 l 72,0 c 5.561299,0 10.125,-4.563701 10.125,-10.125 l 0,-59 c 0,-4.090756 -2.593768,-7.389362 -6.0625,-8.9375 -0.160383,-3.993445 -3.473555,-7.21875 -7.5,-7.21875 l -42.5,0 L 37.4375,8.625 C 37.135051,8.028958 36.735432,7.0401877 35.9375,6.0625 35.034313,4.9558457 33.554045,4 31.71875,4 l -17.75,0 z"
           inkscape:connector-curvature="0" />
        <path
           style="opacity:0.1;fill:url(#linearGradient3709-7);fill-opacity:1;fill-rule:nonzero;stroke:none;display:inline"
           id="path3707-77"
           transform="matrix(0.99653979,0,0,0.99789769,0.16608997,0.04169587)"
           d="m 13.96875,4.96875 c -2.783187,0 -5.125,2.2572798 -5.125,5.0625 l 0,7.3125 0,0.3125 c -3.4368535,1.290325 -6,4.439736 -6,8.34375 l 0,59 c 0,5.039918 4.1163315,9.15625 9.15625,9.15625 l 72,0 c 5.039918,0 9.15625,-4.116332 9.15625,-9.15625 l 0,-59 c 0,-3.904014 -2.563147,-7.053425 -6,-8.34375 l 0,-0.3125 c 0,-3.602656 -2.985437,-6.53125 -6.59375,-6.53125 l -43.09375,0 -0.875,-1.75 C 36.26366,8.4119848 35.884179,7.5098749 35.1875,6.65625 34.437476,5.737263 33.22926,4.96875 31.71875,4.96875 l -17.75,0 z"
           inkscape:connector-curvature="0" />
        <path
           style="opacity:0.2;fill:url(#linearGradient3701-5);fill-opacity:1;fill-rule:nonzero;stroke:none;display:inline"
           id="path3698-5"
           transform="matrix(0.99716714,0,0,0.99856528,0.13597734,0.00860832)"
           d="M 13.96875,6 C 11.736726,6 9.875,7.7965069 9.875,10.03125 l 0,7.3125 0,0.96875 c -3.4279042,0.950944 -6,3.959493 -6,7.6875 l 0,59 c 0,4.483833 3.6411665,8.125 8.125,8.125 l 72,0 c 4.483833,0 8.125,-3.641167 8.125,-8.125 l 0,-59 c 0,-3.728007 -2.572096,-6.736556 -6,-7.6875 l 0,-0.96875 c 0,-3.037808 -2.505776,-5.5 -5.5625,-5.5 l -43.71875,0 -1.15625,-2.3125 C 35.33448,8.8355471 34.9882,8.0255499 34.40625,7.3125 33.8243,6.5994501 32.873904,6 31.71875,6 l -17.75,0 z"
           inkscape:connector-curvature="0" />
        <path
           style="opacity:0.3;fill:url(#linearGradient3692-3);fill-opacity:1;fill-rule:nonzero;stroke:none;display:inline"
           id="path3679-4"
           d="M 13.96875,7.125 C 12.32891,7.125 11,8.4154163 11,10.03125 l 0,7.3125 0,1.75 C 7.602692,19.579354 5,22.464233 5,26 l 0,59 c 0,3.878 3.122,7 7,7 l 72,0 c 3.878,0 7,-3.122 7,-7 l 0,-59 c 0,-3.535767 -2.602692,-6.420646 -6,-6.90625 l 0,-1.75 c 0,-2.42375 -1.97774,-4.375 -4.4375,-4.375 l -44.40625,0 -1.46875,-2.9375 C 33.954141,8.5860044 33.35859,7.125 31.71875,7.125 l -17.75,0 z"
           inkscape:connector-curvature="0" />
        <path
           style="opacity:0.45;fill:url(#linearGradient3671-8);fill-opacity:1;fill-rule:nonzero;stroke:none;display:inline"
           id="path2885-8"
           d="M 14.875,7 C 13.27948,7 12,8.27948 12,9.875 L 12,17.09375 12,19 c -3.324,0 -6,2.676 -6,6 l 0,60 c 0,3.324 2.676,6 6,6 l 72,0 c 3.324,0 6,-2.676 6,-6 l 0,-60 c 0,-3.324 -2.676,-6 -6,-6 l 0,-1.90625 C 84,14.70047 82.08078,12.75 79.6875,12.75 l -43.21875,0 -1.4375,-2.875 C 34.317712,8.4479235 33.75177,7 32.15625,7 L 14.875,7 z"
           inkscape:connector-curvature="0" />
      </g>
      <g
         transform="translate(0.09186714,957.13293)"
         style="display:inline"
         id="layer3-8-1">
        <path
           style="fill:url(#linearGradient4023-83);fill-opacity:1;fill-rule:nonzero;stroke:none;display:inline"
           id="rect3325-2"
           d="M 14.88,6 C 13.28448,6 12,7.28448 12,8.88 l 0,7.2 0,50.4 0,4.32 c 0,2.39328 1.92672,4.32 4.32,4.32 l 63.36,0 c 2.39328,0 4.32,-1.92672 4.32,-4.32 l 0,-54.72 c 0,-2.39328 -1.92672,-4.32 -4.32,-4.32 l -43.2,0 -1.44,-2.88 C 34.326462,7.4529235 33.75552,6 32.16,6 L 14.88,6 z"
           inkscape:connector-curvature="0" />
        <path
           style="opacity:0.3;fill:url(#linearGradient4010-33);fill-opacity:1;fill-rule:nonzero;stroke:none;display:inline"
           id="path3997-8"
           d="M 14.875,6 C 13.27948,6 12,7.27948 12,8.875 l 0,7.21875 0,50.375 0,4.34375 c 0,2.393277 1.91922,4.3125 4.3125,4.3125 l 63.375,0 C 82.08078,75.124997 84,73.20578 84,70.8125 L 84,16.09375 C 84,13.70047 82.08078,11.75 79.6875,11.75 l -43.21875,0 -1.4375,-2.875 C 34.317711,7.4479234 33.75177,6 32.15625,6 L 14.875,6 z m 0,1.9375 17.28125,0 c 0.48716,0 0.660447,0.1126732 0.96875,0.5 0.308303,0.3873268 0.629671,1.0718434 1,1.8125 l 1.4375,2.875 c 0.173379,0.341986 0.522842,0.558894 0.90625,0.5625 l 43.21875,0 c 1.835408,0 3.28125,1.468154 3.28125,3.3125 l 0,54.71875 c 0,1.844346 -1.436902,3.281248 -3.28125,3.28125 l -63.375,0 c -1.844346,0 -3.28125,-1.436907 -3.28125,-3.28125 l 0,-4.34375 0,-50.375 0,-7.21875 c 0,-1.0465864 0.797164,-1.84375 1.84375,-1.84375 z"
           inkscape:connector-curvature="0" />
        <rect
           style="fill:url(#linearGradient3361-4);fill-opacity:1;fill-rule:nonzero;stroke:none;display:inline"
           id="rect3352-93"
           y="23.142857"
           x="10.535714"
           ry="6"
           rx="6"
           height="62.678574"
           width="75" />
      </g>
      <g
         transform="translate(0.09186714,957.13293)"
         id="layer1-57-6">
        <rect
           style="fill:url(#linearGradient3706-97);fill-opacity:1;fill-rule:nonzero;stroke:none"
           id="rect2419-8"
           y="18"
           x="6"
           ry="6"
           rx="6"
           height="72"
           width="84" />
        <path
           style="opacity:0.5;fill:url(#linearGradient3188-6-03);fill-opacity:1;fill-rule:nonzero;stroke:none"
           id="rect3728-4-0"
           d="m 12,18 c -3.324,0 -6,2.676 -6,6 l 0,2 0,56 0,2 c 0,0.334721 0.04135,0.6507 0.09375,0.96875 0.0487,0.295596 0.09704,0.596915 0.1875,0.875 0.00988,0.03038 0.020892,0.0636 0.03125,0.09375 0.098865,0.287771 0.2348802,0.547452 0.375,0.8125 0.1445918,0.273507 0.3156161,0.535615 0.5,0.78125 0.1843839,0.245635 0.3737765,0.473472 0.59375,0.6875 0.439947,0.428056 0.94291,0.814526 1.5,1.09375 0.278545,0.139612 0.5734731,0.246947 0.875,0.34375 -0.2562018,-0.100222 -0.4867109,-0.236272 -0.71875,-0.375 -0.00741,-0.0044 -0.023866,0.0045 -0.03125,0 -0.031933,-0.0193 -0.062293,-0.04251 -0.09375,-0.0625 -0.120395,-0.0767 -0.2310226,-0.163513 -0.34375,-0.25 -0.1061728,-0.0808 -0.2132809,-0.161112 -0.3125,-0.25 C 8.4783201,88.557317 8.3087904,88.373362 8.15625,88.1875 8.0486711,88.057245 7.9378561,87.922215 7.84375,87.78125 7.818661,87.74287 7.805304,87.69538 7.78125,87.65625 7.716487,87.553218 7.6510225,87.451733 7.59375,87.34375 7.4927417,87.149044 7.3880752,86.928049 7.3125,86.71875 7.30454,86.69694 7.288911,86.6782 7.28125,86.65625 7.2494249,86.5643 7.2454455,86.469419 7.21875,86.375 7.1884177,86.268382 7.1483606,86.171969 7.125,86.0625 7.0521214,85.720988 7,85.364295 7,85 L 7,83 7,27 7,25 c 0,-2.781848 2.2181517,-5 5,-5 l 2,0 68,0 2,0 c 2.781848,0 5,2.218152 5,5 l 0,2 0,56 0,2 c 0,0.364295 -0.05212,0.720988 -0.125,1.0625 -0.04415,0.206893 -0.08838,0.397658 -0.15625,0.59375 -0.0077,0.02195 -0.0233,0.04069 -0.03125,0.0625 -0.06274,0.173739 -0.138383,0.367449 -0.21875,0.53125 -0.04158,0.0828 -0.07904,0.169954 -0.125,0.25 -0.0546,0.09721 -0.126774,0.18835 -0.1875,0.28125 -0.09411,0.140965 -0.204921,0.275995 -0.3125,0.40625 -0.143174,0.17445 -0.303141,0.346998 -0.46875,0.5 -0.01117,0.0102 -0.01998,0.02115 -0.03125,0.03125 -0.138386,0.125556 -0.285091,0.234436 -0.4375,0.34375 -0.102571,0.07315 -0.204318,0.153364 -0.3125,0.21875 -0.0074,0.0045 -0.02384,-0.0044 -0.03125,0 -0.232039,0.138728 -0.462548,0.274778 -0.71875,0.375 0.301527,-0.0968 0.596455,-0.204138 0.875,-0.34375 0.55709,-0.279224 1.060053,-0.665694 1.5,-1.09375 0.219973,-0.214028 0.409366,-0.441865 0.59375,-0.6875 0.184384,-0.245635 0.355408,-0.507743 0.5,-0.78125 0.14012,-0.265048 0.276135,-0.524729 0.375,-0.8125 0.01041,-0.03078 0.02133,-0.06274 0.03125,-0.09375 0.09046,-0.278085 0.1388,-0.579404 0.1875,-0.875 C 89.95865,84.6507 90,84.334721 90,84 l 0,-2 0,-56 0,-2 c 0,-3.324 -2.676,-6 -6,-6 l -72,0 z"
           inkscape:connector-curvature="0" />
        <rect
           style="opacity:0.15;fill:#fff9dc;fill-opacity:1;fill-rule:nonzero;stroke:none;filter:url(#filter3179-09)"
           id="rect2399-2"
           transform="matrix(0.8917533,0,0,0.92600293,12.134153,19.139874)"
           y="13.887781"
           x="13.306199"
           ry="9"
           rx="9"
           height="34.82143"
           width="54.464287" />
        <path
           style="opacity:0.2;fill:url(#radialGradient2874-5);fill-opacity:1;fill-rule:nonzero;stroke:none"
           id="path3615-1-1"
           d="M 12,90 C 8.676,90 6,87.324 6,84 L 6,82 6,26 6,24 c 0,-0.334721 0.04135,-0.6507 0.09375,-0.96875 0.0487,-0.295596 0.09704,-0.596915 0.1875,-0.875 0.00988,-0.03038 0.020892,-0.0636 0.03125,-0.09375 0.098865,-0.287771 0.2348802,-0.547452 0.375,-0.8125 0.1445918,-0.273507 0.3156161,-0.535615 0.5,-0.78125 0.1843839,-0.245635 0.3737765,-0.473472 0.59375,-0.6875 0.439947,-0.428056 0.94291,-0.814526 1.5,-1.09375 0.278545,-0.139612 0.5734731,-0.246947 0.875,-0.34375 -0.2562018,0.100222 -0.4867109,0.236272 -0.71875,0.375 -0.00741,0.0044 -0.023866,-0.0045 -0.03125,0 -0.031933,0.0193 -0.062293,0.04251 -0.09375,0.0625 -0.120395,0.0767 -0.2310226,0.163513 -0.34375,0.25 -0.1061728,0.0808 -0.2132809,0.161112 -0.3125,0.25 -0.1779299,0.161433 -0.3474596,0.345388 -0.5,0.53125 -0.1075789,0.130255 -0.2183939,0.265285 -0.3125,0.40625 -0.025089,0.03838 -0.038446,0.08587 -0.0625,0.125 -0.064763,0.103032 -0.1302275,0.204517 -0.1875,0.3125 -0.1010083,0.194706 -0.2056748,0.415701 -0.28125,0.625 C 7.30454,21.30306 7.288911,21.3218 7.28125,21.34375 7.2494249,21.4357 7.2454455,21.530581 7.21875,21.625 7.1884177,21.731618 7.1483606,21.828031 7.125,21.9375 7.0521214,22.279012 7,22.635705 7,23 l 0,2 0,56 0,2 c 0,2.781848 2.2181517,5 5,5 l 2,0 68,0 2,0 c 2.781848,0 5,-2.218152 5,-5 l 0,-2 0,-56 0,-2 c 0,-0.364295 -0.05212,-0.720988 -0.125,-1.0625 -0.04415,-0.206893 -0.08838,-0.397658 -0.15625,-0.59375 -0.0077,-0.02195 -0.0233,-0.04069 -0.03125,-0.0625 -0.06274,-0.173739 -0.138383,-0.367449 -0.21875,-0.53125 -0.04158,-0.0828 -0.07904,-0.169954 -0.125,-0.25 -0.0546,-0.09721 -0.126774,-0.18835 -0.1875,-0.28125 -0.09411,-0.140965 -0.204921,-0.275995 -0.3125,-0.40625 -0.143174,-0.17445 -0.303141,-0.346998 -0.46875,-0.5 -0.01117,-0.0102 -0.01998,-0.02115 -0.03125,-0.03125 -0.138386,-0.125556 -0.285091,-0.234436 -0.4375,-0.34375 -0.102571,-0.07315 -0.204318,-0.153364 -0.3125,-0.21875 -0.0074,-0.0045 -0.02384,0.0044 -0.03125,0 -0.232039,-0.138728 -0.462548,-0.274778 -0.71875,-0.375 0.301527,0.0968 0.596455,0.204138 0.875,0.34375 0.55709,0.279224 1.060053,0.665694 1.5,1.09375 0.219973,0.214028 0.409366,0.441865 0.59375,0.6875 0.184384,0.245635 0.355408,0.507743 0.5,0.78125 0.14012,0.265048 0.276135,0.524729 0.375,0.8125 0.01041,0.03078 0.02133,0.06274 0.03125,0.09375 0.09046,0.278085 0.1388,0.579404 0.1875,0.875 C 89.95865,23.3493 90,23.665279 90,24 l 0,2 0,56 0,2 c 0,3.324 -2.676,6 -6,6 l -72,0 z"
           inkscape:connector-curvature="0" />
      </g>
    </g>
    <path
       inkscape:connector-curvature="0"
       id="path4973-4"
       style="font-size:medium;font-style:normal;font-variant:normal;font-weight:normal;font-stretch:normal;text-indent:0;text-align:start;text-decoration:none;line-height:normal;letter-spacing:normal;word-spacing:normal;text-transform:none;direction:ltr;block-progression:tb;writing-mode:lr-tb;text-anchor:start;baseline-shift:baseline;opacity:0.3;color:#000000;fill:none;stroke:#ffffff;stroke-width:1;stroke-opacity:1;marker:none;visibility:visible;display:inline;overflow:visible;filter:url(#filter5323);enable-background:accumulate;font-family:Sans;-inkscape-font-specification:Sans"
       d="m 229.96875,955.14343 c -10.64517,-0.10347 -19.66696,8.5457 -19.96875,19.15625 -0.006,0.22657 1.5e-4,0.12367 0,0.1875 -1.5e-4,0.0638 1e-4,0.1402 0,0.25 -2.1e-4,0.2196 7e-5,0.54048 0,0.90625 -1.4e-4,0.73154 -1.9e-4,1.6839 0,2.65625 3.8e-4,1.94469 0,3.93976 0,4.0625 l 5.25,0 c 0,-0.14246 -0.0309,-2.11847 -0.0312,-4.0625 -1.9e-4,-0.97201 -1.4e-4,-1.92605 0,-2.65625 7e-5,-0.3651 -2e-4,-0.68919 0,-0.90625 1e-4,-0.10853 0.0311,-0.19075 0.0312,-0.25 1.4e-4,-0.0593 -0.0253,-0.24446 -0.0312,-0.0312 0.21901,-7.70035 6.93747,-14.16908 14.6875,-14.09375 7.66591,0.0745 13.83917,6.13331 14.09375,13.75 -0.01,-0.31976 -5.1e-4,0.0823 0,0.28125 5.1e-4,0.19894 -5.1e-4,0.47495 0,0.8125 0.001,0.6751 -8.7e-4,1.5883 0,2.53125 0.002,1.88591 0,3.92982 0,4.625 l 5.25,0 c 0,-0.70142 0.002,-2.76915 0,-4.65625 -8.8e-4,-0.94355 0.001,-1.82295 0,-2.5 -5.2e-4,-0.33852 -0.0307,-0.64126 -0.0312,-0.84375 -5.2e-4,-0.20249 0.0108,-0.0538 0,-0.40625 -0.3464,-10.36403 -8.83405,-18.71123 -19.25,-18.8125 z m 14.94204,45.49187 c 0,1.2624 -1.02338,2.2858 -2.28579,2.2858 -1.26241,0 -2.28579,-1.0234 -2.28579,-2.2858 0,-1.26256 1.02338,-2.28586 2.28579,-2.28586 1.26241,0 2.28579,1.0233 2.28579,2.28586 z m -37.31704,-18.28594 c -1.13042,0 -2.03125,0.8601 -2.03125,1.9375 l 0,32.75004 c 0,1.0774 0.90083,1.9375 2.03125,1.9375 l 43.03125,0 c 1.13042,0 2.03125,-0.8601 2.03125,-1.9375 l 0,-32.75004 c 0,-1.0774 -0.90083,-1.9375 -2.03125,-1.9375 l -43.03125,0 z m 31.28125,8.84375 c 3.69639,-0.0489 7.23394,2.0576 8.8125,5.65625 2.10475,4.79804 -0.0771,10.39534 -4.875,12.50014 -1.23334,0.541 -2.54014,0.7923 -3.84375,0.7813 -3.6041,-0.031 -7.14096,-2.0363 -8.8125,-5.3438 -0.19168,-0.1262 -0.32866,-0.1739 -0.59375,-0.375 L 229,1004.35 c -0.49212,0.2728 -0.43627,0.2387 -0.90625,0.4375 -0.15955,0.067 -0.4888,0.1144 -0.59375,0.062 -0.22325,-0.2983 -0.4377,-0.591 -0.59375,-0.9062 l -1.9375,-0.5625 c -0.4047,0.3166 -0.67117,0.6137 -0.96875,0.5937 -0.11676,0.022 -0.56683,-0.3849 -1.125,-0.9062 l -0.40625,0 c -0.68427,0.7548 -0.98407,0.9687 -1.34375,0.9375 -0.69416,-0.081 -0.99183,-0.6057 -1.25,-1.1563 -0.4241,0.6539 -0.91113,1.0365 -1.4375,1.2813 -0.30593,0.064 -0.97221,-0.4494 -1.53125,-0.7813 -0.41193,0.3648 -1.02941,0.7542 -2.03125,0.8125 -0.98314,-0.274 -1.99177,-1.5855 -3.03125,-2.5312 -0.49294,-0.4485 -0.90732,-0.7801 -1.09375,-1.2813 0.37059,-0.93816 1.01536,-1.64196 2.0625,-2.00006 l 13,-0.031 c 0.68285,0 0.62823,-1.04483 1.21875,-1.09383 l 1.84375,-0.0312 1.625,-0.71875 0.0625,-0.125 c 0.99597,-1.9429 2.62566,-3.498 4.625,-4.375 1.19948,-0.5262 2.45537,-0.76497 3.6875,-0.78125 z"
       clip-path="url(#clipPath5331)"
       transform="translate(-179.96885,25.2187)" />
    <path
       id="path4973-7"
       style="font-size:medium;font-style:normal;font-variant:normal;font-weight:normal;font-stretch:normal;text-indent:0;text-align:start;text-decoration:none;line-height:normal;letter-spacing:normal;word-spacing:normal;text-transform:none;direction:ltr;block-progression:tb;writing-mode:lr-tb;text-anchor:start;baseline-shift:baseline;color:#000000;fill:url(#linearGradient5161);fill-opacity:1;stroke:none;stroke-width:5.23167753;marker:none;visibility:visible;display:inline;overflow:visible;enable-background:accumulate;font-family:Sans;-inkscape-font-specification:Sans"
       d="m 49.99995,980.36188 c -10.64517,-0.1035 -19.66698,8.5457 -19.96875,19.1562 -0.006,0.2267 1.5e-4,0.1237 0,0.1876 -1.5e-4,0.064 1e-4,0.1402 0,0.25 -2.1e-4,0.21952 7e-5,0.54052 0,0.90632 -1.4e-4,0.7315 -1.9e-4,1.6839 0,2.6562 3.8e-4,1.9447 0,3.9086 0,4.0313 l 5.21875,0 c 0,-0.1425 3.7e-4,-2.0872 0,-4.0313 -1.9e-4,-0.972 -1.4e-4,-1.926 0,-2.6562 7e-5,-0.3651 -2e-4,-0.6893 0,-0.90632 1e-4,-0.1086 -1.4e-4,-0.1908 0,-0.25 1.4e-4,-0.059 0.006,-0.2446 0,-0.031 0.21901,-7.7003 6.93747,-14.1691 14.6875,-14.0937 7.66594,0.075 13.83917,6.1333 14.09375,13.75 -0.01,-0.3195 -5.1e-4,0.082 0,0.2812 5.1e-4,0.1989 -5.1e-4,0.47502 0,0.81262 0.001,0.6751 -8.7e-4,1.557 0,2.5 0.002,1.8859 0,3.9298 0,4.625 l 5.25,0 c 0,-0.7014 0.002,-2.7379 0,-4.625 -8.8e-4,-0.9435 -0.0302,-1.8542 -0.0312,-2.5313 -5.2e-4,-0.3386 5.2e-4,-0.61012 0,-0.81252 -5.2e-4,-0.2025 0.0108,-0.054 0,-0.4063 -0.3464,-10.364 -8.83408,-18.7111 -19.25,-18.8125 z m -22.37817,27.20122 c -1.13042,0 -2.03125,0.8601 -2.03125,1.9375 l 0,32.75 c 0,1.0774 0.90083,1.9375 2.03125,1.9375 l 43.03125,0 c 1.13042,0 2.03125,-0.8601 2.03125,-1.9375 l 0,-32.75 c 0,-1.0774 -0.90083,-1.9375 -2.03125,-1.9375 l -43.03125,0 z m 31.28125,8.8438 c 3.69639,-0.049 7.23394,2.0576 8.8125,5.6562 2.10475,4.7979 -0.0771,10.3952 -4.875,12.5 -1.23334,0.541 -2.54014,0.7923 -3.84375,0.7813 -3.6041,-0.031 -7.14096,-2.0363 -8.8125,-5.3438 -0.19168,-0.1262 -0.32866,-0.1739 -0.59375,-0.375 l -0.5625,-0.062 c -0.49212,0.2728 -0.43627,0.2387 -0.90625,0.4375 -0.15955,0.067 -0.4888,0.1144 -0.59375,0.062 -0.22325,-0.2983 -0.4377,-0.591 -0.59375,-0.9062 l -1.9375,-0.5625 c -0.4047,0.3165 -0.67117,0.6137 -0.96875,0.5937 -0.11676,0.022 -0.56683,-0.3849 -1.125,-0.9062 l -0.40625,0 c -0.68427,0.7548 -0.98407,0.9686 -1.34375,0.9375 -0.69416,-0.081 -0.99183,-0.6057 -1.25,-1.1563 -0.4241,0.6539 -0.91113,1.0365 -1.4375,1.2813 -0.30593,0.064 -0.97221,-0.4494 -1.53125,-0.7813 -0.41193,0.3648 -1.02941,0.7543 -2.03125,0.8125 -0.98314,-0.274 -1.99177,-1.5855 -3.03125,-2.5312 -0.49294,-0.4485 -0.90732,-0.7801 -1.09375,-1.2813 0.37059,-0.938 1.01536,-1.6419 2.0625,-2 l 13,-0.031 c 0.68285,0 0.62823,-1.0448 1.21875,-1.0938 l 1.84375,-0.031 1.625,-0.7188 0.0625,-0.125 c 0.99597,-1.9429 2.62566,-3.498 4.625,-4.375 1.19948,-0.5262 2.45537,-0.765 3.6875,-0.7812 z m 6.06567,9.5673 c 0,1.2624 -1.02338,2.2858 -2.28579,2.2858 -1.26241,0 -2.2858,-1.0234 -2.2858,-2.2858 0,-1.2624 1.02339,-2.2858 2.2858,-2.2858 1.26241,0 2.28579,1.0234 2.28579,2.2858 z"
       inkscape:connector-curvature="0" />
    <path
       inkscape:connector-curvature="0"
       id="path4973-71"
       style="font-size:medium;font-style:normal;font-variant:normal;font-weight:normal;font-stretch:normal;text-indent:0;text-align:start;text-decoration:none;line-height:normal;letter-spacing:normal;word-spacing:normal;text-transform:none;direction:ltr;block-progression:tb;writing-mode:lr-tb;text-anchor:start;baseline-shift:baseline;opacity:0.35;color:#000000;fill:none;stroke:#462814;stroke-width:1;stroke-miterlimit:4;stroke-opacity:1;stroke-dasharray:none;marker:none;visibility:visible;display:inline;overflow:visible;filter:url(#filter5254);enable-background:accumulate;font-family:Sans;-inkscape-font-specification:Sans"
       d="m 204.375,938.53126 c -10.64517,-0.10347 -19.66696,8.5457 -19.96875,19.15625 -0.006,0.22657 1.5e-4,0.12367 0,0.1875 -1.5e-4,0.0638 1e-4,0.1402 0,0.25 -2.1e-4,0.2196 7e-5,0.54048 0,0.90625 -1.4e-4,0.73154 -1.9e-4,1.6839 0,2.65625 3.8e-4,1.94469 0,3.93976 0,4.0625 l 5.25,0 c 0,-0.14246 -0.0309,-2.11847 -0.0312,-4.0625 -1.9e-4,-0.97201 -1.4e-4,-1.92605 0,-2.65625 7e-5,-0.3651 -2e-4,-0.68919 0,-0.90625 1e-4,-0.10853 0.0311,-0.19075 0.0312,-0.25 1.4e-4,-0.0593 -0.0253,-0.24446 -0.0312,-0.0312 0.21901,-7.70035 6.93747,-14.16908 14.6875,-14.09375 7.66591,0.0745 13.83917,6.13331 14.09375,13.75 -0.01,-0.31976 -5.1e-4,0.0823 0,0.28125 5.1e-4,0.19894 -5.1e-4,0.47495 0,0.8125 0.001,0.6751 -8.7e-4,1.5883 0,2.53125 0.002,1.88591 0,3.92982 0,4.625 l 5.25,0 c 0,-0.70142 0.002,-2.76915 0,-4.65625 -8.8e-4,-0.94355 0.001,-1.82295 0,-2.5 -5.2e-4,-0.33852 -0.0307,-0.64126 -0.0312,-0.84375 -5.2e-4,-0.20249 0.0108,-0.0538 0,-0.40625 -0.3464,-10.36403 -8.83405,-18.71123 -19.25,-18.8125 z m 14.94204,45.4917 c 0,1.2624 -1.02338,2.2858 -2.28579,2.2858 -1.26241,0 -2.28579,-1.0234 -2.28579,-2.2858 0,-1.2624 1.02338,-2.28575 2.28579,-2.28575 1.26241,0 2.28579,1.02335 2.28579,2.28575 z M 182,965.73719 c -1.13042,0 -2.03125,0.8601 -2.03125,1.9375 l 0,32.75001 c 0,1.0773 0.90083,1.9375 2.03125,1.9375 l 43.03125,0 c 1.13042,0 2.03125,-0.8602 2.03125,-1.9375 l 0,-32.75001 c 0,-1.0774 -0.90083,-1.9375 -2.03125,-1.9375 l -43.03125,0 z m 31.28125,8.84375 c 3.69639,-0.0489 7.23394,2.0576 8.8125,5.65625 2.10475,4.79787 -0.0771,10.39517 -4.875,12.49997 -1.23334,0.541 -2.54014,0.7923 -3.84375,0.7813 -3.6041,-0.031 -7.14096,-2.0363 -8.8125,-5.3438 -0.19168,-0.1262 -0.32866,-0.1739 -0.59375,-0.375 l -0.5625,-0.062 c -0.49212,0.2728 -0.43627,0.2387 -0.90625,0.4375 -0.15955,0.067 -0.4888,0.1144 -0.59375,0.062 -0.22325,-0.2983 -0.4377,-0.591 -0.59375,-0.9062 l -1.9375,-0.5625 c -0.4047,0.3166 -0.67117,0.6137 -0.96875,0.5937 -0.11676,0.022 -0.56683,-0.3849 -1.125,-0.9062 l -0.40625,0 c -0.68427,0.7548 -0.98407,0.9687 -1.34375,0.9375 -0.69416,-0.081 -0.99183,-0.6057 -1.25,-1.1563 -0.4241,0.6539 -0.91113,1.0365 -1.4375,1.2813 -0.30593,0.064 -0.97221,-0.4494 -1.53125,-0.7813 -0.41193,0.3648 -1.02941,0.7543 -2.03125,0.8125 -0.98314,-0.274 -1.99177,-1.5855 -3.03125,-2.5312 -0.49294,-0.4485 -0.90732,-0.7801 -1.09375,-1.2813 0.37059,-0.938 1.01536,-1.64187 2.0625,-1.99997 l 13,-0.0312 c 0.68285,0 0.62823,-1.04475 1.21875,-1.09375 l 1.84375,-0.0312 1.625,-0.71875 0.0625,-0.125 c 0.99597,-1.9429 2.62566,-3.498 4.625,-4.375 1.19948,-0.5262 2.45537,-0.76497 3.6875,-0.78125 z"
       clip-path="url(#clipPath5266)"
       transform="translate(-154.3751,41.83087)" />
    <path
       transform="translate(0,956.36218)"
       style="opacity:0;fill:#000000;fill-opacity:1;stroke:#000000;stroke-width:1;stroke-linecap:round;stroke-linejoin:miter;stroke-miterlimit:4;stroke-dashoffset:0;stroke-opacity:1"
       d="m 187.04047,-9 75.91906,0 C 264.08995,-9 265,-8.1326335 265,-7.055232 l 0,76.110464 C 265,70.132633 264.08995,71 262.95953,71 l -75.91906,0 C 185.91005,71 185,70.132633 185,69.055232 l 0,-76.110464 C 185,-8.1326335 185.91005,-9 187.04047,-9 z"
       id="rect5288" />
  </g>
</svg>
