<?xml version="1.0" encoding="UTF-8" standalone="no"?>
<!-- Created with Inkscape (http://www.inkscape.org/) -->

<svg
   xmlns:dc="http://purl.org/dc/elements/1.1/"
   xmlns:cc="http://creativecommons.org/ns#"
   xmlns:rdf="http://www.w3.org/1999/02/22-rdf-syntax-ns#"
   xmlns:svg="http://www.w3.org/2000/svg"
   xmlns="http://www.w3.org/2000/svg"
   xmlns:sodipodi="http://sodipodi.sourceforge.net/DTD/sodipodi-0.dtd"
   xmlns:inkscape="http://www.inkscape.org/namespaces/inkscape"
   id="svg4453"
   version="1.1"
   inkscape:version="0.48.0 r9654"
   width="129.44852"
   height="175.45721"
   sodipodi:docname="cadenasDB.png">
  <metadata
     id="metadata4459">
    <rdf:RDF>
      <cc:Work
         rdf:about="">
        <dc:format>image/svg+xml</dc:format>
        <dc:type
           rdf:resource="http://purl.org/dc/dcmitype/StillImage" />
        <dc:title></dc:title>
      </cc:Work>
    </rdf:RDF>
  </metadata>
  <defs
     id="defs4457" />
  <sodipodi:namedview
     pagecolor="#ffffff"
     bordercolor="#666666"
     borderopacity="1"
     objecttolerance="10"
     gridtolerance="10"
     guidetolerance="10"
     inkscape:pageopacity="0"
     inkscape:pageshadow="2"
     inkscape:window-width="1440"
     inkscape:window-height="860"
     id="namedview4455"
     showgrid="true"
     inkscape:zoom="1.0898437"
     inkscape:cx="-92.594421"
     inkscape:cy="-22.772142"
     inkscape:window-x="0"
     inkscape:window-y="22"
     inkscape:window-maximized="1"
     inkscape:current-layer="svg4453"
     inkscape:snap-grids="true"
     fit-margin-top="0"
     fit-margin-left="0"
     fit-margin-right="0"
     fit-margin-bottom="0">
    <inkscape:grid
       type="xygrid"
       id="grid4978"
       empspacing="5"
       visible="true"
       enabled="true"
       snapvisiblegridlinesonly="true" />
  </sodipodi:namedview>
  <path
     inkscape:connector-curvature="0"
     id="path4973-5"
     style="font-size:medium;font-style:normal;font-variant:normal;font-weight:normal;font-stretch:normal;text-indent:0;text-align:start;text-decoration:none;line-height:normal;letter-spacing:normal;word-spacing:normal;text-transform:none;direction:ltr;block-progression:tb;writing-mode:lr-tb;text-anchor:start;baseline-shift:baseline;color:#000000;fill:#000000;fill-opacity:1;stroke:none;stroke-width:5.23167753;marker:none;visibility:visible;display:inline;overflow:visible;enable-background:accumulate;font-family:Sans;-inkscape-font-specification:Sans"
     d="M 67.086463,0.00252553 C 37.825645,-0.28188747 13.027081,23.492442 12.197538,52.658096 c -0.01649,0.622782 4.13e-4,0.339937 0,0.515389 -4.12e-4,0.175369 2.75e-4,0.385373 0,0.687185 -5.77e-4,0.603623 1.93e-4,1.48564 0,2.491047 -3.85e-4,2.010814 -5.22e-4,4.628605 0,7.301343 10e-4,5.345449 0,10.829379 0,11.166759 l 14.430891,0 c 0,-0.39158 -0.08494,-5.82312 -0.08576,-11.166759 -5.23e-4,-2.671804 -3.85e-4,-5.294213 0,-7.301343 1.92e-4,-1.003566 -5.5e-4,-1.894405 0,-2.491047 2.74e-4,-0.298321 0.08549,-0.524322 0.08576,-0.687185 3.84e-4,-0.163001 -0.06954,-0.671957 -0.08576,-0.08576 0.602001,-21.166268 19.069304,-38.947131 40.372134,-38.740069 21.0716,0.204781 38.040287,16.858881 38.740067,37.795189 -0.0275,-0.878937 -0.001,0.226221 0,0.773083 10e-4,0.546835 -0.001,1.305515 0,2.233353 0.003,1.855675 -0.002,4.365825 0,6.957751 0.005,5.183877 0,10.802057 0,12.712927 l 14.43089,0 c 0,-1.92802 0.005,-7.61168 0,-12.798826 -0.002,-2.593574 0.003,-5.010817 0,-6.871852 -10e-4,-0.930504 -0.0844,-1.762658 -0.0858,-2.31925 -0.001,-0.556593 0.0297,-0.147883 0,-1.116676 C 119.04783,23.225319 95.717483,0.28102753 67.086733,0.00266253 z M 108.15826,125.04757 c 0,3.47001 -2.81301,6.28307 -6.28305,6.28307 -3.470037,0 -6.283037,-2.81306 -6.283037,-6.28307 0,-3.47001 2.813,-6.28307 6.283037,-6.28307 3.47004,0 6.28305,2.81306 6.28305,6.28307 z M 5.58338,74.784579 C 2.476148,74.784579 0,77.148779 0,80.110269 l 0,90.021261 c 0,2.9615 2.476148,5.32569 5.58338,5.32569 l 118.28176,0 c 3.10723,0 5.58338,-2.36419 5.58338,-5.32569 l 0,-90.021261 c 0,-2.9615 -2.47615,-5.32569 -5.58338,-5.32569 l -118.28176,0 z m 85.984053,24.30918 c 10.160417,-0.13441 19.884227,5.655811 24.223277,15.547571 5.78541,13.18818 -0.21193,28.57371 -13.40011,34.35926 -3.390127,1.48707 -6.982187,2.17769 -10.565467,2.14746 -9.90674,-0.0852 -19.62865,-5.59713 -24.22328,-14.68859 -0.52688,-0.34689 -0.90341,-0.478 -1.63207,-1.03078 l -1.54616,-0.17179 c -1.35272,0.74985 -1.1992,0.65612 -2.49105,1.20257 -0.43856,0.18417 -1.34359,0.31446 -1.63207,0.1718 -0.61365,-0.81995 -1.20312,-1.62465 -1.63206,-2.49105 l -5.32569,-1.54617 c -1.11241,0.87026 -1.84487,1.68704 -2.66284,1.63207 -0.32094,0.0605 -1.55807,-1.05813 -3.09233,-2.49105 l -1.11668,0 c -1.88088,2.07475 -2.70495,2.66271 -3.69362,2.57695 -1.908067,-0.22265 -2.726285,-1.66478 -3.435927,-3.17823 -1.165741,1.7974 -2.504461,2.84893 -3.951315,3.52182 -0.840923,0.17592 -2.672354,-1.23515 -4.20901,-2.14745 -1.132289,1.00274 -2.829582,2.07337 -5.58338,2.23335 -2.702398,-0.75316 -5.47486,-4.35827 -8.332121,-6.95775 -1.354965,-1.23281 -2.493988,-2.14416 -3.006436,-3.52183 1.018656,-2.57832 2.790962,-4.51315 5.669278,-5.49748 l 35.733631,-0.0858 c 1.87698,0 1.72684,-2.87175 3.35003,-3.00644 l 5.06799,-0.0858 4.46671,-1.97565 0.17179,-0.3436 c 2.73767,-5.34045 7.21726,-9.61502 12.71293,-12.02566 3.29706,-1.446391 6.74918,-2.102711 10.13598,-2.147451 z" />
</svg>
