<?xml version="1.0" encoding="UTF-8" standalone="no"?>
<!-- Created with Inkscape (http://www.inkscape.org/) -->

<svg
   xmlns:svg="http://www.w3.org/2000/svg"
   xmlns="http://www.w3.org/2000/svg"
   xmlns:xlink="http://www.w3.org/1999/xlink"
   version="1.2"
   width="96"
   height="96"
   id="svg12183">
  <defs
     id="defs12185">
    <linearGradient
       x1="32.251034"
       y1="6.1317081"
       x2="32.251034"
       y2="90.238609"
       id="linearGradient12096"
       xlink:href="#ButtonShadow-0-3-0-4-4"
       gradientUnits="userSpaceOnUse"
       gradientTransform="matrix(1.0238095,0,0,1.0119048,-1.1428571,-98.071429)" />
    <linearGradient
       x1="45.447727"
       y1="92.539597"
       x2="45.447727"
       y2="7.0165396"
       id="ButtonShadow-0-3-0-4-4"
       gradientUnits="userSpaceOnUse"
       gradientTransform="matrix(1.0058652,0,0,0.994169,100,0)">
      <stop
         id="stop3750-8-4-4-5-5"
         style="stop-color:#000000;stop-opacity:1"
         offset="0" />
      <stop
         id="stop3752-5-0-8-78-0"
         style="stop-color:#000000;stop-opacity:0.58823532"
         offset="1" />
    </linearGradient>
    <linearGradient
       x1="32.251034"
       y1="6.1317081"
       x2="32.251034"
       y2="90.238609"
       id="linearGradient12098"
       xlink:href="#ButtonShadow-0-3-0-4-4"
       gradientUnits="userSpaceOnUse"
       gradientTransform="matrix(1.0238095,0,0,1.0119048,-1.1428571,-98.071429)" />
    <linearGradient
       x1="45.447727"
       y1="92.539597"
       x2="45.447727"
       y2="7.0165396"
       id="linearGradient12129"
       gradientUnits="userSpaceOnUse"
       gradientTransform="matrix(1.0058652,0,0,0.994169,100,0)">
      <stop
         id="stop12131"
         style="stop-color:#000000;stop-opacity:1"
         offset="0" />
      <stop
         id="stop12133"
         style="stop-color:#000000;stop-opacity:0.58823532"
         offset="1" />
    </linearGradient>
    <linearGradient
       x1="32.251034"
       y1="6.1317081"
       x2="32.251034"
       y2="90.238609"
       id="linearGradient12100"
       xlink:href="#ButtonShadow-0-3-0-4-4"
       gradientUnits="userSpaceOnUse"
       gradientTransform="matrix(1.0238095,0,0,1.0119048,-1.1428571,-98.071429)" />
    <linearGradient
       x1="45.447727"
       y1="92.539597"
       x2="45.447727"
       y2="7.0165396"
       id="linearGradient12136"
       gradientUnits="userSpaceOnUse"
       gradientTransform="matrix(1.0058652,0,0,0.994169,100,0)">
      <stop
         id="stop12138"
         style="stop-color:#000000;stop-opacity:1"
         offset="0" />
      <stop
         id="stop12140"
         style="stop-color:#000000;stop-opacity:0.58823532"
         offset="1" />
    </linearGradient>
    <linearGradient
       x1="32.251034"
       y1="6.1317081"
       x2="32.251034"
       y2="90.238609"
       id="linearGradient12102"
       xlink:href="#ButtonShadow-0-3-0-4-4"
       gradientUnits="userSpaceOnUse"
       gradientTransform="matrix(1.0238095,0,0,1.0119048,-1.1428571,-98.071429)" />
    <linearGradient
       x1="45.447727"
       y1="92.539597"
       x2="45.447727"
       y2="7.0165396"
       id="linearGradient12143"
       gradientUnits="userSpaceOnUse"
       gradientTransform="matrix(1.0058652,0,0,0.994169,100,0)">
      <stop
         id="stop12145"
         style="stop-color:#000000;stop-opacity:1"
         offset="0" />
      <stop
         id="stop12147"
         style="stop-color:#000000;stop-opacity:0.58823532"
         offset="1" />
    </linearGradient>
    <linearGradient
       x1="32.251034"
       y1="6.1317081"
       x2="32.251034"
       y2="90.238609"
       id="linearGradient12104"
       xlink:href="#ButtonShadow-0-3-0-4-4"
       gradientUnits="userSpaceOnUse"
       gradientTransform="translate(0,-97)" />
    <linearGradient
       x1="45.447727"
       y1="92.539597"
       x2="45.447727"
       y2="7.0165396"
       id="linearGradient12150"
       gradientUnits="userSpaceOnUse"
       gradientTransform="matrix(1.0058652,0,0,0.994169,100,0)">
      <stop
         id="stop12152"
         style="stop-color:#000000;stop-opacity:1"
         offset="0" />
      <stop
         id="stop12154"
         style="stop-color:#000000;stop-opacity:0.58823532"
         offset="1" />
    </linearGradient>
    <linearGradient
       x1="48"
       y1="90"
       x2="48"
       y2="5.9877172"
       id="linearGradient12106"
       xlink:href="#radialGradient3953-8-2-7-3"
       gradientUnits="userSpaceOnUse"
       gradientTransform="translate(158.07112,-604.89759)" />
    <radialGradient
       cx="363.57639"
       cy="283.96799"
       r="226.9742"
       fx="223.23711"
       fy="279.06631"
       id="radialGradient3953-8-2-7-3"
       gradientUnits="userSpaceOnUse"
       gradientTransform="matrix(0.2694,0.963,0.6475,-0.1811,-112.0564,-13.5191)">
      <stop
         id="stop3955-1-2-69-2"
         style="stop-color:#ffffff;stop-opacity:1"
         offset="0" />
      <stop
         id="stop3957-3-3-5-0"
         style="stop-color:#ffffb5;stop-opacity:1"
         offset="0.8574" />
    </radialGradient>
    <linearGradient
       x1="36.357143"
       y1="6"
       x2="36.357143"
       y2="63.893143"
       id="linearGradient12108"
       xlink:href="#linearGradient3737-2-3-3-5"
       gradientUnits="userSpaceOnUse"
       gradientTransform="translate(158.07112,508.89759)" />
    <linearGradient
       id="linearGradient3737-2-3-3-5">
      <stop
         id="stop3739-4-2-5-9"
         style="stop-color:#ffffff;stop-opacity:1"
         offset="0" />
      <stop
         id="stop3741-0-7-2-0"
         style="stop-color:#ffffff;stop-opacity:0"
         offset="1" />
    </linearGradient>
    <radialGradient
       cx="48"
       cy="90.171875"
       r="42"
       fx="48"
       fy="90.171875"
       id="radialGradient12110"
       xlink:href="#linearGradient3737-2-3-3-5"
       gradientUnits="userSpaceOnUse"
       gradientTransform="matrix(1.1573129,0,0,0.99590774,150.5201,509.09472)" />
    <linearGradient
       id="linearGradient12165">
      <stop
         id="stop12167"
         style="stop-color:#ffffff;stop-opacity:1"
         offset="0" />
      <stop
         id="stop12169"
         style="stop-color:#ffffff;stop-opacity:0"
         offset="1" />
    </linearGradient>
    <linearGradient
       x1="32.251034"
       y1="6.1317081"
       x2="32.251034"
       y2="90.238609"
       id="linearGradient2919"
       xlink:href="#ButtonShadow-0-3-0-4-4"
       gradientUnits="userSpaceOnUse"
       gradientTransform="matrix(1.0238095,0,0,1.0119048,-1.1428571,-98.071429)" />
    <linearGradient
       x1="32.251034"
       y1="6.1317081"
       x2="32.251034"
       y2="90.238609"
       id="linearGradient2921"
       xlink:href="#ButtonShadow-0-3-0-4-4"
       gradientUnits="userSpaceOnUse"
       gradientTransform="matrix(1.0238095,0,0,1.0119048,-1.1428571,-98.071429)" />
    <linearGradient
       x1="32.251034"
       y1="6.1317081"
       x2="32.251034"
       y2="90.238609"
       id="linearGradient2923"
       xlink:href="#ButtonShadow-0-3-0-4-4"
       gradientUnits="userSpaceOnUse"
       gradientTransform="matrix(1.0238095,0,0,1.0119048,-1.1428571,-98.071429)" />
    <linearGradient
       x1="32.251034"
       y1="6.1317081"
       x2="32.251034"
       y2="90.238609"
       id="linearGradient2925"
       xlink:href="#ButtonShadow-0-3-0-4-4"
       gradientUnits="userSpaceOnUse"
       gradientTransform="matrix(1.0238095,0,0,1.0119048,-1.1428571,-98.071429)" />
    <linearGradient
       x1="32.251034"
       y1="6.1317081"
       x2="32.251034"
       y2="90.238609"
       id="linearGradient2927"
       xlink:href="#ButtonShadow-0-3-0-4-4"
       gradientUnits="userSpaceOnUse"
       gradientTransform="translate(0,-97)" />
    <linearGradient
       x1="48"
       y1="90"
       x2="48"
       y2="5.9877172"
       id="linearGradient2929"
       xlink:href="#radialGradient3953-8-2-7-3"
       gradientUnits="userSpaceOnUse"
       gradientTransform="translate(158.07112,-604.89759)" />
    <linearGradient
       x1="36.357143"
       y1="6"
       x2="36.357143"
       y2="63.893143"
       id="linearGradient2931"
       xlink:href="#linearGradient3737-2-3-3-5"
       gradientUnits="userSpaceOnUse"
       gradientTransform="translate(158.07112,508.89759)" />
    <radialGradient
       cx="48"
       cy="90.171875"
       r="42"
       fx="48"
       fy="90.171875"
       id="radialGradient2933"
       xlink:href="#linearGradient3737-2-3-3-5"
       gradientUnits="userSpaceOnUse"
       gradientTransform="matrix(1.1573129,0,0,0.99590774,150.5201,509.09472)" />
    <radialGradient
       cx="48"
       cy="90.171875"
       r="42"
       fx="48"
       fy="90.171875"
       id="radialGradient2937"
       xlink:href="#linearGradient3737-2-3-3-5"
       gradientUnits="userSpaceOnUse"
       gradientTransform="matrix(1.1573129,0,0,0.99590774,-7.51977,-0.83412)" />
    <linearGradient
       x1="36.357143"
       y1="6"
       x2="36.357143"
       y2="63.893143"
       id="linearGradient2940"
       xlink:href="#linearGradient3737-2-3-3-5"
       gradientUnits="userSpaceOnUse"
       gradientTransform="translate(0.03125,-1.03125)" />
    <linearGradient
       x1="48"
       y1="90"
       x2="48"
       y2="5.9877172"
       id="linearGradient2943"
       xlink:href="#radialGradient3953-8-2-7-3"
       gradientUnits="userSpaceOnUse"
       gradientTransform="translate(0.03125,-94.96875)" />
    <linearGradient
       x1="32.251034"
       y1="6.1317081"
       x2="32.251034"
       y2="90.238609"
       id="linearGradient2952"
       xlink:href="#ButtonShadow-0-3-0-4-4"
       gradientUnits="userSpaceOnUse"
       gradientTransform="matrix(1.0238095,0,0,1.0119048,-1.1428571,-98.071429)" />
    <linearGradient
       x1="32.251034"
       y1="6.1317081"
       x2="32.251034"
       y2="90.238609"
       id="linearGradient2954"
       xlink:href="#ButtonShadow-0-3-0-4-4"
       gradientUnits="userSpaceOnUse"
       gradientTransform="matrix(1.0238095,0,0,1.0119048,-1.1428571,-98.071429)" />
    <linearGradient
       x1="32.251034"
       y1="6.1317081"
       x2="32.251034"
       y2="90.238609"
       id="linearGradient2956"
       xlink:href="#ButtonShadow-0-3-0-4-4"
       gradientUnits="userSpaceOnUse"
       gradientTransform="matrix(1.0238095,0,0,1.0119048,-1.1428571,-98.071429)" />
    <linearGradient
       x1="32.251034"
       y1="6.1317081"
       x2="32.251034"
       y2="90.238609"
       id="linearGradient2958"
       xlink:href="#ButtonShadow-0-3-0-4-4"
       gradientUnits="userSpaceOnUse"
       gradientTransform="matrix(1.0238095,0,0,1.0119048,-1.1428571,-98.071429)" />
    <linearGradient
       x1="32.251034"
       y1="6.1317081"
       x2="32.251034"
       y2="90.238609"
       id="linearGradient2960"
       xlink:href="#ButtonShadow-0-3-0-4-4"
       gradientUnits="userSpaceOnUse"
       gradientTransform="translate(0,-97)" />
    <linearGradient
       x1="32.251034"
       y1="6.1317081"
       x2="32.251034"
       y2="90.238609"
       id="linearGradient2963"
       xlink:href="#ButtonShadow-0-3-0-4-4"
       gradientUnits="userSpaceOnUse"
       gradientTransform="translate(0.03125,-95.96875)" />
    <linearGradient
       x1="32.251034"
       y1="6.1317081"
       x2="32.251034"
       y2="90.238609"
       id="linearGradient2966"
       xlink:href="#ButtonShadow-0-3-0-4-4"
       gradientUnits="userSpaceOnUse"
       gradientTransform="matrix(1.0238095,0,0,1.0119048,-1.1116071,-97.040179)" />
    <linearGradient
       x1="32.251034"
       y1="6.1317081"
       x2="32.251034"
       y2="90.238609"
       id="linearGradient2969"
       xlink:href="#ButtonShadow-0-3-0-4-4"
       gradientUnits="userSpaceOnUse"
       gradientTransform="matrix(1.0238095,0,0,-1.0119048,-1.1116071,97.040179)" />
    <linearGradient
       x1="32.251034"
       y1="6.1317081"
       x2="32.251034"
       y2="90.238609"
       id="linearGradient2972"
       xlink:href="#ButtonShadow-0-3-0-4-4"
       gradientUnits="userSpaceOnUse"
       gradientTransform="matrix(1.0238095,0,0,-1.0119048,-1.1116071,97.040179)" />
    <linearGradient
       x1="32.251034"
       y1="6.1317081"
       x2="32.251034"
       y2="90.238609"
       id="linearGradient2975"
       xlink:href="#ButtonShadow-0-3-0-4-4"
       gradientUnits="userSpaceOnUse"
       gradientTransform="matrix(1.0238095,0,0,-1.0119048,-1.1116071,97.040179)" />
  </defs>
  <path
     d="M 12.03125,94 C 6.5201597,94 2,89.47984 2,83.96875 l 0,-71 C 2,7.4576598 6.5201598,2.9375 12.03125,2.9375 l 72,0 c 5.51109,0 10.03125,4.5201597 10.03125,10.03125 l 0,71 C 94.0625,89.47984 89.54234,94 84.03125,94 l -72,0 z"
     id="path3786-9-7-3"
     style="opacity:0.07999998;fill:url(#linearGradient2975);fill-opacity:1;fill-rule:nonzero;stroke:none;display:inline" />
  <path
     d="M 12.03125,93 C 7.059617,93 3,88.940383 3,83.96875 l 0,-71 C 3,7.9971171 7.0596171,3.9375 12.03125,3.9375 l 72,0 c 4.971633,0 9.03125,4.059617 9.03125,9.03125 l 0,71 C 93.0625,88.940383 89.002883,93 84.03125,93 l -72,0 z"
     id="path3778-3-4-4"
     style="opacity:0.1;fill:url(#linearGradient2972);fill-opacity:1;fill-rule:nonzero;stroke:none;display:inline" />
  <path
     d="m 12.03125,91.96875 c -4.4091333,0 -8,-3.590867 -8,-8 l 0,-71 c 0,-4.4091333 3.5908667,-8 8,-8 l 72,0 c 4.409133,0 8,3.5908667 8,8 l 0,71 c 0,4.409133 -3.590867,8 -8,8 l -72,0 z"
     id="path3770-3-3-4"
     style="opacity:0.2;fill:url(#linearGradient2969);fill-opacity:1;fill-rule:nonzero;stroke:none;display:inline" />
  <rect
     width="86"
     height="85"
     rx="7"
     ry="7"
     x="5.03125"
     y="-90.96875"
     transform="scale(1,-1)"
     id="rect3723-8-5-6"
     style="opacity:0.3;fill:url(#linearGradient2966);fill-opacity:1;fill-rule:nonzero;stroke:none;display:inline" />
  <rect
     width="84"
     height="84"
     rx="6"
     ry="6"
     x="6.03125"
     y="-89.96875"
     transform="scale(1,-1)"
     id="rect3716-0-9-1"
     style="opacity:0.45;fill:url(#linearGradient2963);fill-opacity:1;fill-rule:nonzero;stroke:none;display:inline" />
  <path
     d="m 46.03939,7.33875 c -11.84369,0.33566 -19.96398,5.94379 -20,5.96875 -8e-5,5e-5 -0.0312,0 -0.0312,0 -0.0269,0.0208 -0.19651,0.16381 -0.1875,0.15625 0.01,-0.008 -0.19649,0.16563 -0.1875,0.15625 0.009,-0.009 -0.16417,0.22905 -0.15625,0.21875 0.008,-0.0103 -0.16301,0.1986 -0.15625,0.1875 0.007,-0.0111 -0.13051,0.26176 -0.125,0.25 0.005,-0.0118 -0.0979,0.23104 -0.0937,0.21875 0.004,-0.0123 -0.0653,0.26268 -0.0625,0.25 10e-4,-0.006 -0.0199,0.0577 -0.0312,0.125 a 1.3577032,1.3577032 0 0 0 -0.0937,0 c 0,0 -1.9163,0.35192 -3.8125,1.8125 -2.81496,2.16793 -9.23098,7.49552 -12.96875,17.59375 -5.75378,15.54546 0.38367,32.39761 12.40625,42.625 12.14765,10.33378 27.0625,9.09375 27.0625,9.09375 a 1.3577032,1.3577032 0 0 0 0.0312,0 c -0.009,8.6e-4 0.19609,-0.0327 0.1875,-0.0312 -0.009,0.002 0.16471,-0.0334 0.15625,-0.0312 -0.008,0.002 0.16453,-0.034 0.15625,-0.0312 -0.008,0.003 0.19556,-0.0658 0.1875,-0.0625 -0.008,0.003 0.16405,-0.0664 0.15625,-0.0625 -0.008,0.004 0.13249,-0.0982 0.125,-0.0937 -0.002,0.001 0.0189,-0.0232 0.0312,-0.0312 0.33175,-0.0692 0.66503,-0.19594 1,-0.3125 0.83512,0.1 1.71433,0.18188 2.625,0.125 9.12123,-0.56973 22.93174,-6.12665 30.53125,-18.25 5.8016,-9.25563 6.56552,-18.1903 5.46875,-25.25 -1.09601,-7.05478 -3.96768,-12.25798 -5.40625,-14.53125 -0.96582,-1.58414 -1.65665,-2.32905 -2.0625,-2.75 l 0.0312,0 c -0.0467,-0.0637 -0.079,-0.10501 -0.0937,-0.125 -0.17251,-0.23414 -0.36282,-0.46988 -0.53125,-0.6875 A 1.3577032,1.3577032 0 0 0 80.03949,23.714 1.3577032,1.3577032 0 0 0 80.00829,23.6828 C 79.42762,22.73417 78.8448,21.72244 78.07079,20.83905 74.34104,16.58219 65.86295,9.09758 51.35204,7.5578 49.53631,7.36513 47.75692,7.29038 46.03954,7.33905 z"
     id="path3933-6-6-8"
     style="opacity:0.07999998;fill:#000000;fill-opacity:1" />
  <rect
     width="84"
     height="84"
     rx="6"
     ry="6"
     x="6.0312514"
     y="-88.968742"
     transform="scale(1,-1)"
     id="rect3959-6-0-9"
     style="fill:url(#linearGradient2943);fill-opacity:1;fill-rule:nonzero;stroke:none" />
  <path
     d="m 12.03125,4.96875 c -3.324,0 -6,2.676 -6,6 l 0,2 0,68 0,2 c 0,0.33472 0.0413,0.6507 0.0937,0.96875 0.0487,0.2956 0.097,0.59691 0.1875,0.875 0.01,0.0304 0.0209,0.0636 0.0312,0.0937 0.0989,0.28777 0.23488,0.54745 0.375,0.8125 0.14459,0.27351 0.31562,0.53561 0.5,0.78125 0.18438,0.24563 0.37378,0.47347 0.59375,0.6875 0.43995,0.42806 0.94291,0.81453 1.5,1.09375 0.27855,0.13961 0.57347,0.24695 0.875,0.34375 -0.2562,-0.10022 -0.48671,-0.23627 -0.71875,-0.375 -0.007,-0.004 -0.0239,0.005 -0.0312,0 -0.0319,-0.0193 -0.0623,-0.0425 -0.0937,-0.0625 C 9.22336,88.11075 9.11273,88.02394 9,87.93745 8.89383,87.85665 8.78672,87.77634 8.6875,87.68745 8.50957,87.52602 8.34004,87.34206 8.1875,87.1562 8.07992,87.02594 7.96911,86.89091 7.875,86.74995 7.8499,86.71155 7.8365,86.66405 7.8125,86.62495 7.7477,86.52192 7.68227,86.42043 7.625,86.31245 c -0.10101,-0.19471 -0.20567,-0.4157 -0.28125,-0.625 -0.008,-0.0218 -0.0236,-0.0405 -0.0312,-0.0625 -0.0318,-0.0919 -0.0358,-0.18683 -0.0625,-0.28125 -0.0303,-0.10662 -0.0704,-0.20303 -0.0937,-0.3125 -0.0729,-0.34151 -0.125,-0.69821 -0.125,-1.0625 l 0,-2 0,-68 0,-2 c 0,-2.78185 2.21815,-5 5,-5 l 2,0 68,0 2,0 c 2.78185,0 5,2.21815 5,5 l 0,2 0,68 0,2 c 0,0.36429 -0.0521,0.72099 -0.125,1.0625 -0.0442,0.20689 -0.0884,0.39766 -0.15625,0.59375 -0.008,0.022 -0.0233,0.0407 -0.0312,0.0625 -0.0627,0.17374 -0.13838,0.36745 -0.21875,0.53125 -0.0416,0.0828 -0.079,0.16995 -0.125,0.25 -0.0546,0.0972 -0.12677,0.18835 -0.1875,0.28125 -0.0941,0.14096 -0.20492,0.27599 -0.3125,0.40625 -0.14317,0.17445 -0.30314,0.347 -0.46875,0.5 -0.0112,0.0102 -0.02,0.0212 -0.0312,0.0312 -0.13839,0.12556 -0.28509,0.23444 -0.4375,0.34375 -0.10257,0.0732 -0.20432,0.15336 -0.3125,0.21875 -0.007,0.005 -0.0238,-0.004 -0.0312,0 -0.23204,0.13873 -0.46255,0.27478 -0.71875,0.375 0.30153,-0.0968 0.59645,-0.20414 0.875,-0.34375 0.55709,-0.27922 1.06005,-0.66569 1.5,-1.09375 0.21997,-0.21403 0.40937,-0.44187 0.59375,-0.6875 0.18438,-0.24564 0.35541,-0.50774 0.5,-0.78125 0.14012,-0.26505 0.27614,-0.52473 0.375,-0.8125 0.0104,-0.0308 0.0213,-0.0627 0.0312,-0.0937 0.0905,-0.27809 0.1388,-0.5794 0.1875,-0.875 0.0524,-0.31805 0.0937,-0.63403 0.0937,-0.96875 l 0,-2 0,-68 0,-2 c 0,-3.324 -2.676,-6 -6,-6 l -72,0 z"
     id="rect3728-6-1-8"
     style="opacity:0.5;fill:url(#linearGradient2940);fill-opacity:1;fill-rule:nonzero;stroke:none" />
  <path
     d="m 12.03125,88.96875 c -3.324,0 -6,-2.676 -6,-6 l 0,-2 0,-68 0,-2 c 0,-0.33472 0.0413,-0.6507 0.0937,-0.96875 0.0487,-0.2956 0.097,-0.59692 0.1875,-0.875 0.01,-0.0304 0.0209,-0.0636 0.0312,-0.0937 0.0989,-0.28777 0.23488,-0.54745 0.375,-0.8125 0.14459,-0.27351 0.31562,-0.53562 0.5,-0.78125 C 7.40303,7.19191 7.59243,6.96408 7.8124,6.75005 8.25235,6.32199 8.75531,5.93552 9.3124,5.6563 9.59095,5.51669 9.88587,5.40935 10.1874,5.31255 9.9312,5.41277 9.70069,5.54882 9.46865,5.68755 c -0.007,0.004 -0.0239,-0.004 -0.0312,0 -0.0319,0.0193 -0.0623,0.0425 -0.0937,0.0625 C 9.22336,5.82675 9.11273,5.91356 9,6.00005 8.89383,6.08085 8.78672,6.16116 8.6875,6.25005 8.50957,6.41148 8.34004,6.59544 8.1875,6.7813 8.07992,6.91155 7.96911,7.04658 7.875,7.18755 7.8499,7.22595 7.8365,7.27345 7.8125,7.31255 7.7477,7.41558 7.68227,7.51707 7.625,7.62505 c -0.10101,0.19471 -0.20567,0.4157 -0.28125,0.625 -0.008,0.0218 -0.0236,0.0406 -0.0312,0.0625 -0.0318,0.092 -0.0358,0.18683 -0.0625,0.28125 -0.0303,0.10662 -0.0704,0.20303 -0.0937,0.3125 -0.0729,0.34151 -0.125,0.6982 -0.125,1.0625 l 0,2 0,68 0,2 c 0,2.78185 2.21815,5 5,5 l 2,0 68,0 2,0 c 2.78185,0 5,-2.21815 5,-5 l 0,-2 0,-68 0,-2 c 0,-0.3643 -0.0521,-0.72099 -0.125,-1.0625 C 88.86215,8.69941 88.81795,8.50864 88.7501,8.31255 88.7421,8.29065 88.7268,8.27185 88.7189,8.25005 88.6562,8.07631 88.58052,7.8826 88.50015,7.7188 88.45855,7.636 88.42115,7.54885 88.37515,7.4688 88.32055,7.3716 88.24838,7.28045 88.18765,7.18755 88.09355,7.04658 87.98273,6.91155 87.87515,6.7813 87.73198,6.60685 87.57201,6.4343 87.4064,6.2813 87.3952,6.2711 87.3864,6.2602 87.3752,6.2501 87.23681,6.12454 87.09011,6.01566 86.9377,5.90635 86.83513,5.83325 86.73338,5.75299 86.6252,5.6876 c -0.007,-0.004 -0.0238,0.004 -0.0312,0 -0.23204,-0.13873 -0.46255,-0.27478 -0.71875,-0.375 0.30153,0.0968 0.59645,0.20414 0.875,0.34375 0.55709,0.27922 1.06005,0.66569 1.5,1.09375 0.21997,0.21403 0.40937,0.44186 0.59375,0.6875 0.18438,0.24563 0.35541,0.50774 0.5,0.78125 0.14012,0.26505 0.27614,0.52473 0.375,0.8125 0.0104,0.0308 0.0213,0.0627 0.0312,0.0937 0.0905,0.27808 0.1388,0.5794 0.1875,0.875 0.0524,0.31805 0.0937,0.63403 0.0937,0.96875 l 0,2 0,68 0,2 c 0,3.324 -2.676,6 -6,6 l -72,0 z"
     id="path3615-4-5-2"
     style="opacity:0.2;fill:url(#radialGradient2937);fill-opacity:1;fill-rule:nonzero;stroke:none" />
  <path
     d="m 417.69807,436.42166 a 7.8286824,5.3033009 0 1 1 -15.65737,0 7.8286824,5.3033009 0 1 1 15.65737,0 z"
     transform="matrix(2.6038803,0,0,2.4011324,-1005.0529,-980.46125)"
     id="path2830"
     style="fill:#fffb00;fill-opacity:1;stroke:#000000;stroke-width:1.3409158;stroke-linejoin:miter;stroke-miterlimit:4;stroke-opacity:1;stroke-dasharray:none" />
  <path
     d="m 46.331154,15.977692 4.886312,0 0,9.448311 c 0,0.936908 -0.147754,1.82336 -0.443215,2.659357 -0.288306,0.828795 -0.745946,1.556704 -1.37292,2.183701 -0.61982,0.619797 -1.272057,1.055833 -1.956688,1.308063 -0.951333,0.353141 -2.093627,0.529723 -3.426906,0.529723 -0.771162,0 -1.61436,-0.05407 -2.529641,-0.162203 -0.908079,-0.108135 -1.668428,-0.320723 -2.281,-0.637811 C 38.594501,30.98252 38.032361,30.52488 37.520677,29.933889 37.01617,29.342921 36.670254,28.733938 36.482859,28.10694 36.180174,27.097974 36.028831,26.20432 36.028831,25.425957 l 0,-9.448312 4.886312,0 0,9.675326 c 0,0.864848 0.237827,1.542301 0.713482,2.032359 0.482857,0.482879 1.149496,0.724296 1.999942,0.724296 0.843198,0 1.502636,-0.237828 1.978291,-0.713483 0.482856,-0.482856 0.724296,-1.163921 0.724296,-2.043172 l 0,-9.675326"
     id="path2991"
     style="font-size:9.5px;font-style:normal;font-variant:normal;font-weight:bold;font-stretch:normal;fill:#d70000;fill-opacity:1;stroke:none;font-family:Arial Black;-inkscape-font-specification:'Arial Black, Bold'" />
  <path
     d="m 54.428172,15.977692 6.443016,0 2.486386,9.642885 2.475597,-9.642885 6.421389,0 0,15.848073 -3.99986,0 0,-12.086041 -3.102594,12.086041 -3.62148,0 -3.091781,-12.086041 0,12.086041 -4.010673,0 0,-15.848073"
     id="path2993"
     style="font-size:9.5px;font-style:normal;font-variant:normal;font-weight:bold;font-stretch:normal;fill:#d70000;fill-opacity:1;stroke:none;font-family:Arial Black;-inkscape-font-specification:'Arial Black, Bold'" />
  <path
     d="m 75.367967,15.977692 4.897102,0 0,11.945512 7.64299,0 0,3.902561 -12.540092,0 0,-15.848073"
     id="path2995"
     style="font-size:9.5px;font-style:normal;font-variant:normal;font-weight:bold;font-stretch:normal;fill:#d70000;fill-opacity:1;stroke:none;font-family:Arial Black;-inkscape-font-specification:'Arial Black, Bold'" />
  <path
     d="m 368.07434,420.13297 a 2.7779195,2.7779195 0 1 1 -5.55584,0 2.7779195,2.7779195 0 1 1 5.55584,0 z"
     transform="matrix(2.3304996,0,0,2.3304996,-829.58747,-958.26913)"
     id="path3612"
     style="fill:#ffffff;fill-opacity:1;stroke:#000000;stroke-width:1;stroke-linejoin:miter;stroke-miterlimit:4;stroke-opacity:1;stroke-dasharray:none" />
  <path
     d="m 21.735683,26.029149 0,18.644"
     id="path3614"
     style="fill:none;stroke:#000000;stroke-width:2.33049965px;stroke-linecap:butt;stroke-linejoin:miter;stroke-opacity:1" />
  <path
     d="m 21.735683,44.673149 11.652496,9.321997"
     id="path3616"
     style="fill:none;stroke:#000000;stroke-width:2.33049965px;stroke-linecap:butt;stroke-linejoin:miter;stroke-opacity:1" />
  <path
     d="m 21.735683,33.020647 11.652496,0"
     id="path3618"
     style="fill:none;stroke:#000000;stroke-width:2.33049965px;stroke-linecap:butt;stroke-linejoin:miter;stroke-opacity:1" />
  <path
     d="m 21.735683,33.020647 -11.652498,0"
     id="path3620"
     style="fill:none;stroke:#000000;stroke-width:2.33049965px;stroke-linecap:butt;stroke-linejoin:miter;stroke-opacity:1" />
  <path
     d="M 28.727182,37.68165 45.040681,51.664648"
     id="path3622"
     style="fill:none;stroke:#000000;stroke-width:2.33049965px;stroke-linecap:butt;stroke-linejoin:miter;stroke-opacity:1;marker-end:none" />
  <path
     d="M 10.083185,53.995146 21.735683,44.673149"
     id="path4847"
     style="fill:none;stroke:#000000;stroke-width:2.33049965px;stroke-linecap:butt;stroke-linejoin:miter;stroke-opacity:1" />
  <path
     d="m 45.040681,42.342647 0,9.322001 -9.045977,0.09648"
     id="path5042"
     style="fill:none;stroke:#000000;stroke-width:2.33049965px;stroke-linecap:butt;stroke-linejoin:miter;stroke-opacity:1" />
</svg>
