<?xml version="1.0" encoding="UTF-8" standalone="no"?>
<!-- Created with Inkscape (http://www.inkscape.org/) -->

<svg
   xmlns:dc="http://purl.org/dc/elements/1.1/"
   xmlns:cc="http://creativecommons.org/ns#"
   xmlns:rdf="http://www.w3.org/1999/02/22-rdf-syntax-ns#"
   xmlns:svg="http://www.w3.org/2000/svg"
   xmlns="http://www.w3.org/2000/svg"
   xmlns:xlink="http://www.w3.org/1999/xlink"
   xmlns:sodipodi="http://sodipodi.sourceforge.net/DTD/sodipodi-0.dtd"
   xmlns:inkscape="http://www.inkscape.org/namespaces/inkscape"
   version="1.1"
   width="96"
   height="96"
   id="svg12936"
   inkscape:version="0.48.0 r9654"
   sodipodi:docname="bouml-3.svg">
  <sodipodi:namedview
     pagecolor="#ffffff"
     bordercolor="#666666"
     borderopacity="1"
     objecttolerance="10"
     gridtolerance="10"
     guidetolerance="10"
     inkscape:pageopacity="0"
     inkscape:pageshadow="2"
     inkscape:window-width="1023"
     inkscape:window-height="599"
     id="namedview136"
     showgrid="false"
     inkscape:zoom="3.327385"
     inkscape:cx="13.058037"
     inkscape:cy="44.973326"
     inkscape:window-x="1"
     inkscape:window-y="0"
     inkscape:window-maximized="1"
     inkscape:current-layer="svg12936" />
  <metadata
     id="metadata69">
    <rdf:RDF>
      <cc:Work
         rdf:about="">
        <dc:format>image/svg+xml</dc:format>
        <dc:type
           rdf:resource="http://purl.org/dc/dcmitype/StillImage" />
        <dc:title />
      </cc:Work>
    </rdf:RDF>
  </metadata>
  <defs
     id="defs12938">
    <linearGradient
       id="linearGradient4329">
      <stop
         id="stop4331"
         style="stop-color:#ffffff;stop-opacity:0.63063061"
         offset="0" />
      <stop
         id="stop4333"
         style="stop-color:#ffffff;stop-opacity:0"
         offset="1" />
    </linearGradient>
    <linearGradient
       id="linearGradient4309">
      <stop
         id="stop4311"
         style="stop-color:#b64523;stop-opacity:1"
         offset="0" />
      <stop
         id="stop4313"
         style="stop-color:#ec6424;stop-opacity:1"
         offset="1" />
    </linearGradient>
    <linearGradient
       id="linearGradient3860">
      <stop
         id="stop3862"
         style="stop-color:#f5d6a4;stop-opacity:1"
         offset="0" />
      <stop
         id="stop3864"
         style="stop-color:#eceff2;stop-opacity:0.96062994"
         offset="1" />
    </linearGradient>
    <radialGradient
       cx="363.57639"
       cy="283.96799"
       r="226.9742"
       fx="223.23711"
       fy="279.06631"
       id="radialGradient3854"
       gradientUnits="userSpaceOnUse"
       gradientTransform="matrix(0.2694,0.963,0.6475,-0.1811,-112.0564,-13.5191)">
      <stop
         id="stop3856"
         style="stop-color:#fa7d38;stop-opacity:1"
         offset="0" />
      <stop
         id="stop3858"
         style="stop-color:#ece17d;stop-opacity:1"
         offset="0.8574" />
    </radialGradient>
    <linearGradient
       x1="32.251034"
       y1="6.1317081"
       x2="32.251034"
       y2="90.238609"
       id="linearGradient12831"
       xlink:href="#ButtonShadow-0-3-0-4"
       gradientUnits="userSpaceOnUse"
       gradientTransform="matrix(1.0238095,0,0,1.0119048,-1.1428571,-98.071429)" />
    <linearGradient
       x1="45.447727"
       y1="92.539597"
       x2="45.447727"
       y2="7.0165396"
       id="ButtonShadow-0-3-0-4"
       gradientUnits="userSpaceOnUse"
       gradientTransform="matrix(1.0058652,0,0,0.994169,100,0)">
      <stop
         id="stop3750-8-4-4-5"
         style="stop-color:#000000;stop-opacity:1"
         offset="0" />
      <stop
         id="stop3752-5-0-8-78"
         style="stop-color:#000000;stop-opacity:0.58823532"
         offset="1" />
    </linearGradient>
    <linearGradient
       x1="32.251034"
       y1="6.1317081"
       x2="32.251034"
       y2="90.238609"
       id="linearGradient12833"
       xlink:href="#ButtonShadow-0-3-0-4"
       gradientUnits="userSpaceOnUse"
       gradientTransform="matrix(1.0238095,0,0,1.0119048,-1.1428571,-98.071429)" />
    <linearGradient
       x1="45.447727"
       y1="92.539597"
       x2="45.447727"
       y2="7.0165396"
       id="linearGradient12864"
       gradientUnits="userSpaceOnUse"
       gradientTransform="matrix(1.0058652,0,0,0.994169,100,0)">
      <stop
         id="stop12866"
         style="stop-color:#000000;stop-opacity:1"
         offset="0" />
      <stop
         id="stop12868"
         style="stop-color:#000000;stop-opacity:0.58823532"
         offset="1" />
    </linearGradient>
    <linearGradient
       x1="32.251034"
       y1="6.1317081"
       x2="32.251034"
       y2="90.238609"
       id="linearGradient12835"
       xlink:href="#ButtonShadow-0-3-0-4"
       gradientUnits="userSpaceOnUse"
       gradientTransform="matrix(1.0238095,0,0,1.0119048,-1.1428571,-98.071429)" />
    <linearGradient
       x1="45.447727"
       y1="92.539597"
       x2="45.447727"
       y2="7.0165396"
       id="linearGradient12871"
       gradientUnits="userSpaceOnUse"
       gradientTransform="matrix(1.0058652,0,0,0.994169,100,0)">
      <stop
         id="stop12873"
         style="stop-color:#000000;stop-opacity:1"
         offset="0" />
      <stop
         id="stop12875"
         style="stop-color:#000000;stop-opacity:0.58823532"
         offset="1" />
    </linearGradient>
    <linearGradient
       x1="32.251034"
       y1="6.1317081"
       x2="32.251034"
       y2="90.238609"
       id="linearGradient12837"
       xlink:href="#ButtonShadow-0-3-0-4"
       gradientUnits="userSpaceOnUse"
       gradientTransform="matrix(1.0238095,0,0,1.0119048,-1.1428571,-98.071429)" />
    <linearGradient
       x1="45.447727"
       y1="92.539597"
       x2="45.447727"
       y2="7.0165396"
       id="linearGradient12878"
       gradientUnits="userSpaceOnUse"
       gradientTransform="matrix(1.0058652,0,0,0.994169,100,0)">
      <stop
         id="stop12880"
         style="stop-color:#000000;stop-opacity:1"
         offset="0" />
      <stop
         id="stop12882"
         style="stop-color:#000000;stop-opacity:0.58823532"
         offset="1" />
    </linearGradient>
    <linearGradient
       x1="32.251034"
       y1="6.1317081"
       x2="32.251034"
       y2="90.238609"
       id="linearGradient12839"
       xlink:href="#ButtonShadow-0-3-0-4"
       gradientUnits="userSpaceOnUse"
       gradientTransform="translate(0,-97)" />
    <linearGradient
       x1="45.447727"
       y1="92.539597"
       x2="45.447727"
       y2="7.0165396"
       id="linearGradient12885"
       gradientUnits="userSpaceOnUse"
       gradientTransform="matrix(1.0058652,0,0,0.994169,100,0)">
      <stop
         id="stop12887"
         style="stop-color:#000000;stop-opacity:1"
         offset="0" />
      <stop
         id="stop12889"
         style="stop-color:#000000;stop-opacity:0.58823532"
         offset="1" />
    </linearGradient>
    <linearGradient
       x1="48"
       y1="90"
       x2="48"
       y2="5.9877172"
       id="linearGradient12841"
       xlink:href="#radialGradient3953-8-2-7"
       gradientUnits="userSpaceOnUse"
       gradientTransform="translate(224.85714,-533.14789)" />
    <radialGradient
       cx="363.57639"
       cy="283.96799"
       r="226.9742"
       fx="223.23711"
       fy="279.06631"
       id="radialGradient3953-8-2-7"
       gradientUnits="userSpaceOnUse"
       gradientTransform="matrix(0.2694,0.963,0.6475,-0.1811,-112.0564,-13.5191)">
      <stop
         id="stop3955-1-2-69"
         style="stop-color:#fffdd3;stop-opacity:1"
         offset="0" />
      <stop
         id="stop3957-3-3-5"
         style="stop-color:#ffea64;stop-opacity:1"
         offset="0.8574" />
    </radialGradient>
    <linearGradient
       x1="36.357143"
       y1="6"
       x2="36.357143"
       y2="63.893143"
       id="linearGradient12843"
       xlink:href="#linearGradient3737-2-3-3"
       gradientUnits="userSpaceOnUse"
       gradientTransform="translate(224.85714,437.14789)" />
    <linearGradient
       id="linearGradient3737-2-3-3">
      <stop
         id="stop3739-4-2-5"
         style="stop-color:#ffffff;stop-opacity:1"
         offset="0" />
      <stop
         id="stop3741-0-7-2"
         style="stop-color:#ffffff;stop-opacity:0"
         offset="1" />
    </linearGradient>
    <radialGradient
       cx="48"
       cy="90.171875"
       r="42"
       fx="48"
       fy="90.171875"
       id="radialGradient12845"
       xlink:href="#linearGradient3737-2-3-3"
       gradientUnits="userSpaceOnUse"
       gradientTransform="matrix(1.1573129,0,0,0.99590774,217.30612,437.34502)" />
    <linearGradient
       id="linearGradient12900">
      <stop
         id="stop12902"
         style="stop-color:#ffffff;stop-opacity:1"
         offset="0" />
      <stop
         id="stop12904"
         style="stop-color:#ffffff;stop-opacity:0"
         offset="1" />
    </linearGradient>
    <radialGradient
       cx="48"
       cy="90.171875"
       r="42"
       fx="48"
       fy="90.171875"
       id="radialGradient3069"
       xlink:href="#linearGradient3737-2-3-3"
       gradientUnits="userSpaceOnUse"
       gradientTransform="matrix(1.1273681,0,0,0.97013924,-5.2706689,1.0015819)" />
    <linearGradient
       x1="36.357143"
       y1="6"
       x2="36.357143"
       y2="63.893143"
       id="linearGradient3072"
       xlink:href="#linearGradient3737-2-3-3"
       gradientUnits="userSpaceOnUse"
       gradientTransform="matrix(0.97412562,0,0,0.97412562,2.0849731,0.80955247)" />
    <radialGradient
       cx="62.182114"
       cy="-64.857353"
       r="42"
       fx="62.182114"
       fy="-64.857353"
       id="radialGradient3852"
       xlink:href="#radialGradient3854"
       gradientUnits="userSpaceOnUse"
       gradientTransform="matrix(1.9267956,0.02810544,-0.02240339,1.5358855,-56.689249,30.010987)" />
    <linearGradient
       x1="344.23126"
       y1="568.74835"
       x2="343.95688"
       y2="557.64117"
       id="linearGradient3866"
       xlink:href="#linearGradient3860"
       gradientUnits="userSpaceOnUse"
       gradientTransform="matrix(1.3625987,0,0,1.3625987,-124.61659,-207.18797)" />
    <linearGradient
       x1="320.88278"
       y1="574.21765"
       x2="320.86697"
       y2="562.6734"
       id="linearGradient3868"
       xlink:href="#linearGradient3860"
       gradientUnits="userSpaceOnUse"
       gradientTransform="translate(-2.784513,-0.33720809)" />
    <linearGradient
       x1="300.91983"
       y1="574.38257"
       x2="300.64276"
       y2="562.45844"
       id="linearGradient3870"
       xlink:href="#linearGradient3860"
       gradientUnits="userSpaceOnUse" />
    <linearGradient
       x1="308.78308"
       y1="553.78949"
       x2="308.63934"
       y2="542.87219"
       id="linearGradient3872"
       xlink:href="#linearGradient3860"
       gradientUnits="userSpaceOnUse" />
    <linearGradient
       id="linearGradient3860-4">
      <stop
         id="stop3862-6"
         style="stop-color:#9abcf1;stop-opacity:1"
         offset="0" />
      <stop
         id="stop3864-1"
         style="stop-color:#eceff2;stop-opacity:0.96062994"
         offset="1" />
    </linearGradient>
    <linearGradient
       id="linearGradient3889">
      <stop
         id="stop3891"
         style="stop-color:#9abcf1;stop-opacity:1"
         offset="0" />
      <stop
         id="stop3893"
         style="stop-color:#eceff2;stop-opacity:0.96062994"
         offset="1" />
    </linearGradient>
    <linearGradient
       x1="320.88278"
       y1="574.21765"
       x2="320.86697"
       y2="562.6734"
       id="linearGradient3868-6"
       xlink:href="#linearGradient3860-4"
       gradientUnits="userSpaceOnUse" />
    <linearGradient
       id="linearGradient3896">
      <stop
         id="stop3898"
         style="stop-color:#9abcf1;stop-opacity:1"
         offset="0" />
      <stop
         id="stop3900"
         style="stop-color:#eceff2;stop-opacity:0.96062994"
         offset="1" />
    </linearGradient>
    <linearGradient
       id="linearGradient3903">
      <stop
         id="stop3905"
         style="stop-color:#9abcf1;stop-opacity:1"
         offset="0" />
      <stop
         id="stop3907"
         style="stop-color:#eceff2;stop-opacity:0.96062994"
         offset="1" />
    </linearGradient>
    <mask
       id="mask3989">
      <rect
         width="84"
         height="84"
         rx="6"
         ry="6"
         x="4.0312572"
         y="-86.03125"
         transform="scale(1,-1)"
         id="rect3991"
         style="fill:#ffffff;fill-opacity:1;fill-rule:nonzero;stroke:none" />
    </mask>
    <mask
       id="mask4216">
      <g
         id="g4218"
         style="font-size:14px;font-style:normal;font-weight:normal;fill:#ffffff;fill-opacity:1;stroke:none;font-family:Bitstream Vera Sans">
        <path
           d="m 12.073235,74.622742 0,3.739258 2.214843,0 c 0.742833,1e-6 1.291986,-0.152668 1.647461,-0.458008 0.360019,-0.309894 0.540032,-0.781573 0.540039,-1.415039 -7e-6,-0.638018 -0.18002,-1.107418 -0.540039,-1.408203 -0.355475,-0.305334 -0.904628,-0.458003 -1.647461,-0.458008 l -2.214843,0 m 0,-4.197266 0,3.076172 2.043945,0 c 0.674474,6e-6 1.175775,-0.125319 1.503906,-0.375977 0.332676,-0.255201 0.499017,-0.642571 0.499024,-1.162109 -7e-6,-0.514966 -0.166348,-0.900057 -0.499024,-1.155273 -0.328131,-0.2552 -0.829432,-0.382804 -1.503906,-0.382813 l -2.043945,0 m -1.38086,-1.134766 3.527344,0 c 1.052728,1.1e-5 1.863925,0.21876 2.433594,0.65625 0.569653,0.43751 0.854484,1.059579 0.854492,1.866211 -8e-6,0.624356 -0.145842,1.121101 -0.4375,1.490235 -0.291674,0.369146 -0.720059,0.599289 -1.285156,0.690429 0.679029,0.145839 1.205396,0.451177 1.579101,0.916016 0.378247,0.460291 0.567374,1.036787 0.567383,1.729492 -9e-6,0.911461 -0.309904,1.615561 -0.929688,2.112305 -0.619798,0.496745 -1.501633,0.745117 -2.645507,0.745117 l -3.664063,0 0,-10.206055"
           id="path4220"
           style="font-size:14px;fill:#ffffff;stroke:none"
           inkscape:connector-curvature="0" />
        <path
           d="m 23.202141,72.722351 c -0.674483,7e-6 -1.207686,0.26433 -1.59961,0.792969 -0.391929,0.524094 -0.587892,1.244145 -0.58789,2.160156 -2e-6,0.916019 0.193682,1.638349 0.581054,2.166992 0.391925,0.52409 0.927406,0.786134 1.606446,0.786133 0.669917,10e-7 1.200841,-0.264322 1.592773,-0.792969 0.391921,-0.528643 0.587884,-1.248695 0.587891,-2.160156 -7e-6,-0.906896 -0.19597,-1.624669 -0.587891,-2.15332 -0.391932,-0.533197 -0.922856,-0.799798 -1.592773,-0.799805 m 0,-1.066406 c 1.093744,8e-6 1.952793,0.355476 2.577148,1.066406 0.624342,0.710944 0.936516,1.695318 0.936524,2.953125 -8e-6,1.253258 -0.312182,2.237632 -0.936524,2.953125 -0.624355,0.710938 -1.483404,1.066406 -2.577148,1.066406 -1.098311,0 -1.959638,-0.355468 -2.583985,-1.066406 -0.619792,-0.715493 -0.929688,-1.699867 -0.929687,-2.953125 -1e-6,-1.257807 0.309895,-2.242181 0.929687,-2.953125 0.624347,-0.71093 1.485674,-1.066398 2.583985,-1.066406"
           id="path4222"
           style="font-size:14px;fill:#ffffff;stroke:none"
           inkscape:connector-curvature="0" />
        <path
           d="m 29.677727,62.000671 4.511718,0 0,10.488282 c -6e-6,1.445318 0.234369,2.480473 0.703125,3.105468 0.476555,0.617191 1.249992,0.925785 2.320313,0.925782 1.078114,3e-6 1.851551,-0.308591 2.320312,-0.925782 0.47655,-0.624995 0.714831,-1.66015 0.714844,-3.105468 l 0,-10.488282 4.511719,0 0,10.488282 c -1.7e-5,2.476567 -0.62111,4.320315 -1.863281,5.53125 -1.242202,1.210937 -3.136731,1.816406 -5.683594,1.816406 -2.53907,0 -4.429693,-0.605469 -5.671875,-1.816406 -1.24219,-1.210935 -1.863283,-3.054683 -1.863281,-5.53125 l 0,-10.488282"
           id="path4224"
           style="font-weight:bold;fill:#ffffff;stroke:none"
           inkscape:connector-curvature="0" />
        <path
           d="m 49.177727,62.000671 5.742187,0 3.984375,9.363282 4.007813,-9.363282 5.730468,0 0,17.496094 -4.265625,0 0,-12.796875 -4.03125,9.433594 -2.859375,0 -4.03125,-9.433594 0,12.796875 -4.277343,0 0,-17.496094"
           id="path4226"
           style="font-weight:bold;fill:#ffffff;stroke:none"
           inkscape:connector-curvature="0" />
        <path
           d="m 73.083977,62.000671 4.511718,0 0,14.085938 7.921875,0 0,3.410156 -12.433593,0 0,-17.496094"
           id="path4228"
           style="font-weight:bold;fill:#ffffff;stroke:none"
           inkscape:connector-curvature="0" />
      </g>
    </mask>
    <filter
       x="-0.032824215"
       y="-0.13770391"
       width="1.0656484"
       height="1.2754078"
       color-interpolation-filters="sRGB"
       id="filter4265">
      <feGaussianBlur
         id="feGaussianBlur4267"
         stdDeviation="1.0233659" />
    </filter>
    <mask
       id="mask4305">
      <path
         d="m -5.40625,69.125 0,32.46875 106.375,0 0,-32.46875 -106.375,0 z m 34.78125,5.625 4.5,0 0,10.5 c -6e-6,1.445318 0.249993,2.468754 0.71875,3.09375 0.476555,0.617191 1.242179,0.937503 2.3125,0.9375 1.078114,3e-6 1.843739,-0.320309 2.3125,-0.9375 0.47655,-0.624996 0.718737,-1.648432 0.71875,-3.09375 l 0,-10.5 4.53125,0 0,10.5 c -1.7e-5,2.476567 -0.63283,4.320315 -1.875,5.53125 -1.242202,1.210938 -3.140637,1.8125 -5.6875,1.8125 -2.53907,0 -4.414068,-0.601562 -5.65625,-1.8125 C 30.00781,89.570315 29.374997,87.726567 29.375,85.25 l 0,-10.5 z m 19.5,0 5.75,0 3.96875,9.375 4.03125,-9.375 5.71875,0 0,17.5 -4.28125,0 0,-12.78125 -4.03125,9.4375 -2.84375,0 -4.03125,-9.4375 0,12.78125 -4.28125,0 0,-17.5 z m 23.90625,0 4.5,0 0,14.09375 7.9375,0 0,3.40625 -12.4375,0 0,-17.5 z m -62.375,7.3125 3.5,0 c 1.052728,1e-5 1.867831,0.21876 2.4375,0.65625 0.569653,0.437509 0.874992,1.037118 0.875,1.84375 -8e-6,0.624356 -0.145842,1.130866 -0.4375,1.5 -0.291674,0.369147 -0.716152,0.59636 -1.28125,0.6875 0.67903,0.145839 1.188794,0.441412 1.5625,0.90625 0.378247,0.460291 0.562491,1.057295 0.5625,1.75 -9e-6,0.91146 -0.317716,1.597007 -0.9375,2.09375 -0.619798,0.496745 -1.481126,0.75 -2.625,0.75 l -3.65625,0 0,-10.1875 z m 1.375,1.125 0,3.0625 2.03125,0 c 0.674473,6e-6 1.171869,-0.124343 1.5,-0.375 0.332676,-0.255202 0.499994,-0.636711 0.5,-1.15625 -6e-6,-0.514966 -0.167324,-0.901033 -0.5,-1.15625 -0.328131,-0.255199 -0.825527,-0.37499 -1.5,-0.375 l -2.03125,0 z m 11.125,1.21875 c 1.093744,8e-6 1.938145,0.35157 2.5625,1.0625 0.624342,0.710944 0.937492,1.710943 0.9375,2.96875 -8e-6,1.253258 -0.313158,2.222007 -0.9375,2.9375 -0.624355,0.710938 -1.468756,1.093749 -2.5625,1.09375 -1.098311,-10e-7 -1.969403,-0.382812 -2.59375,-1.09375 -0.619792,-0.715493 -0.937501,-1.684242 -0.9375,-2.9375 -1e-6,-1.257807 0.317708,-2.257806 0.9375,-2.96875 0.624347,-0.71093 1.495439,-1.062492 2.59375,-1.0625 z m 0,1.0625 c -0.674483,7e-6 -1.201826,0.283861 -1.59375,0.8125 -0.391929,0.524094 -0.593752,1.24024 -0.59375,2.15625 -2e-6,0.916019 0.175128,1.627606 0.5625,2.15625 0.391924,0.524089 0.94596,0.781251 1.625,0.78125 0.669917,10e-7 1.201818,-0.252603 1.59375,-0.78125 0.391921,-0.528644 0.593743,-1.244788 0.59375,-2.15625 -7e-6,-0.906896 -0.201829,-1.627599 -0.59375,-2.15625 -0.391932,-0.533196 -0.923833,-0.812493 -1.59375,-0.8125 z m -11.125,1.90625 0,3.75 2.21875,0 c 0.742833,10e-7 1.269525,-0.16341 1.625,-0.46875 0.360019,-0.309894 0.562493,-0.772784 0.5625,-1.40625 -7e-6,-0.638017 -0.202481,-1.105465 -0.5625,-1.40625 C 15.269525,87.538416 14.742833,87.375005 14,87.375 l -2.21875,0 z"
         id="path4307"
         style="fill:#ffffff;fill-opacity:1;stroke:none"
         inkscape:connector-curvature="0" />
    </mask>
    <linearGradient
       x1="49.161022"
       y1="80.693184"
       x2="49.75375"
       y2="63.562614"
       id="linearGradient4315"
       xlink:href="#linearGradient4309"
       gradientUnits="userSpaceOnUse"
       gradientTransform="matrix(0.97412562,0,0,0.97412562,4.0027829,4.6756135)" />
    <linearGradient
       x1="45.482056"
       y1="26.81782"
       x2="44.97937"
       y2="68.592369"
       id="linearGradient4335"
       xlink:href="#linearGradient4329"
       gradientUnits="userSpaceOnUse"
       gradientTransform="matrix(0.97412562,0,0,0.97412562,4.0027829,2.7273623)" />
    <filter
       color-interpolation-filters="sRGB"
       id="filter4348">
      <feGaussianBlur
         id="feGaussianBlur4350"
         stdDeviation="0.6949585" />
    </filter>
  </defs>
  <g
     transform="matrix(0.97412562,0,0,0.97412562,2.0849731,0.80955247)"
     id="layer3-6-4">
    <path
       d="m 12,-95.03125 c -5.5110903,0 -10.03125,4.52016 -10.03125,10.03125 l 0,71 c 0,5.5110902 4.5201598,10.03125 10.03125,10.03125 l 72,0 c 5.51109,0 10.03125,-4.5201597 10.03125,-10.03125 l 0,-71 c 0,-5.51109 -4.52016,-10.03125 -10.03125,-10.03125 l -72,0 z"
       transform="scale(1,-1)"
       id="path3786-9-7"
       style="opacity:0.07999998;fill:url(#linearGradient12831);fill-opacity:1;fill-rule:nonzero;stroke:none;display:inline"
       inkscape:connector-curvature="0" />
    <path
       d="m 12,-94.03125 c -4.971633,0 -9.03125,4.059617 -9.03125,9.03125 l 0,71 c 0,4.9716329 4.0596171,9.03125 9.03125,9.03125 l 72,0 c 4.971633,0 9.03125,-4.059617 9.03125,-9.03125 l 0,-71 c 0,-4.971633 -4.059617,-9.03125 -9.03125,-9.03125 l -72,0 z"
       transform="scale(1,-1)"
       id="path3778-3-4"
       style="opacity:0.1;fill:url(#linearGradient12833);fill-opacity:1;fill-rule:nonzero;stroke:none;display:inline"
       inkscape:connector-curvature="0" />
    <path
       d="m 12,-93 c -4.4091333,0 -8,3.590867 -8,8 l 0,71 c 0,4.4091333 3.5908667,8 8,8 l 72,0 c 4.409133,0 8,-3.5908667 8,-8 l 0,-71 c 0,-4.409133 -3.590867,-8 -8,-8 l -72,0 z"
       transform="scale(1,-1)"
       id="path3770-3-3"
       style="opacity:0.2;fill:url(#linearGradient12835);fill-opacity:1;fill-rule:nonzero;stroke:none;display:inline"
       inkscape:connector-curvature="0" />
    <rect
       width="86"
       height="85"
       rx="7"
       ry="7"
       x="5"
       y="-92"
       transform="scale(1,-1)"
       id="rect3723-8-5"
       style="opacity:0.3;fill:url(#linearGradient12837);fill-opacity:1;fill-rule:nonzero;stroke:none;display:inline" />
    <rect
       width="84"
       height="84"
       rx="6"
       ry="6"
       x="6"
       y="-91"
       transform="scale(1,-1)"
       id="rect3716-0-9"
       style="opacity:0.45;fill:url(#linearGradient12839);fill-opacity:1;fill-rule:nonzero;stroke:none;display:inline" />
  </g>
  <path
     d="m 46.90268,8.9629839 c -11.537242,0.326975 -19.447424,5.7899981 -19.482512,5.8143131 -7.8e-5,4.8e-5 -0.03039,0 -0.03039,0 -0.0262,0.02026 -0.191425,0.159571 -0.182648,0.152207 0.0097,-0.0078 -0.191406,0.161344 -0.182649,0.152207 0.0088,-0.0088 -0.159922,0.223123 -0.152207,0.21309 0.0078,-0.01003 -0.158792,0.193461 -0.152207,0.182648 0.0068,-0.01081 -0.127133,0.254987 -0.121766,0.243532 0.0049,-0.0115 -0.09537,0.225062 -0.09128,0.21309 0.0039,-0.01198 -0.06361,0.255883 -0.06088,0.243531 9.74e-4,-0.0058 -0.01938,0.05621 -0.03039,0.121766 a 1.3225735,1.3225735 0 0 0 -0.09128,0 c 0,0 -1.866717,0.342814 -3.713854,1.765603 -2.742124,2.111836 -8.992134,7.301578 -12.6331904,17.138522 -5.6049045,15.143231 0.3737424,31.559342 12.0852454,41.522105 11.833337,10.0664 26.362274,8.858455 26.362274,8.858455 a 1.3225735,1.3225735 0 0 0 0.03039,0 c -0.0088,8.37e-4 0.191016,-0.03185 0.182649,-0.03039 -0.0088,0.0019 0.160448,-0.03254 0.152207,-0.03039 -0.0078,0.0019 0.160273,-0.03312 0.152207,-0.03039 -0.0078,0.0029 0.1905,-0.0641 0.182648,-0.06088 -0.0078,0.0029 0.159806,-0.06468 0.152208,-0.06088 -0.0078,0.0039 0.129061,-0.09566 0.121765,-0.09128 -0.0019,9.74e-4 0.01841,-0.0226 0.03039,-0.03039 0.323166,-0.06741 0.647823,-0.19087 0.974126,-0.304414 0.813511,0.09741 1.669972,0.177174 2.557079,0.121766 8.885224,-0.554989 22.338396,-5.968127 29.741273,-17.777793 5.651487,-9.016146 6.395641,-17.719637 5.32725,-24.596672 -1.067652,-6.872242 -3.865019,-11.940812 -5.266367,-14.155262 -0.94083,-1.543152 -1.613785,-2.268788 -2.009134,-2.678846 l 0.03039,0 c -0.04549,-0.06205 -0.07696,-0.102293 -0.09128,-0.121766 -0.168046,-0.228081 -0.353432,-0.457722 -0.517504,-0.669711 a 1.3225735,1.3225735 0 0 0 -0.152207,-0.152207 1.3225735,1.3225735 0 0 0 -0.03039,-0.03039 C 79.427011,23.960057 78.859271,22.974505 78.105288,22.113972 74.472043,17.967256 66.213318,10.676305 52.077869,9.1763661 50.30912,8.9886813 48.57577,8.9158654 46.902826,8.9632761 z"
     id="path3933-6-6"
     style="opacity:0.07999998;fill:#000000;fill-opacity:1"
     inkscape:connector-curvature="0" />
  <rect
     width="81.826553"
     height="81.826553"
     rx="5.8447537"
     ry="5.8447537"
     x="7.9297338"
     y="-88.480858"
     transform="scale(1,-1)"
     id="rect3959-6-0"
     style="fill:url(#radialGradient3852);fill-opacity:1;fill-rule:nonzero;stroke:none" />
  <path
     d="m 13.77448,88.480859 c -3.237993,0 -5.8447532,-2.60676 -5.8447532,-5.844754 l 0,-1.948251 0,-66.240542 0,-1.948252 c 0,-0.326059 0.040231,-0.633863 0.091276,-0.943684 0.04744,-0.287951 0.09449,-0.581475 0.1826486,-0.85236 0.00974,-0.02961 0.020359,-0.06195 0.030393,-0.09128 C 8.3303847,10.331416 8.4628463,10.078455 8.5993408,9.8202632 8.7401896,9.5538301 8.9067943,9.298502 9.0864036,9.0592275 9.2660129,8.8199433 9.4505123,8.5980083 9.6647907,8.3895161 10.093357,7.9725319 10.583303,7.5960616 11.125978,7.3240663 c 0.271343,-0.1359977 0.558632,-0.2405604 0.85236,-0.3348557 -0.249571,0.097627 -0.474116,0.2301566 -0.700153,0.3652971 -0.0068,0.0039 -0.02328,-0.0039 -0.03039,0 -0.03107,0.018801 -0.06069,0.0414 -0.09128,0.060883 C 11.039242,7.490106 10.931475,7.5746698 10.821662,7.6589219 10.718239,7.7376313 10.6139,7.8158633 10.517248,7.9024533 10.343922,8.0597064 10.178778,8.2389066 10.030185,8.4199576 9.9253888,8.5468374 9.8174459,8.6783736 9.725771,8.8156961 9.7013204,8.8531025 9.6882671,8.8993735 9.6648881,8.9374618 9.6017648,9.037826 9.5380277,9.13669 9.4822395,9.2418761 c -0.098396,0.189672 -0.2003484,0.404944 -0.2739728,0.6088285 -0.00779,0.021236 -0.022989,0.039549 -0.030393,0.060883 -0.030977,0.08962 -0.034874,0.1819956 -0.060883,0.2739726 -0.029516,0.103862 -0.068578,0.197777 -0.091276,0.304415 -0.071014,0.332673 -0.1217657,0.680134 -0.1217657,1.035008 l 0,1.948252 0,66.240542 0,1.948251 c 0,2.709871 2.1607561,4.870628 4.8706271,4.870628 l 1.948251,0 66.240543,0 1.948251,0 c 2.709871,0 4.870628,-2.160757 4.870628,-4.870628 l 0,-1.948251 0,-66.240542 0,-1.948252 c 0,-0.354874 -0.05075,-0.702335 -0.121766,-1.035008 -0.04306,-0.201537 -0.08611,-0.387371 -0.152207,-0.5783876 -0.0078,-0.021333 -0.0227,-0.039647 -0.03039,-0.060883 C 88.416807,9.68146 88.343085,9.4927621 88.264794,9.3332003 88.224271,9.2525427 88.187838,9.1676477 88.143029,9.0896689 88.089841,8.9949839 88.019539,8.9061924 87.96038,8.8156961 87.868715,8.6783736 87.760762,8.5468374 87.655966,8.4199576 87.5165,8.2500214 87.360669,8.081936 87.199345,7.9328948 c -0.01091,-0.00994 -0.01948,-0.020554 -0.03039,-0.030393 -0.134809,-0.1223112 -0.277714,-0.228374 -0.42618,-0.3348556 -0.09992,-0.071209 -0.199034,-0.1493919 -0.304414,-0.21309 -0.0068,-0.0039 -0.02318,0.0039 -0.03039,0 -0.226036,-0.1351405 -0.450582,-0.2676703 -0.700153,-0.3652971 0.293728,0.094295 0.581017,0.198858 0.85236,0.3348557 0.542676,0.2719953 1.032622,0.6484656 1.461188,1.0654499 0.214279,0.2084921 0.398778,0.4304271 0.578388,0.6697113 0.179609,0.2392745 0.346214,0.4946026 0.487062,0.7610357 0.136495,0.2581921 0.268995,0.5111531 0.365297,0.7914771 0.01013,0.03 0.02075,0.06108 0.03039,0.09127 0.08816,0.270886 0.135209,0.564409 0.182649,0.852361 0.05104,0.30982 0.09127,0.617625 0.09127,0.943684 l 0,1.948251 0,66.240542 0,1.948252 c 0,3.237993 -2.60676,5.844753 -5.844753,5.844753 l -70.137045,0 z"
     id="path3615-4-5"
     style="opacity:0.2;fill:url(#radialGradient3069);fill-opacity:1;fill-rule:nonzero;stroke:none"
     inkscape:connector-curvature="0" />
  <text
     x="12.787269"
     y="82.854279"
     id="text12309"
     xml:space="preserve"
     style="font-size:13.63775826px;font-style:normal;font-weight:normal;fill:url(#linearGradient4315);fill-opacity:1;stroke:none;font-family:Bitstream Vera Sans"><tspan
       x="12.787269"
       y="82.854279"
       id="tspan12311"
       style="font-size:23.37901497px;font-style:normal;font-variant:normal;font-weight:normal;font-stretch:normal;fill:url(#linearGradient4315);fill-opacity:1;font-family:Coolvetica;-inkscape-font-specification:Coolvetica"><tspan
         id="tspan3043"
         style="font-size:13.63775826px;fill:url(#linearGradient4315);fill-opacity:1">Bo</tspan><tspan
         id="tspan3045"
         style="font-weight:bold;fill:url(#linearGradient4315);fill-opacity:1">UML</tspan></tspan></text>
  <path
     d="M 7.8086644,39.322377 C 40.305037,22.635051 74.557969,45.470339 89.488736,35.809255 c -0.292763,18.736647 0,40.400896 0,40.400896 L 7.8086644,75.039111 z"
     id="path4319"
     style="fill:url(#linearGradient4335);fill-opacity:1;stroke:none"
     inkscape:connector-curvature="0" />
  <g
     mask="url(#mask3989)"
     id="g3964"
     transform="matrix(0.97412562,0,0,0.97412562,4.0027829,4.6756135)">
    <rect
       width="27.662766"
       height="22.709003"
       rx="1.5323446"
       ry="2.5205739"
       x="15.020126"
       y="43.669392"
       transform="matrix(0.97832512,-0.20707477,0.19296845,0.98120496,0,0)"
       id="rect12313-72"
       style="fill:#d45500;fill-opacity:1;stroke:none" />
    <rect
       width="37.693249"
       height="30.943258"
       rx="2.4038055"
       ry="2.5518808"
       x="55.167355"
       y="42.836109"
       transform="matrix(0.97832512,-0.20707477,0.19296845,0.98120496,0,0)"
       id="rect12313-7-2"
       style="fill:#d45500;fill-opacity:1;stroke:none" />
    <rect
       width="32.966377"
       height="22.29682"
       rx="2.2448561"
       ry="1.9307983"
       x="0.36960635"
       y="7.0659313"
       transform="matrix(0.97832512,-0.20707477,0.19296845,0.98120496,0,0)"
       id="rect12313-2-9"
       style="fill:#d45500;fill-opacity:1;stroke:none" />
    <rect
       width="27.662766"
       height="22.709003"
       rx="1.594578"
       ry="2.3465919"
       x="-18.256811"
       y="44.469715"
       transform="matrix(0.97832512,-0.20707477,0.19296845,0.98120496,0,0)"
       id="rect12313-5-2"
       style="fill:#d45500;fill-opacity:1;stroke:none" />
    <g
       transform="matrix(1.7742736,-0.37554724,0.36199774,1.8406842,-734.50643,-880.5421)"
       id="g12418"
       style="stroke-width:0.37952647;stroke-miterlimit:4;stroke-dasharray:none">
      <rect
         width="15.253103"
         height="12.105383"
         rx="0.84492671"
         ry="1.3436306"
         x="311.01694"
         y="562.25018"
         id="rect12313"
         style="fill:#ffffff;fill-opacity:1;stroke:#000000;stroke-width:0.37952647000000000;stroke-miterlimit:4;stroke-opacity:1;stroke-dasharray:none" />
      <path
         d="m 311.14341,564.86364 15.11683,-0.0389"
         id="path12315"
         style="fill:none;stroke:#4d4d4d;stroke-width:0.37952647000000000;stroke-linecap:butt;stroke-linejoin:miter;stroke-miterlimit:4;stroke-opacity:1;stroke-dasharray:none"
         inkscape:connector-curvature="0" />
      <path
         d="m 311.16284,567.37016 15.11683,-0.0389"
         id="path12315-0"
         style="fill:none;stroke:#4d4d4d;stroke-width:0.37952647000000000;stroke-linecap:butt;stroke-linejoin:miter;stroke-miterlimit:4;stroke-opacity:1;stroke-dasharray:none"
         inkscape:connector-curvature="0" />
      <rect
         width="22.008478"
         height="25.198769"
         rx="1.3254458"
         ry="1.3603193"
         x="333.05811"
         y="552.47827"
         id="rect12313-7"
         style="fill:#ffffff;fill-opacity:1;stroke:#000000;stroke-width:0.38960733;stroke-miterlimit:4;stroke-opacity:1;stroke-dasharray:none" />
      <path
         d="m 333.24473,557.83025 17.39204,-0.0365"
         id="path12315-2"
         style="fill:none;stroke:#4d4d4d;stroke-width:0.37952647000000000;stroke-linecap:butt;stroke-linejoin:miter;stroke-miterlimit:4;stroke-opacity:1;stroke-dasharray:none"
         inkscape:connector-curvature="0" />
      <path
         d="m 333.15684,562.62392 17.737,0.0339"
         id="path12315-0-6"
         style="fill:none;stroke:#4d4d4d;stroke-width:0.37952647000000000;stroke-linecap:butt;stroke-linejoin:miter;stroke-miterlimit:4;stroke-opacity:1;stroke-dasharray:none"
         inkscape:connector-curvature="0" />
      <path
         d="m 326.32907,568.97779 6.49397,-0.0447"
         id="path12367"
         style="fill:none;stroke:#000000;stroke-width:0.37952647;stroke-linecap:butt;stroke-linejoin:miter;stroke-miterlimit:4;stroke-opacity:1;stroke-dasharray:none"
         inkscape:connector-curvature="0" />
      <rect
         width="18.287739"
         height="12.493839"
         rx="1.2378018"
         ry="1.0292417"
         x="302.70685"
         y="542.11353"
         id="rect12313-2"
         style="fill:#ffffff;fill-opacity:1;stroke:#000000;stroke-width:0.37952647000000000;stroke-miterlimit:4;stroke-opacity:1;stroke-dasharray:none" />
      <path
         d="m 303.06516,545.35156 17.8746,-0.0535"
         id="path12315-4"
         style="fill:none;stroke:#4d4d4d;stroke-width:0.37952647000000000;stroke-linecap:butt;stroke-linejoin:miter;stroke-miterlimit:4;stroke-opacity:1;stroke-dasharray:none"
         inkscape:connector-curvature="0" />
      <path
         d="m 303.08459,547.85808 17.80484,-0.29864"
         id="path12315-0-8"
         style="fill:none;stroke:#4d4d4d;stroke-width:0.37952647000000000;stroke-linecap:butt;stroke-linejoin:miter;stroke-miterlimit:4;stroke-opacity:1;stroke-dasharray:none"
         inkscape:connector-curvature="0" />
      <rect
         width="15.253103"
         height="12.105383"
         rx="0.87924194"
         ry="1.2508868"
         x="292.66824"
         y="562.67676"
         id="rect12313-5"
         style="fill:#ffffff;fill-opacity:1;stroke:#000000;stroke-width:0.37952647000000000;stroke-miterlimit:4;stroke-opacity:1;stroke-dasharray:none" />
      <path
         d="m 292.79467,565.29028 15.11683,-0.0389"
         id="path12315-09"
         style="fill:none;stroke:#4d4d4d;stroke-width:0.37952647000000000;stroke-linecap:butt;stroke-linejoin:miter;stroke-miterlimit:4;stroke-opacity:1;stroke-dasharray:none"
         inkscape:connector-curvature="0" />
      <path
         d="m 292.8141,567.7968 15.11683,-0.0389"
         id="path12315-0-5"
         style="fill:none;stroke:#4d4d4d;stroke-width:0.37952647000000000;stroke-linecap:butt;stroke-linejoin:miter;stroke-miterlimit:4;stroke-opacity:1;stroke-dasharray:none"
         inkscape:connector-curvature="0" />
      <path
         d="m 310.9148,554.77994 0.82401,1.42721 0.824,1.42721 -1.64801,0 -1.648,0 0.824,-1.42721 0.824,-1.42721 z"
         id="path12410"
         style="fill:#ffffff;fill-opacity:1;stroke:#000000;stroke-width:0.37952647;stroke-linejoin:miter;stroke-miterlimit:4;stroke-opacity:1;stroke-dasharray:none"
         inkscape:connector-curvature="0" />
      <path
         d="m 300,562.36218 0,-3 19.16211,0.0251 0,3"
         id="path12412"
         style="fill:none;stroke:#000000;stroke-width:0.37952647;stroke-linecap:butt;stroke-linejoin:miter;stroke-miterlimit:4;stroke-opacity:1;stroke-dasharray:none"
         inkscape:connector-curvature="0" />
      <path
         d="m 311,559.36218 -0.007,-1.75658"
         id="path12414"
         style="fill:none;stroke:#000000;stroke-width:0.37952647;stroke-linecap:butt;stroke-linejoin:miter;stroke-miterlimit:4;stroke-opacity:1;stroke-dasharray:none"
         inkscape:connector-curvature="0" />
    </g>
  </g>
  <g
     transform="matrix(0.97412562,0,0,0.97412562,3.7100228,5.4144459)"
     mask="url(#mask4216)"
     id="text3993"
     style="font-size:14px;font-style:normal;font-weight:normal;opacity:0.23265309;fill:none;stroke:#803300;stroke-width:2;stroke-miterlimit:4;stroke-dasharray:none;filter:url(#filter4348);font-family:Bitstream Vera Sans">
    <path
       d="m 12.073235,74.622742 0,3.739258 2.214843,0 c 0.742833,1e-6 1.291986,-0.152668 1.647461,-0.458008 0.360019,-0.309894 0.540032,-0.781573 0.540039,-1.415039 -7e-6,-0.638018 -0.18002,-1.107418 -0.540039,-1.408203 -0.355475,-0.305334 -0.904628,-0.458003 -1.647461,-0.458008 l -2.214843,0 m 0,-4.197266 0,3.076172 2.043945,0 c 0.674474,6e-6 1.175775,-0.125319 1.503906,-0.375977 0.332676,-0.255201 0.499017,-0.642571 0.499024,-1.162109 -7e-6,-0.514966 -0.166348,-0.900057 -0.499024,-1.155273 -0.328131,-0.2552 -0.829432,-0.382804 -1.503906,-0.382813 l -2.043945,0 m -1.38086,-1.134766 3.527344,0 c 1.052728,1.1e-5 1.863925,0.21876 2.433594,0.65625 0.569653,0.43751 0.854484,1.059579 0.854492,1.866211 -8e-6,0.624356 -0.145842,1.121101 -0.4375,1.490235 -0.291674,0.369146 -0.720059,0.599289 -1.285156,0.690429 0.679029,0.145839 1.205396,0.451177 1.579101,0.916016 0.378247,0.460291 0.567374,1.036787 0.567383,1.729492 -9e-6,0.911461 -0.309904,1.615561 -0.929688,2.112305 -0.619798,0.496745 -1.501633,0.745117 -2.645507,0.745117 l -3.664063,0 0,-10.206055"
       id="path4002"
       style="font-size:14px;fill:none;stroke:#803300;stroke-width:2;stroke-miterlimit:4;stroke-dasharray:none"
       inkscape:connector-curvature="0" />
    <path
       d="m 23.202141,72.722351 c -0.674483,7e-6 -1.207686,0.26433 -1.59961,0.792969 -0.391929,0.524094 -0.587892,1.244145 -0.58789,2.160156 -2e-6,0.916019 0.193682,1.638349 0.581054,2.166992 0.391925,0.52409 0.927406,0.786134 1.606446,0.786133 0.669917,10e-7 1.200841,-0.264322 1.592773,-0.792969 0.391921,-0.528643 0.587884,-1.248695 0.587891,-2.160156 -7e-6,-0.906896 -0.19597,-1.624669 -0.587891,-2.15332 -0.391932,-0.533197 -0.922856,-0.799798 -1.592773,-0.799805 m 0,-1.066406 c 1.093744,8e-6 1.952793,0.355476 2.577148,1.066406 0.624342,0.710944 0.936516,1.695318 0.936524,2.953125 -8e-6,1.253258 -0.312182,2.237632 -0.936524,2.953125 -0.624355,0.710938 -1.483404,1.066406 -2.577148,1.066406 -1.098311,0 -1.959638,-0.355468 -2.583985,-1.066406 -0.619792,-0.715493 -0.929688,-1.699867 -0.929687,-2.953125 -1e-6,-1.257807 0.309895,-2.242181 0.929687,-2.953125 0.624347,-0.71093 1.485674,-1.066398 2.583985,-1.066406"
       id="path4004"
       style="font-size:14px;fill:none;stroke:#803300;stroke-width:2;stroke-miterlimit:4;stroke-dasharray:none"
       inkscape:connector-curvature="0" />
    <path
       d="m 29.677727,62.000671 4.511718,0 0,10.488282 c -6e-6,1.445318 0.234369,2.480473 0.703125,3.105468 0.476555,0.617191 1.249992,0.925785 2.320313,0.925782 1.078114,3e-6 1.851551,-0.308591 2.320312,-0.925782 0.47655,-0.624995 0.714831,-1.66015 0.714844,-3.105468 l 0,-10.488282 4.511719,0 0,10.488282 c -1.7e-5,2.476567 -0.62111,4.320315 -1.863281,5.53125 -1.242202,1.210937 -3.136731,1.816406 -5.683594,1.816406 -2.53907,0 -4.429693,-0.605469 -5.671875,-1.816406 -1.24219,-1.210935 -1.863283,-3.054683 -1.863281,-5.53125 l 0,-10.488282"
       id="path4006"
       style="font-weight:bold;fill:none;stroke:#803300;stroke-width:2;stroke-miterlimit:4;stroke-dasharray:none"
       inkscape:connector-curvature="0" />
    <path
       d="m 49.177727,62.000671 5.742187,0 3.984375,9.363282 4.007813,-9.363282 5.730468,0 0,17.496094 -4.265625,0 0,-12.796875 -4.03125,9.433594 -2.859375,0 -4.03125,-9.433594 0,12.796875 -4.277343,0 0,-17.496094"
       id="path4008"
       style="font-weight:bold;fill:none;stroke:#803300;stroke-width:2;stroke-miterlimit:4;stroke-dasharray:none"
       inkscape:connector-curvature="0" />
    <path
       d="m 73.083977,62.000671 4.511718,0 0,14.085938 7.921875,0 0,3.410156 -12.433593,0 0,-17.496094"
       id="path4010"
       style="font-weight:bold;fill:none;stroke:#803300;stroke-width:2;stroke-miterlimit:4;stroke-dasharray:none"
       inkscape:connector-curvature="0" />
  </g>
  <g
     transform="matrix(0.97412562,0,0,0.97412562,4.0027829,-7.0138939)"
     mask="url(#mask4305)"
     id="text4230"
     style="font-size:14px;font-style:normal;font-weight:normal;opacity:0.61224491;fill:none;stroke:#ffffff;stroke-width:2;stroke-miterlimit:4;stroke-dasharray:none;filter:url(#filter4265);font-family:Bitstream Vera Sans">
    <path
       d="m 11.772698,87.381195 0,3.739258 2.214844,0 c 0.742833,10e-7 1.291986,-0.152668 1.647461,-0.458008 0.360019,-0.309894 0.540032,-0.781573 0.540039,-1.415039 -7e-6,-0.638017 -0.18002,-1.107418 -0.540039,-1.408203 -0.355475,-0.305334 -0.904628,-0.458003 -1.647461,-0.458008 l -2.214844,0 m 0,-4.197266 0,3.076172 2.043946,0 c 0.674473,6e-6 1.175775,-0.125319 1.503906,-0.375976 0.332676,-0.255202 0.499017,-0.642571 0.499023,-1.16211 -6e-6,-0.514966 -0.166347,-0.900056 -0.499023,-1.155273 -0.328131,-0.255199 -0.829433,-0.382803 -1.503906,-0.382813 l -2.043946,0 m -1.380859,-1.134765 3.527344,0 c 1.052728,10e-6 1.863925,0.21876 2.433594,0.65625 0.569653,0.437509 0.854484,1.059579 0.854492,1.866211 -8e-6,0.624356 -0.145842,1.1211 -0.4375,1.490234 -0.291674,0.369147 -0.720059,0.59929 -1.285157,0.69043 0.67903,0.145839 1.205396,0.451177 1.579102,0.916015 0.378247,0.460291 0.567374,1.036788 0.567383,1.729493 -9e-6,0.91146 -0.309904,1.615561 -0.929688,2.112304 -0.619798,0.496745 -1.501633,0.745118 -2.645507,0.745118 l -3.664063,0 0,-10.206055"
       id="path4239"
       style="font-size:14px;fill:none;stroke:#ffffff;stroke-width:2;stroke-miterlimit:4;stroke-dasharray:none"
       inkscape:connector-curvature="0" />
    <path
       d="m 22.901605,85.480804 c -0.674483,7e-6 -1.207686,0.26433 -1.59961,0.792969 -0.391929,0.524094 -0.587892,1.244146 -0.58789,2.160156 -2e-6,0.916019 0.193682,1.638349 0.581054,2.166993 0.391924,0.524089 0.927406,0.786133 1.606446,0.786132 0.669917,10e-7 1.200841,-0.264321 1.592773,-0.792968 0.391921,-0.528644 0.587884,-1.248695 0.587891,-2.160157 -7e-6,-0.906896 -0.19597,-1.624669 -0.587891,-2.15332 -0.391932,-0.533196 -0.922856,-0.799798 -1.592773,-0.799805 m 0,-1.066406 c 1.093744,8e-6 1.952793,0.355476 2.577148,1.066406 0.624342,0.710944 0.936516,1.695318 0.936524,2.953125 -8e-6,1.253258 -0.312182,2.237632 -0.936524,2.953125 -0.624355,0.710938 -1.483404,1.066406 -2.577148,1.066407 -1.098311,-10e-7 -1.959638,-0.355469 -2.583985,-1.066407 -0.619792,-0.715493 -0.929688,-1.699867 -0.929687,-2.953125 -1e-6,-1.257807 0.309895,-2.242181 0.929687,-2.953125 0.624347,-0.71093 1.485674,-1.066398 2.583985,-1.066406"
       id="path4241"
       style="font-size:14px;fill:none;stroke:#ffffff;stroke-width:2;stroke-miterlimit:4;stroke-dasharray:none"
       inkscape:connector-curvature="0" />
    <path
       d="m 29.377191,74.759125 4.511718,0 0,10.488281 c -6e-6,1.445318 0.234368,2.480473 0.703125,3.105469 0.476555,0.617191 1.249992,0.925784 2.320313,0.925781 1.078114,3e-6 1.851551,-0.30859 2.320312,-0.925781 0.47655,-0.624996 0.714831,-1.660151 0.714844,-3.105469 l 0,-10.488281 4.511719,0 0,10.488281 c -1.7e-5,2.476567 -0.621111,4.320315 -1.863281,5.53125 -1.242202,1.210938 -3.136731,1.816406 -5.683594,1.816406 -2.53907,0 -4.429693,-0.605468 -5.671875,-1.816406 -1.24219,-1.210935 -1.863284,-3.054683 -1.863281,-5.53125 l 0,-10.488281"
       id="path4243"
       style="font-weight:bold;fill:none;stroke:#ffffff;stroke-width:2;stroke-miterlimit:4;stroke-dasharray:none"
       inkscape:connector-curvature="0" />
    <path
       d="m 48.877191,74.759125 5.742187,0 3.984375,9.363281 4.007813,-9.363281 5.730468,0 0,17.496094 -4.265625,0 0,-12.796875 -4.03125,9.433593 -2.859375,0 -4.03125,-9.433593 0,12.796875 -4.277343,0 0,-17.496094"
       id="path4245"
       style="font-weight:bold;fill:none;stroke:#ffffff;stroke-width:2;stroke-miterlimit:4;stroke-dasharray:none"
       inkscape:connector-curvature="0" />
    <path
       d="m 72.783441,74.759125 4.511718,0 0,14.085937 7.921875,0 0,3.410157 -12.433593,0 0,-17.496094"
       id="path4247"
       style="font-weight:bold;fill:none;stroke:#ffffff;stroke-width:2;stroke-miterlimit:4;stroke-dasharray:none"
       inkscape:connector-curvature="0" />
  </g>
  <rect
     width="2.9622889"
     height="2.9618874"
     rx="0"
     ry="0"
     x="73.525139"
     y="15.393789"
     transform="matrix(0.91621384,0.40068966,-0.35289611,0.93566251,0,0)"
     id="rect4317"
     style="fill:#000000;fill-opacity:1;stroke:none" />
  <path
     d="m 13.77448,6.6543062 c -3.237993,0 -5.8447532,2.6067601 -5.8447532,5.8447538 l 0,1.948252 0,66.240542 0,1.948251 c 0,0.326059 0.040231,0.633863 0.091276,0.943684 0.04744,0.287952 0.09449,0.581465 0.1826486,0.85236 0.00974,0.02961 0.020359,0.06195 0.030393,0.09128 0.096341,0.280324 0.2288026,0.533285 0.3652971,0.791477 0.1408488,0.266433 0.3074535,0.521751 0.4870628,0.761035 0.1796093,0.239275 0.3641087,0.46122 0.5783871,0.669712 0.4285663,0.416984 0.9185123,0.793454 1.4611873,1.06545 0.271343,0.135997 0.558632,0.24056 0.85236,0.334855 -0.249571,-0.09763 -0.474116,-0.230156 -0.700153,-0.365297 -0.0068,-0.0039 -0.02328,0.0049 -0.03039,0 -0.03107,-0.0188 -0.06069,-0.0414 -0.09128,-0.06088 -0.117275,-0.07471 -0.225042,-0.159279 -0.334855,-0.243531 C 10.718239,87.397534 10.6139,87.319302 10.517248,87.232712 10.343922,87.075458 10.178778,86.896258 10.030185,86.715207 9.9253888,86.588318 9.8174459,86.456781 9.725771,86.319469 9.7013204,86.282062 9.6882671,86.235791 9.6648881,86.197703 9.6017648,86.097339 9.5380277,85.998475 9.4822395,85.893289 9.3838431,85.703617 9.2818911,85.488345 9.2082667,85.28446 9.2004737,85.263224 9.1852774,85.245008 9.177874,85.223577 9.1468968,85.134055 9.1430003,85.041582 9.1169911,84.949605 9.0874751,84.845743 9.0484127,84.751828 9.0257156,84.64519 8.9547018,84.312517 8.9039499,83.965046 8.9039499,83.610182 l 0,-1.948251 0,-66.240543 0,-1.948251 c 0,-2.709872 2.1607561,-4.8706283 4.8706271,-4.8706283 l 1.948251,0 66.240543,0 1.948251,0 c 2.709871,0 4.870628,2.1607563 4.870628,4.8706283 l 0,1.948251 0,66.240543 0,1.948251 c 0,0.354864 -0.05075,0.702335 -0.121766,1.035008 -0.04306,0.201537 -0.08611,0.387371 -0.152207,0.578387 -0.0078,0.02143 -0.0227,0.03965 -0.03039,0.06088 -0.06108,0.169245 -0.134799,0.357943 -0.21309,0.517505 -0.04052,0.08066 -0.07696,0.165552 -0.121765,0.243531 -0.05319,0.09468 -0.12349,0.183476 -0.182649,0.273973 -0.09167,0.137312 -0.199618,0.268849 -0.304414,0.395738 -0.139466,0.169936 -0.295297,0.338022 -0.456621,0.487063 -0.01091,0.0099 -0.01948,0.02065 -0.03039,0.03039 -0.134809,0.122311 -0.277714,0.228374 -0.42618,0.334855 -0.09992,0.07131 -0.199034,0.149392 -0.304414,0.21309 -0.0068,0.0049 -0.02318,-0.0039 -0.03039,0 -0.226036,0.135141 -0.450582,0.267671 -0.700153,0.365298 0.293728,-0.0943 0.581017,-0.198858 0.85236,-0.334856 0.542676,-0.271995 1.032622,-0.648466 1.461188,-1.06545 0.214279,-0.208492 0.398778,-0.430437 0.578388,-0.669711 0.179609,-0.239285 0.346214,-0.494603 0.487062,-0.761036 0.136495,-0.258192 0.268995,-0.511153 0.365297,-0.791477 0.01013,-0.03 0.02075,-0.06108 0.03039,-0.09128 0.08816,-0.270894 0.135209,-0.564408 0.182649,-0.85236 0.05104,-0.30982 0.09127,-0.617624 0.09127,-0.943684 l 0,-1.948251 0,-66.240542 0,-1.948251 c 0,-3.2379944 -2.60676,-5.8447545 -5.844753,-5.8447545 l -70.137045,0 z"
     id="rect3728-6-1"
     style="opacity:0.7;fill:url(#linearGradient3072);fill-opacity:1;fill-rule:nonzero;stroke:none"
     inkscape:connector-curvature="0" />
</svg>
