<?xml version="1.0" encoding="UTF-8" standalone="no"?>
<!-- Created with Inkscape (http://www.inkscape.org/) -->

<svg
   xmlns:dc="http://purl.org/dc/elements/1.1/"
   xmlns:cc="http://creativecommons.org/ns#"
   xmlns:rdf="http://www.w3.org/1999/02/22-rdf-syntax-ns#"
   xmlns:svg="http://www.w3.org/2000/svg"
   xmlns="http://www.w3.org/2000/svg"
   xmlns:xlink="http://www.w3.org/1999/xlink"
   xmlns:sodipodi="http://sodipodi.sourceforge.net/DTD/sodipodi-0.dtd"
   xmlns:inkscape="http://www.inkscape.org/namespaces/inkscape"
   width="92.0625"
   height="91.0625"
   id="svg6767"
   version="1.1"
   inkscape:version="0.47 r22583"
   sodipodi:docname="Nouveau document 2">
  <defs
     id="defs6769">
    <inkscape:perspective
       sodipodi:type="inkscape:persp3d"
       inkscape:vp_x="0 : 526.18109 : 1"
       inkscape:vp_y="0 : 1000 : 0"
       inkscape:vp_z="744.09448 : 526.18109 : 1"
       inkscape:persp3d-origin="372.04724 : 350.78739 : 1"
       id="perspective6775" />
    <inkscape:perspective
       id="perspective6632"
       inkscape:persp3d-origin="0.5 : 0.33333333 : 1"
       inkscape:vp_z="1 : 0.5 : 1"
       inkscape:vp_y="0 : 1000 : 0"
       inkscape:vp_x="0 : 0.5 : 1"
       sodipodi:type="inkscape:persp3d" />
    <radialGradient
       inkscape:collect="always"
       xlink:href="#linearGradient3737-2-3-68-1"
       id="radialGradient5986-7"
       gradientUnits="userSpaceOnUse"
       gradientTransform="matrix(1.1573129,0,0,0.99590774,261.59184,340.20217)"
       cx="48"
       cy="90.171875"
       fx="48"
       fy="90.171875"
       r="42" />
    <linearGradient
       id="linearGradient3737-2-3-68-1">
      <stop
         id="stop3739-4-2-92-1"
         style="stop-color:#ffffff;stop-opacity:1"
         offset="0" />
      <stop
         id="stop3741-0-7-66-5"
         style="stop-color:#ffffff;stop-opacity:0"
         offset="1" />
    </linearGradient>
    <linearGradient
       inkscape:collect="always"
       xlink:href="#linearGradient3737-2-3-68-1"
       id="linearGradient5989-9"
       gradientUnits="userSpaceOnUse"
       gradientTransform="translate(269.14286,340.00504)"
       x1="36.357143"
       y1="6"
       x2="36.357143"
       y2="63.893143" />
    <linearGradient
       id="linearGradient6641">
      <stop
         id="stop6643"
         style="stop-color:#ffffff;stop-opacity:1"
         offset="0" />
      <stop
         id="stop6645"
         style="stop-color:#ffffff;stop-opacity:0"
         offset="1" />
    </linearGradient>
    <linearGradient
       inkscape:collect="always"
       xlink:href="#linearGradient8713-8"
       id="linearGradient6876"
       gradientUnits="userSpaceOnUse"
       gradientTransform="translate(-106.50532,88.538688)"
       x1="226.07143"
       y1="538.79077"
       x2="196.78572"
       y2="568.79077" />
    <linearGradient
       id="linearGradient8713-8">
      <stop
         style="stop-color:#bdff00;stop-opacity:1;"
         offset="0"
         id="stop8715-7" />
      <stop
         style="stop-color:#6bb914;stop-opacity:1;"
         offset="1"
         id="stop8717-1" />
    </linearGradient>
    <clipPath
       clipPathUnits="userSpaceOnUse"
       id="clipPath6854">
      <path
         id="path6856"
         d="m 58.366251,695.35737 56.454989,0 c 2.60634,0 4.70458,-2.09824 4.70458,-4.70458 l 0,-56.45499 c 0,-2.60634 -2.09824,-4.70458 -4.70458,-4.70458 l -56.454989,0 c -2.606339,0 -4.704582,2.09824 -4.704582,4.70458 l 0,56.45499 c 0,2.60634 2.098243,4.70458 4.704582,4.70458 z"
         style="fill:url(#linearGradient6858);fill-opacity:1;fill-rule:nonzero;stroke:none" />
    </clipPath>
    <filter
       color-interpolation-filters="sRGB"
       id="filter7227-7"
       inkscape:label="Drop shadow"
       width="1.5"
       height="1.5"
       x="-0.25"
       y="-0.25">
      <feGaussianBlur
         id="feGaussianBlur7229-2"
         in="SourceAlpha"
         stdDeviation="2,000000"
         result="blur" />
      <feColorMatrix
         id="feColorMatrix7231-7"
         result="bluralpha"
         type="matrix"
         values="1 0 0 0 0 0 1 0 0 0 0 0 1 0 0 0 0 0 0,800000 0 " />
      <feOffset
         id="feOffset7233-2"
         in="bluralpha"
         dx="-2,000000"
         dy="2,000000"
         result="offsetBlur" />
      <feMerge
         id="feMerge7235-2">
        <feMergeNode
           id="feMergeNode7237-6"
           in="offsetBlur" />
        <feMergeNode
           id="feMergeNode7239-1"
           in="SourceGraphic" />
      </feMerge>
    </filter>
    <linearGradient
       gradientTransform="translate(-106.50532,88.538688)"
       inkscape:collect="always"
       xlink:href="#linearGradient8729-8"
       id="linearGradient6869-7"
       x1="229.88837"
       y1="612.36218"
       x2="194.88837"
       y2="577.36218"
       gradientUnits="userSpaceOnUse" />
    <linearGradient
       id="linearGradient8729-8">
      <stop
         style="stop-color:#1c46e2;stop-opacity:1;"
         offset="0"
         id="stop8731-6" />
      <stop
         style="stop-color:#1f1f94;stop-opacity:1;"
         offset="1"
         id="stop8733-8" />
    </linearGradient>
    <clipPath
       clipPathUnits="userSpaceOnUse"
       id="clipPath6870">
      <path
         id="path6872"
         d="m 58.366251,695.35737 56.454989,0 c 2.60634,0 4.70458,-2.09824 4.70458,-4.70458 l 0,-56.45499 c 0,-2.60634 -2.09824,-4.70458 -4.70458,-4.70458 l -56.454989,0 c -2.606339,0 -4.704582,2.09824 -4.704582,4.70458 l 0,56.45499 c 0,2.60634 2.098243,4.70458 4.704582,4.70458 z"
         style="fill:url(#linearGradient6874);fill-opacity:1;fill-rule:nonzero;stroke:none" />
    </clipPath>
    <filter
       color-interpolation-filters="sRGB"
       id="filter7297-8"
       inkscape:label="Drop shadow"
       width="1.5"
       height="1.5"
       x="-0.25"
       y="-0.25">
      <feGaussianBlur
         id="feGaussianBlur7299-4"
         in="SourceAlpha"
         stdDeviation="2,000000"
         result="blur" />
      <feColorMatrix
         id="feColorMatrix7301-3"
         result="bluralpha"
         type="matrix"
         values="1 0 0 0 0 0 1 0 0 0 0 0 1 0 0 0 0 0 0,800000 0 " />
      <feOffset
         id="feOffset7303-1"
         in="bluralpha"
         dx="-2,000000"
         dy="-2,000000"
         result="offsetBlur" />
      <feMerge
         id="feMerge7305-4">
        <feMergeNode
           id="feMergeNode7307-9"
           in="offsetBlur" />
        <feMergeNode
           id="feMergeNode7309-2"
           in="SourceGraphic" />
      </feMerge>
    </filter>
    <linearGradient
       gradientTransform="translate(-106.50532,88.538688)"
       inkscape:collect="always"
       xlink:href="#linearGradient8721-6"
       id="linearGradient6861-0"
       x1="155"
       y1="612.36218"
       x2="189.88837"
       y2="577.66431"
       gradientUnits="userSpaceOnUse" />
    <linearGradient
       id="linearGradient8721-6">
      <stop
         style="stop-color:#feff00;stop-opacity:1;"
         offset="0"
         id="stop8723-8" />
      <stop
         style="stop-color:#ffd500;stop-opacity:1;"
         offset="1"
         id="stop8725-9" />
    </linearGradient>
    <clipPath
       clipPathUnits="userSpaceOnUse"
       id="clipPath6862">
      <path
         id="path6864"
         d="m 58.366251,695.35737 56.454989,0 c 2.60634,0 4.70458,-2.09824 4.70458,-4.70458 l 0,-56.45499 c 0,-2.60634 -2.09824,-4.70458 -4.70458,-4.70458 l -56.454989,0 c -2.606339,0 -4.704582,2.09824 -4.704582,4.70458 l 0,56.45499 c 0,2.60634 2.098243,4.70458 4.704582,4.70458 z"
         style="fill:url(#linearGradient6866);fill-opacity:1;fill-rule:nonzero;stroke:none" />
    </clipPath>
    <filter
       color-interpolation-filters="sRGB"
       id="filter7269-2"
       inkscape:label="Drop shadow"
       width="1.5"
       height="1.5"
       x="-0.25"
       y="-0.25">
      <feGaussianBlur
         id="feGaussianBlur7271-6"
         in="SourceAlpha"
         stdDeviation="2,000000"
         result="blur" />
      <feColorMatrix
         id="feColorMatrix7273-6"
         result="bluralpha"
         type="matrix"
         values="1 0 0 0 0 0 1 0 0 0 0 0 1 0 0 0 0 0 0,800000 0 " />
      <feOffset
         id="feOffset7275-4"
         in="bluralpha"
         dx="2,000000"
         dy="-2,000000"
         result="offsetBlur" />
      <feMerge
         id="feMerge7277-9">
        <feMergeNode
           id="feMergeNode7279-5"
           in="offsetBlur" />
        <feMergeNode
           id="feMergeNode7281-0"
           in="SourceGraphic" />
      </feMerge>
    </filter>
    <linearGradient
       gradientTransform="translate(-106.50532,88.538688)"
       inkscape:collect="always"
       xlink:href="#linearGradient7067-6"
       id="linearGradient6845-0"
       x1="158.98439"
       y1="541.79889"
       x2="186.48438"
       y2="568.22748"
       gradientUnits="userSpaceOnUse" />
    <linearGradient
       id="linearGradient7067-6">
      <stop
         id="stop7069-1"
         offset="0"
         style="stop-color:#ff3500;stop-opacity:1;" />
      <stop
         id="stop7071-5"
         offset="1"
         style="stop-color:#d30f13;stop-opacity:1;" />
    </linearGradient>
    <clipPath
       clipPathUnits="userSpaceOnUse"
       id="clipPath6846">
      <path
         id="path6848"
         d="m 58.366251,695.35737 56.454989,0 c 2.60634,0 4.70458,-2.09824 4.70458,-4.70458 l 0,-56.45499 c 0,-2.60634 -2.09824,-4.70458 -4.70458,-4.70458 l -56.454989,0 c -2.606339,0 -4.704582,2.09824 -4.704582,4.70458 l 0,56.45499 c 0,2.60634 2.098243,4.70458 4.704582,4.70458 z"
         style="fill:url(#linearGradient6850);fill-opacity:1;fill-rule:nonzero;stroke:none" />
    </clipPath>
    <filter
       color-interpolation-filters="sRGB"
       id="filter7199-9"
       inkscape:label="Drop shadow"
       width="1.5"
       height="1.5"
       x="-0.25"
       y="-0.25">
      <feGaussianBlur
         id="feGaussianBlur7201-4"
         in="SourceAlpha"
         stdDeviation="2,000000"
         result="blur" />
      <feColorMatrix
         id="feColorMatrix7203-9"
         result="bluralpha"
         type="matrix"
         values="1 0 0 0 0 0 1 0 0 0 0 0 1 0 0 0 0 0 0,800000 0 " />
      <feOffset
         id="feOffset7205-0"
         in="bluralpha"
         dx="2,000000"
         dy="2,000000"
         result="offsetBlur" />
      <feMerge
         id="feMerge7207-9">
        <feMergeNode
           id="feMergeNode7209-1"
           in="offsetBlur" />
        <feMergeNode
           id="feMergeNode7211-7"
           in="SourceGraphic" />
      </feMerge>
    </filter>
    <linearGradient
       inkscape:collect="always"
       xlink:href="#linearGradient7664"
       id="linearGradient7670"
       gradientUnits="userSpaceOnUse"
       gradientTransform="matrix(1,0,0,-1,269.14286,436.00504)"
       x1="48.000011"
       y1="5.9999714"
       x2="48.000011"
       y2="89.999969" />
    <linearGradient
       x1="45.447727"
       y1="92.539597"
       x2="45.447727"
       y2="7.0165396"
       id="linearGradient7664"
       gradientUnits="userSpaceOnUse"
       gradientTransform="matrix(1.0058652,0,0,0.994169,100,0)">
      <stop
         id="stop7666"
         style="stop-color:#422d21;stop-opacity:1;"
         offset="0" />
      <stop
         id="stop7668"
         style="stop-color:#6a4830;stop-opacity:1;"
         offset="1" />
    </linearGradient>
    <linearGradient
       inkscape:collect="always"
       xlink:href="#ButtonShadow-0-3-0-0-6"
       id="linearGradient6782-3"
       gradientUnits="userSpaceOnUse"
       gradientTransform="matrix(1.0238095,0,0,1.0119048,-1.1428571,-98.071429)"
       x1="32.251034"
       y1="6.1317081"
       x2="32.251034"
       y2="90.238609" />
    <linearGradient
       x1="45.447727"
       y1="92.539597"
       x2="45.447727"
       y2="7.0165396"
       id="ButtonShadow-0-3-0-0-6"
       gradientUnits="userSpaceOnUse"
       gradientTransform="matrix(1.0058652,0,0,0.994169,100,0)">
      <stop
         id="stop3750-8-4-4-7-5"
         style="stop-color:#000000;stop-opacity:1"
         offset="0" />
      <stop
         id="stop3752-5-0-8-8-6"
         style="stop-color:#000000;stop-opacity:0.58823532"
         offset="1" />
    </linearGradient>
    <linearGradient
       inkscape:collect="always"
       xlink:href="#ButtonShadow-0-3-0-0-6"
       id="linearGradient6784-3"
       gradientUnits="userSpaceOnUse"
       gradientTransform="matrix(1.0238095,0,0,1.0119048,-1.1428571,-98.071429)"
       x1="32.251034"
       y1="6.1317081"
       x2="32.251034"
       y2="90.238609" />
    <linearGradient
       x1="45.447727"
       y1="92.539597"
       x2="45.447727"
       y2="7.0165396"
       id="linearGradient6708"
       gradientUnits="userSpaceOnUse"
       gradientTransform="matrix(1.0058652,0,0,0.994169,100,0)">
      <stop
         id="stop6710"
         style="stop-color:#000000;stop-opacity:1"
         offset="0" />
      <stop
         id="stop6712"
         style="stop-color:#000000;stop-opacity:0.58823532"
         offset="1" />
    </linearGradient>
    <linearGradient
       inkscape:collect="always"
       xlink:href="#ButtonShadow-0-3-0-0-6"
       id="linearGradient6786-4"
       gradientUnits="userSpaceOnUse"
       gradientTransform="matrix(1.0238095,0,0,1.0119048,-1.1428571,-98.071429)"
       x1="32.251034"
       y1="6.1317081"
       x2="32.251034"
       y2="90.238609" />
    <linearGradient
       x1="45.447727"
       y1="92.539597"
       x2="45.447727"
       y2="7.0165396"
       id="linearGradient6715"
       gradientUnits="userSpaceOnUse"
       gradientTransform="matrix(1.0058652,0,0,0.994169,100,0)">
      <stop
         id="stop6717"
         style="stop-color:#000000;stop-opacity:1"
         offset="0" />
      <stop
         id="stop6719"
         style="stop-color:#000000;stop-opacity:0.58823532"
         offset="1" />
    </linearGradient>
    <linearGradient
       inkscape:collect="always"
       xlink:href="#ButtonShadow-0-3-0-0-6"
       id="linearGradient6788-1"
       gradientUnits="userSpaceOnUse"
       gradientTransform="matrix(1.0238095,0,0,1.0119048,-1.1428571,-98.071429)"
       x1="32.251034"
       y1="6.1317081"
       x2="32.251034"
       y2="90.238609" />
    <linearGradient
       x1="45.447727"
       y1="92.539597"
       x2="45.447727"
       y2="7.0165396"
       id="linearGradient6722"
       gradientUnits="userSpaceOnUse"
       gradientTransform="matrix(1.0058652,0,0,0.994169,100,0)">
      <stop
         id="stop6724"
         style="stop-color:#000000;stop-opacity:1"
         offset="0" />
      <stop
         id="stop6726"
         style="stop-color:#000000;stop-opacity:0.58823532"
         offset="1" />
    </linearGradient>
    <linearGradient
       y2="90.238609"
       x2="32.251034"
       y1="6.1317081"
       x1="32.251034"
       gradientTransform="translate(0,-97)"
       gradientUnits="userSpaceOnUse"
       id="linearGradient6645"
       xlink:href="#ButtonShadow-0-3-0-0-6"
       inkscape:collect="always" />
    <linearGradient
       x1="45.447727"
       y1="92.539597"
       x2="45.447727"
       y2="7.0165396"
       id="linearGradient6729"
       gradientUnits="userSpaceOnUse"
       gradientTransform="matrix(1.0058652,0,0,0.994169,100,0)">
      <stop
         id="stop6731"
         style="stop-color:#000000;stop-opacity:1"
         offset="0" />
      <stop
         id="stop6733"
         style="stop-color:#000000;stop-opacity:0.58823532"
         offset="1" />
    </linearGradient>
    <linearGradient
       y2="90.238609"
       x2="32.251034"
       y1="6.1317081"
       x1="32.251034"
       gradientTransform="translate(0,-97)"
       gradientUnits="userSpaceOnUse"
       id="linearGradient6749"
       xlink:href="#ButtonShadow-0-3-0-0-6"
       inkscape:collect="always" />
  </defs>
  <sodipodi:namedview
     id="base"
     pagecolor="#ffffff"
     bordercolor="#666666"
     borderopacity="1.0"
     inkscape:pageopacity="0.0"
     inkscape:pageshadow="2"
     inkscape:zoom="0.35"
     inkscape:cx="103.88839"
     inkscape:cy="-97.325893"
     inkscape:document-units="px"
     inkscape:current-layer="layer1"
     showgrid="false"
     inkscape:showpageshadow="false"
     inkscape:window-width="1280"
     inkscape:window-height="753"
     inkscape:window-x="0"
     inkscape:window-y="26"
     inkscape:window-maximized="1" />
  <metadata
     id="metadata6772">
    <rdf:RDF>
      <cc:Work
         rdf:about="">
        <dc:format>image/svg+xml</dc:format>
        <dc:type
           rdf:resource="http://purl.org/dc/dcmitype/StillImage" />
        <dc:title></dc:title>
      </cc:Work>
    </rdf:RDF>
  </metadata>
  <g
     inkscape:label="Calque 1"
     inkscape:groupmode="layer"
     id="layer1"
     transform="translate(-271.11161,-343.97379)">
    <g
       transform="translate(269.14286,340.00504)"
       id="layer3-6-7-9">
      <path
         d="m 12,-95.03125 c -5.5110903,0 -10.03125,4.52016 -10.03125,10.03125 l 0,71 c 0,5.5110902 4.5201598,10.03125 10.03125,10.03125 l 72,0 c 5.51109,0 10.03125,-4.5201597 10.03125,-10.03125 l 0,-71 c 0,-5.51109 -4.52016,-10.03125 -10.03125,-10.03125 l -72,0 z"
         transform="scale(1,-1)"
         id="path3786-9-11-0"
         style="opacity:0.07999998;fill:url(#linearGradient6782-3);fill-opacity:1;fill-rule:nonzero;stroke:none;display:inline" />
      <path
         d="m 12,-94.03125 c -4.971633,0 -9.03125,4.059617 -9.03125,9.03125 l 0,71 c 0,4.9716329 4.0596171,9.03125 9.03125,9.03125 l 72,0 c 4.971633,0 9.03125,-4.059617 9.03125,-9.03125 l 0,-71 c 0,-4.971633 -4.059617,-9.03125 -9.03125,-9.03125 l -72,0 z"
         transform="scale(1,-1)"
         id="path3778-3-5-8"
         style="opacity:0.1;fill:url(#linearGradient6784-3);fill-opacity:1;fill-rule:nonzero;stroke:none;display:inline" />
      <path
         d="m 12,-93 c -4.4091333,0 -8,3.590867 -8,8 l 0,71 c 0,4.4091333 3.5908667,8 8,8 l 72,0 c 4.409133,0 8,-3.5908667 8,-8 l 0,-71 c 0,-4.409133 -3.590867,-8 -8,-8 l -72,0 z"
         transform="scale(1,-1)"
         id="path3770-3-9-8"
         style="opacity:0.2;fill:url(#linearGradient6786-4);fill-opacity:1;fill-rule:nonzero;stroke:none;display:inline" />
      <rect
         width="86"
         height="85"
         rx="7"
         ry="7"
         x="5"
         y="-92"
         transform="scale(1,-1)"
         id="rect3723-8-7-5"
         style="opacity:0.3;fill:url(#linearGradient6788-1);fill-opacity:1;fill-rule:nonzero;stroke:none;display:inline" />
      <rect
         width="84"
         height="84"
         rx="6"
         ry="6"
         x="6"
         y="-91"
         transform="scale(1,-1)"
         id="rect3716-0-76-0"
         style="opacity:0.45;fill:url(#linearGradient6749);fill-opacity:1;fill-rule:nonzero;stroke:none;display:inline" />
    </g>
    <path
       d="m 315.151,348.37504 c -11.84369,0.33566 -19.96398,5.94379 -20,5.96875 -8e-5,5e-5 -0.0312,0 -0.0312,0 -0.0269,0.0208 -0.19651,0.16381 -0.1875,0.15625 0.01,-0.008 -0.19649,0.16563 -0.1875,0.15625 0.009,-0.009 -0.16417,0.22905 -0.15625,0.21875 0.008,-0.0103 -0.16301,0.1986 -0.15625,0.1875 0.007,-0.0111 -0.13051,0.26176 -0.125,0.25 0.005,-0.0118 -0.0979,0.23104 -0.0937,0.21875 0.004,-0.0123 -0.0653,0.26268 -0.0625,0.25 0.001,-0.006 -0.0199,0.0577 -0.0312,0.125 a 1.3577032,1.3577032 0 0 0 -0.0937,0 c 0,0 -1.9163,0.35192 -3.8125,1.8125 -2.81496,2.16793 -9.23098,7.49552 -12.96875,17.59375 -5.75378,15.54546 0.38367,32.39761 12.40625,42.625 12.14765,10.33378 27.0625,9.09375 27.0625,9.09375 a 1.3577032,1.3577032 0 0 0 0.0312,0 c -0.009,8.6e-4 0.19609,-0.0327 0.1875,-0.0312 -0.009,0.002 0.16471,-0.0334 0.15625,-0.0312 -0.008,0.002 0.16453,-0.034 0.15625,-0.0312 -0.008,0.003 0.19556,-0.0658 0.1875,-0.0625 -0.008,0.003 0.16405,-0.0664 0.15625,-0.0625 -0.008,0.004 0.13249,-0.0982 0.125,-0.0937 -0.002,10e-4 0.0189,-0.0232 0.0312,-0.0312 0.33175,-0.0692 0.66503,-0.19594 1,-0.3125 0.83512,0.1 1.71433,0.18188 2.625,0.125 9.12123,-0.56973 22.93174,-6.12665 30.53125,-18.25 5.8016,-9.25563 6.56552,-18.1903 5.46875,-25.25 -1.09601,-7.05478 -3.96768,-12.25798 -5.40625,-14.53125 -0.96582,-1.58414 -1.65665,-2.32905 -2.0625,-2.75 l 0.0312,0 c -0.0467,-0.0637 -0.079,-0.10501 -0.0937,-0.125 -0.17251,-0.23414 -0.36282,-0.46988 -0.53125,-0.6875 a 1.3577032,1.3577032 0 0 0 -0.15625,-0.15625 1.3577032,1.3577032 0 0 0 -0.0312,-0.0312 c -0.58067,-0.94863 -1.16349,-1.96036 -1.9375,-2.84375 -3.72975,-4.25686 -12.20784,-11.74147 -26.71875,-13.28125 -1.81573,-0.19267 -3.59512,-0.26742 -5.3125,-0.21875 z"
       id="path3933-6-7-9"
       style="opacity:0.07999998;fill:#000000;fill-opacity:1" />
    <path
       style="fill:url(#linearGradient7670);fill-opacity:1;fill-rule:nonzero;stroke:none"
       d="m 281.14288,430.00505 72,0 c 3.324,0 6,-2.676 6,-6 l 0,-72 c 0,-3.324 -2.676,-6 -6,-6 l -72,0 c -3.324,0 -6,2.676 -6,6 l 0,72 c 0,3.324 2.676,6 6,6 z"
       id="rect3959-6-3-6" />
    <path
       transform="matrix(1.2753524,0,0,1.2753524,206.70534,-456.82064)"
       style="fill:url(#linearGradient6845-0);fill-opacity:1;stroke:none;filter:url(#filter7199-9)"
       d="m 54.587178,626.203 22.926642,0 c 3.313398,0 5.980862,2.6529 5.980862,5.94821 l 0,22.80146 c 0,3.29531 -2.667464,5.94821 -5.980862,5.94821 l -22.926642,0 c -3.313398,0 -5.980862,-2.6529 -5.980862,-5.94821 l 0,-22.80146 c 0,-3.29531 2.667464,-5.94821 5.980862,-5.94821 z"
       id="rect6780-5"
       clip-path="url(#clipPath6846)" />
    <path
       transform="matrix(1.2753524,0,0,1.2753524,206.70534,-456.82064)"
       style="fill:url(#linearGradient6861-0);fill-opacity:1;stroke:none;filter:url(#filter7269-2)"
       d="m 54.475545,666.203 22.926641,0 c 3.313398,0 5.980863,2.6529 5.980863,5.94821 l 0,22.80146 c 0,3.29531 -2.667465,5.94821 -5.980863,5.94821 l -22.926641,0 c -3.313398,0 -5.980863,-2.6529 -5.980863,-5.94821 l 0,-22.80146 c 0,-3.29531 2.667465,-5.94821 5.980863,-5.94821 z"
       id="rect6780-8-1"
       clip-path="url(#clipPath6862)" />
    <path
       transform="matrix(1.2753524,0,0,1.2753524,206.70534,-456.82064)"
       style="fill:url(#linearGradient6869-7);fill-opacity:1;stroke:none;filter:url(#filter7297-8)"
       d="m 94.383049,665.90088 23.000001,0 c 3.324,0 6,2.676 6,6 l 0,23 c 0,3.324 -2.676,6 -6,6 l -23.000001,0 c -3.324,0 -6,-2.676 -6,-6 l 0,-23 c 0,-3.324 2.676,-6 6,-6 z"
       id="rect6780-0-8-1"
       clip-path="url(#clipPath6870)" />
    <path
       transform="matrix(1.2753524,0,0,1.2753524,206.70534,-456.82064)"
       style="fill:url(#linearGradient6876);fill-opacity:1;stroke:none;filter:url(#filter7227-7)"
       d="m 94.494682,625.90088 22.999998,0 c 3.324,0 6,2.676 6,6 l 0,23 c 0,3.324 -2.676,6 -6,6 l -22.999998,0 c -3.324,0 -6,-2.676 -6,-6 l 0,-23 c 0,-3.324 2.676,-6 6,-6 z"
       id="rect6780-0-6"
       clip-path="url(#clipPath6854)" />
    <path
       style="opacity:0.5;fill:url(#linearGradient5989-9);fill-opacity:1;fill-rule:nonzero;stroke:none"
       id="rect3728-6-65-3"
       d="m 281.14286,346.00504 c -3.324,0 -6,2.676 -6,6 l 0,2 0,68 0,2 c 0,0.33472 0.0413,0.6507 0.0937,0.96875 0.0487,0.2956 0.097,0.59691 0.1875,0.875 0.01,0.0304 0.0209,0.0636 0.0312,0.0937 0.0989,0.28777 0.23488,0.54745 0.375,0.8125 0.14459,0.27351 0.31562,0.53561 0.5,0.78125 0.18438,0.24563 0.37378,0.47347 0.59375,0.6875 0.43995,0.42806 0.94291,0.81453 1.5,1.09375 0.27855,0.13961 0.57347,0.24695 0.875,0.34375 -0.2562,-0.10022 -0.48671,-0.23627 -0.71875,-0.375 -0.007,-0.004 -0.0239,0.005 -0.0312,0 -0.0319,-0.0193 -0.0623,-0.0425 -0.0937,-0.0625 -0.12039,-0.0767 -0.23102,-0.16351 -0.34375,-0.25 -0.10617,-0.0808 -0.21328,-0.16111 -0.3125,-0.25 -0.17793,-0.16143 -0.34746,-0.34539 -0.5,-0.53125 -0.10758,-0.13026 -0.21839,-0.26529 -0.3125,-0.40625 -0.0251,-0.0384 -0.0385,-0.0859 -0.0625,-0.125 -0.0648,-0.10303 -0.13023,-0.20452 -0.1875,-0.3125 -0.10101,-0.19471 -0.20567,-0.4157 -0.28125,-0.625 -0.008,-0.0218 -0.0236,-0.0405 -0.0312,-0.0625 -0.0318,-0.0919 -0.0358,-0.18683 -0.0625,-0.28125 -0.0303,-0.10662 -0.0704,-0.20303 -0.0937,-0.3125 -0.0729,-0.34151 -0.125,-0.69821 -0.125,-1.0625 l 0,-2 0,-68 0,-2 c 0,-2.78185 2.21815,-5 5,-5 l 2,0 68,0 2,0 c 2.78185,0 5,2.21815 5,5 l 0,2 0,68 0,2 c 0,0.36429 -0.0521,0.72099 -0.125,1.0625 -0.0442,0.20689 -0.0884,0.39766 -0.15625,0.59375 -0.008,0.022 -0.0233,0.0407 -0.0312,0.0625 -0.0627,0.17374 -0.13838,0.36745 -0.21875,0.53125 -0.0416,0.0828 -0.079,0.16995 -0.125,0.25 -0.0546,0.0972 -0.12677,0.18835 -0.1875,0.28125 -0.0941,0.14096 -0.20492,0.27599 -0.3125,0.40625 -0.14317,0.17445 -0.30314,0.347 -0.46875,0.5 -0.0112,0.0102 -0.02,0.0212 -0.0312,0.0312 -0.13839,0.12556 -0.28509,0.23444 -0.4375,0.34375 -0.10257,0.0732 -0.20432,0.15336 -0.3125,0.21875 -0.007,0.005 -0.0238,-0.004 -0.0312,0 -0.23204,0.13873 -0.46255,0.27478 -0.71875,0.375 0.30153,-0.0968 0.59645,-0.20414 0.875,-0.34375 0.55709,-0.27922 1.06005,-0.66569 1.5,-1.09375 0.21997,-0.21403 0.40937,-0.44187 0.59375,-0.6875 0.18438,-0.24564 0.35541,-0.50774 0.5,-0.78125 0.14012,-0.26505 0.27614,-0.52473 0.375,-0.8125 0.0104,-0.0308 0.0213,-0.0627 0.0312,-0.0937 0.0905,-0.27809 0.1388,-0.5794 0.1875,-0.875 0.0524,-0.31805 0.0937,-0.63403 0.0937,-0.96875 l 0,-2 0,-68 0,-2 c 0,-3.324 -2.676,-6 -6,-6 l -72,0 z" />
    <path
       style="opacity:0.2;fill:url(#radialGradient5986-7);fill-opacity:1;fill-rule:nonzero;stroke:none"
       id="path3615-4-6-8"
       d="m 281.14286,430.00504 c -3.324,0 -6,-2.676 -6,-6 l 0,-2 0,-68 0,-2 c 0,-0.33472 0.0413,-0.6507 0.0937,-0.96875 0.0487,-0.2956 0.097,-0.59692 0.1875,-0.875 0.01,-0.0304 0.0209,-0.0636 0.0312,-0.0937 0.0989,-0.28777 0.23488,-0.54745 0.375,-0.8125 0.14459,-0.27351 0.31562,-0.53562 0.5,-0.78125 0.18438,-0.24564 0.37378,-0.47347 0.59375,-0.6875 0.43995,-0.42806 0.94291,-0.81453 1.5,-1.09375 0.27855,-0.13961 0.57347,-0.24695 0.875,-0.34375 -0.2562,0.10022 -0.48671,0.23627 -0.71875,0.375 -0.007,0.004 -0.0239,-0.004 -0.0312,0 -0.0319,0.0193 -0.0623,0.0425 -0.0937,0.0625 -0.12039,0.0767 -0.23102,0.16351 -0.34375,0.25 -0.10617,0.0808 -0.21328,0.16111 -0.3125,0.25 -0.17793,0.16143 -0.34746,0.34539 -0.5,0.53125 -0.10758,0.13025 -0.21839,0.26528 -0.3125,0.40625 -0.0251,0.0384 -0.0385,0.0859 -0.0625,0.125 -0.0648,0.10303 -0.13023,0.20452 -0.1875,0.3125 -0.10101,0.19471 -0.20567,0.4157 -0.28125,0.625 -0.008,0.0218 -0.0236,0.0406 -0.0312,0.0625 -0.0318,0.092 -0.0358,0.18683 -0.0625,0.28125 -0.0303,0.10662 -0.0704,0.20303 -0.0937,0.3125 -0.0729,0.34151 -0.125,0.6982 -0.125,1.0625 l 0,2 0,68 0,2 c 0,2.78185 2.21815,5 5,5 l 2,0 68,0 2,0 c 2.78185,0 5,-2.21815 5,-5 l 0,-2 0,-68 0,-2 c 0,-0.3643 -0.0521,-0.72099 -0.125,-1.0625 -0.0442,-0.20689 -0.0884,-0.39766 -0.15625,-0.59375 -0.008,-0.0219 -0.0233,-0.0407 -0.0312,-0.0625 -0.0627,-0.17374 -0.13838,-0.36745 -0.21875,-0.53125 -0.0416,-0.0828 -0.079,-0.16995 -0.125,-0.25 -0.0546,-0.0972 -0.12677,-0.18835 -0.1875,-0.28125 -0.0941,-0.14097 -0.20492,-0.276 -0.3125,-0.40625 -0.14317,-0.17445 -0.30314,-0.347 -0.46875,-0.5 -0.0112,-0.0102 -0.02,-0.0211 -0.0312,-0.0312 -0.13839,-0.12556 -0.28509,-0.23444 -0.4375,-0.34375 -0.10257,-0.0731 -0.20432,-0.15336 -0.3125,-0.21875 -0.007,-0.004 -0.0238,0.004 -0.0312,0 -0.23204,-0.13873 -0.46255,-0.27478 -0.71875,-0.375 0.30153,0.0968 0.59645,0.20414 0.875,0.34375 0.55709,0.27922 1.06005,0.66569 1.5,1.09375 0.21997,0.21403 0.40937,0.44186 0.59375,0.6875 0.18438,0.24563 0.35541,0.50774 0.5,0.78125 0.14012,0.26505 0.27614,0.52473 0.375,0.8125 0.0104,0.0308 0.0213,0.0627 0.0312,0.0937 0.0905,0.27808 0.1388,0.5794 0.1875,0.875 0.0524,0.31805 0.0937,0.63403 0.0937,0.96875 l 0,2 0,68 0,2 c 0,3.324 -2.676,6 -6,6 l -72,0 z" />
  </g>
</svg>
